<?xml version="1.0" encoding="UTF-8"?>
<svg width="16px" height="16px" viewBox="0 0 16 16" version="1.1" xmlns="http://www.w3.org/2000/svg" xmlns:xlink="http://www.w3.org/1999/xlink">
    <!-- Generator: Sketch 52.6 (67491) - http://www.bohemiancoding.com/sketch -->
    <title>icon-link-16</title>
    <desc>Created with Sketch.</desc>
    <g id="Icon" stroke="none" stroke-width="1" fill="none" fill-rule="evenodd">
        <g id="Index" transform="translate(-560.000000, -160.000000)" fill="#262F36">
            <path d="M564.938727,168.232846 L563.403806,169.767767 C563.013282,170.158291 563.013282,170.791456 563.403806,171.181981 L564.818019,172.596194 C565.208544,172.986718 565.841709,172.986718 566.232233,172.596194 L569.06066,169.767767 C569.451184,169.377243 569.451184,168.744078 569.06066,168.353553 L567.646447,166.93934 L568.353553,166.232233 L569.767767,167.646447 C570.548816,168.427495 570.548816,169.693825 569.767767,170.474874 L566.93934,173.303301 C566.158291,174.084349 564.891961,174.084349 564.110913,173.303301 L562.696699,171.889087 C561.915651,171.108039 561.915651,169.841709 562.696699,169.06066 L564.651067,167.106292 C564.672486,167.492942 564.768372,167.876237 564.938727,168.232846 Z M566.93934,167.646447 L568.353553,169.06066 L567.646447,169.767767 L566.232233,168.353553 C565.451184,167.572505 565.451184,166.306175 566.232233,165.525126 L569.06066,162.696699 C569.841709,161.915651 571.108039,161.915651 571.889087,162.696699 L573.303301,164.110913 C574.084349,164.891961 574.084349,166.158291 573.303301,166.93934 L571.348933,168.893708 C571.327514,168.507058 571.231628,168.123763 571.061273,167.767154 L572.596194,166.232233 C572.986718,165.841709 572.986718,165.208544 572.596194,164.818019 L571.181981,163.403806 C570.791456,163.013282 570.158291,163.013282 569.767767,163.403806 L566.93934,166.232233 C566.548816,166.622757 566.548816,167.255922 566.93934,167.646447 Z" id="shape"></path>
        </g>
    </g>
</svg>