<?xml version="1.0" encoding="UTF-8"?>
<svg width="20px" height="20px" viewBox="0 0 20 20" version="1.1" xmlns="http://www.w3.org/2000/svg" xmlns:xlink="http://www.w3.org/1999/xlink">
    <!-- Generator: Sketch 52.6 (67491) - http://www.bohemiancoding.com/sketch -->
    <title>icon-location-20@1x</title>
    <desc>Created with Sketch.</desc>
    <g id="Icon" stroke="none" stroke-width="1" fill="none" fill-rule="evenodd">
        <g id="Index" transform="translate(-240.000000, -240.000000)" fill="#262F36">
            <path d="M252.292893,253.792893 C254.119676,251.96611 255,250.205463 255,247.5 C255,244.462434 252.537566,242 249.5,242 C246.462434,242 244,244.462434 244,247.5 C244,250.205463 244.880324,251.96611 246.707107,253.792893 L249.5,256.585786 L252.292893,253.792893 Z M249.5,258 L246,254.5 C244.5,253 243,251 243,247.5 C243,243.910149 245.910149,241 249.5,241 C253.089851,241 256,243.910149 256,247.5 C256,251 254.5,253 253,254.5 L249.5,258 Z M249.5,250 C248.119288,250 247,248.880712 247,247.5 C247,246.119288 248.119288,245 249.5,245 C250.880712,245 252,246.119288 252,247.5 C252,248.880712 250.880712,250 249.5,250 Z M249.5,249 C250.328427,249 251,248.328427 251,247.5 C251,246.671573 250.328427,246 249.5,246 C248.671573,246 248,246.671573 248,247.5 C248,248.328427 248.671573,249 249.5,249 Z" id="shape"></path>
        </g>
    </g>
</svg>