<?xml version="1.0" encoding="UTF-8"?>
<svg width="120px" height="120px" viewBox="0 0 120 120" version="1.1" xmlns="http://www.w3.org/2000/svg" xmlns:xlink="http://www.w3.org/1999/xlink">
    <!-- Generator: Sketch 54.1 (76490) - https://sketchapp.com -->
    <title>icon-eld-120</title>
    <desc>Created with Sketch.</desc>
    <g id="Icon" stroke="none" stroke-width="1" fill="none" fill-rule="evenodd">
        <g id="Index" transform="translate(-800.000000, -1000.000000)" fill="#262F36">
            <path d="M860,1105 C835.147186,1105 815,1084.85281 815,1060 C815,1035.14719 835.147186,1015 860,1015 C884.852814,1015 905,1035.14719 905,1060 C905,1084.85281 884.852814,1105 860,1105 Z M860,1103 C883.748244,1103 903,1083.74824 903,1060 C903,1036.25176 883.748244,1017 860,1017 C836.251756,1017 817,1036.25176 817,1060 C817,1083.74824 836.251756,1103 860,1103 Z M851.082958,1042 C851.559037,1039.16229 854.027004,1037 857,1037 L863,1037 C865.972996,1037 868.440963,1039.16229 868.917042,1042 L876,1042 C879.313708,1042 882,1044.68629 882,1048 L882,1072 C882,1075.31371 879.313708,1078 876,1078 L844,1078 C840.686292,1078 838,1075.31371 838,1072 L838,1048 C838,1044.68629 840.686292,1042 844,1042 L851.082958,1042 Z M853.126017,1042 L866.873983,1042 C866.42994,1040.27477 864.863839,1039 863,1039 L857,1039 C855.136161,1039 853.57006,1040.27477 853.126017,1042 Z M844,1044 C841.790861,1044 840,1045.79086 840,1048 L840,1072 C840,1074.20914 841.790861,1076 844,1076 L876,1076 C878.209139,1076 880,1074.20914 880,1072 L880,1048 C880,1045.79086 878.209139,1044 876,1044 L844,1044 Z M854.344727,1064.58027 L849,1064.58027 L849,1055.3 L854.344727,1055.3 L854.344727,1056.9123 L850.967773,1056.9123 L850.967773,1058.9499 L854.109863,1058.9499 L854.109863,1060.56221 L850.967773,1060.56221 L850.967773,1062.95527 L854.344727,1062.95527 L854.344727,1064.58027 Z M856.280762,1064.58027 L856.280762,1055.3 L858.248535,1055.3 L858.248535,1062.95527 L862.012695,1062.95527 L862.012695,1064.58027 L856.280762,1064.58027 Z M871.324707,1059.85127 C871.324707,1061.37895 870.889897,1062.54902 870.020264,1063.36152 C869.15063,1064.17403 867.894865,1064.58027 866.25293,1064.58027 L863.625,1064.58027 L863.625,1055.3 L866.538574,1055.3 C868.053556,1055.3 869.229976,1055.6999 870.067871,1056.49971 C870.905766,1057.29952 871.324707,1058.41669 871.324707,1059.85127 Z M869.280762,1059.90205 C869.280762,1057.90888 868.400562,1056.9123 866.640137,1056.9123 L865.592773,1056.9123 L865.592773,1062.95527 L866.437012,1062.95527 C868.332855,1062.95527 869.280762,1061.93754 869.280762,1059.90205 Z" id="shape"></path>
        </g>
    </g>
</svg>