<?xml version="1.0" encoding="UTF-8"?>
<svg width="20px" height="20px" viewBox="0 0 20 20" version="1.1" xmlns="http://www.w3.org/2000/svg" xmlns:xlink="http://www.w3.org/1999/xlink">
    <!-- Generator: Sketch 52.6 (67491) - http://www.bohemiancoding.com/sketch -->
    <title>icon-external-link-20@1x</title>
    <desc>Created with Sketch.</desc>
    <g id="Icon" stroke="none" stroke-width="1" fill="none" fill-rule="evenodd">
        <g id="Index" transform="translate(-640.000000, -360.000000)" fill="#262F36">
            <path d="M656,368 L657,368 L657,375 C657,376.104569 656.104569,377 655,377 L644,377 C642.895431,377 642,376.104569 642,375 L642,364 C642,362.895431 642.895431,362 644,362 L651,362 L651,363 L644,363 C643.447715,363 643,363.447715 643,364 L643,375 C643,375.552285 643.447715,376 644,376 L655,376 C655.552285,376 656,375.552285 656,375 L656,368 Z M655.291068,363 L652,363 L652,362 L657,362 L657,367 L656,367 L656,363.705281 L649.927107,369.778175 L649.22,369.071068 L655.291068,363 Z" id="shape"></path>
        </g>
    </g>
</svg>