<?xml version="1.0" encoding="UTF-8"?>
<svg width="20px" height="20px" viewBox="0 0 20 20" version="1.1" xmlns="http://www.w3.org/2000/svg" xmlns:xlink="http://www.w3.org/1999/xlink">
    <!-- Generator: Sketch 52.6 (67491) - http://www.bohemiancoding.com/sketch -->
    <title>icon-developers-filled-20</title>
    <desc>Created with Sketch.</desc>
    <g id="Icon" stroke="none" stroke-width="1" fill="none" fill-rule="evenodd">
        <g id="Index" transform="translate(-640.000000, -1240.000000)" fill="#262F36">
            <path d="M655.156854,1243.13604 L656.571068,1241.72183 L657.278175,1242.42893 L655.863961,1243.84315 L657.278175,1245.25736 C658.059223,1246.03841 658.059223,1247.30474 657.278175,1248.08579 L654.449747,1250.91421 L648.085786,1244.55025 L650.914214,1241.72183 C651.695262,1240.94078 652.961592,1240.94078 653.742641,1241.72183 L655.156854,1243.13604 Z M643.843146,1255.86396 L642.428932,1257.27817 L641.721825,1256.57107 L643.136039,1255.15685 L641.721825,1253.74264 C640.940777,1252.96159 640.940777,1251.69526 641.721825,1250.91421 L644.550253,1248.08579 L645.964466,1249.5 L648.085786,1247.37868 L648.792893,1248.08579 L646.671573,1250.20711 L648.792893,1252.32843 L650.914214,1250.20711 L651.62132,1250.91421 L649.5,1253.03553 L650.914214,1254.44975 L648.085786,1257.27817 C647.304738,1258.05922 646.038408,1258.05922 645.257359,1257.27817 L643.843146,1255.86396 Z" id="Shape"></path>
        </g>
    </g>
</svg>