<?xml version="1.0" encoding="UTF-8"?>
<svg width="20px" height="20px" viewBox="0 0 20 20" version="1.1" xmlns="http://www.w3.org/2000/svg" xmlns:xlink="http://www.w3.org/1999/xlink">
    <!-- Generator: Sketch 52.6 (67491) - http://www.bohemiancoding.com/sketch -->
    <title>icon-upgrade-20@1x</title>
    <desc>Created with Sketch.</desc>
    <g id="Icon" stroke="none" stroke-width="1" fill="none" fill-rule="evenodd">
        <g id="Index" transform="translate(-1080.000000, -320.000000)" fill="#262F36">
            <path d="M1091,330.06619 L1091,328.9 L1095.57085,331.642507 C1096.04443,331.926655 1096.19799,332.540915 1095.91384,333.014496 C1095.82939,333.155245 1095.71159,333.273043 1095.57085,333.357493 L1090.0145,336.691303 C1089.69781,336.881312 1089.30219,336.881312 1088.9855,336.691303 L1083.42915,333.357493 C1082.95557,333.073345 1082.80201,332.459085 1083.08616,331.985504 C1083.17061,331.844755 1083.28841,331.726957 1083.42915,331.642507 L1088,328.9 L1088,330.06619 L1083.94365,332.5 L1089.5,335.83381 L1095.05635,332.5 L1091,330.06619 Z M1090,323.87868 L1090,333 L1089,333 L1089,323.949747 L1086.70711,326.242641 L1086,325.535534 L1089.53553,322 L1093.07107,325.535534 L1092.36396,326.242641 L1090,323.87868 Z" id="shape"></path>
        </g>
    </g>
</svg>