<?xml version="1.0" encoding="UTF-8"?>
<svg width="20px" height="20px" viewBox="0 0 20 20" version="1.1" xmlns="http://www.w3.org/2000/svg" xmlns:xlink="http://www.w3.org/1999/xlink">
    <!-- Generator: Sketch 54.1 (76490) - https://sketchapp.com -->
    <title>icon-20-o-trailer</title>
    <desc>Created with Sketch.</desc>
    <g id="Icon" stroke="none" stroke-width="1" fill="none" fill-rule="evenodd">
        <g id="Index" transform="translate(-800.000000, -414.000000)" fill="#262F36">
            <g id="icon/20/trailer" transform="translate(800.000000, 414.000000)">
                <path d="M9.91464715,14 C9.70872894,14.5825962 9.15310941,15 8.5,15 C7.84689059,15 7.29127106,14.5825962 7.08535285,14 L5.91464715,14 C5.70872894,14.5825962 5.15310941,15 4.5,15 C3.84689059,15 3.29127106,14.5825962 3.08535285,14 L2,14 C1.44771525,14 1,13.5522847 1,13 L1,7 C1,5.8954305 1.8954305,5 3,5 L17,5 C17.5522847,5 18,5.44771525 18,6 L18,13 C18,13.5522847 17.5522847,14 17,14 L9.91464715,14 L9.91464715,14 Z M9.91464715,13 L17,13 L17,6 L3,6 C2.44771525,6 2,6.44771525 2,7 L2,13 L3.08535285,13 C3.29127106,12.4174038 3.84689059,12 4.5,12 C5.15310941,12 5.70872894,12.4174038 5.91464715,13 L7.08535285,13 C7.29127106,12.4174038 7.84689059,12 8.5,12 C9.15310941,12 9.70872894,12.4174038 9.91464715,13 L9.91464715,13 Z M4.5,14 C4.77614237,14 5,13.7761424 5,13.5 C5,13.2238576 4.77614237,13 4.5,13 C4.22385763,13 4,13.2238576 4,13.5 C4,13.7761424 4.22385763,14 4.5,14 Z M8.5,14 C8.77614237,14 9,13.7761424 9,13.5 C9,13.2238576 8.77614237,13 8.5,13 C8.22385763,13 8,13.2238576 8,13.5 C8,13.7761424 8.22385763,14 8.5,14 Z" id="Shape"></path>
            </g>
        </g>
    </g>
</svg>