<?xml version="1.0" encoding="UTF-8"?>
<svg width="20px" height="20px" viewBox="0 0 20 20" version="1.1" xmlns="http://www.w3.org/2000/svg" xmlns:xlink="http://www.w3.org/1999/xlink">
    <!-- Generator: Sketch 52.6 (67491) - http://www.bohemiancoding.com/sketch -->
    <title>icon-beta-20@2x</title>
    <desc>Created with Sketch.</desc>
    <g id="Icon" stroke="none" stroke-width="1" fill="none" fill-rule="evenodd">
        <g id="Index" transform="translate(-280.000000, -360.000000)" fill="#262F36">
            <path d="M288,369 L290,369 C290.552285,369 291,368.552285 291,368 C291,367.447715 290.552285,367 290,367 L288,367 L288,369 Z M291.531598,369.286232 C292.111931,369.636313 292.5,370.272837 292.5,371 C292.5,372.104569 291.604569,373 290.5,373 L288,373 C287.447715,373 287,372.552285 287,372 L287,367 C287,366.447715 287.447715,366 288,366 L290,366 C291.104569,366 292,366.895431 292,368 C292,368.489819 291.823917,368.938512 291.531598,369.286232 Z M288,370 L288,372 L290.5,372 C291.052285,372 291.5,371.552285 291.5,371 C291.5,370.447715 291.052285,370 290.5,370 L288,370 Z M289.5,376 C293.089851,376 296,373.089851 296,369.5 C296,365.910149 293.089851,363 289.5,363 C285.910149,363 283,365.910149 283,369.5 C283,373.089851 285.910149,376 289.5,376 Z M289.5,377 C285.357864,377 282,373.642136 282,369.5 C282,365.357864 285.357864,362 289.5,362 C293.642136,362 297,365.357864 297,369.5 C297,373.642136 293.642136,377 289.5,377 Z" id="shape"></path>
        </g>
    </g>
</svg>