<?xml version="1.0" encoding="UTF-8"?>
<svg width="20px" height="20px" viewBox="0 0 20 20" version="1.1" xmlns="http://www.w3.org/2000/svg" xmlns:xlink="http://www.w3.org/1999/xlink">
    <!-- Generator: Sketch 52.6 (67491) - http://www.bohemiancoding.com/sketch -->
    <title>icon-calculator-20@1x</title>
    <desc>Created with Sketch.</desc>
    <g id="Icon" stroke="none" stroke-width="1" fill="none" fill-rule="evenodd">
        <g id="Index" transform="translate(-760.000000, -320.000000)" fill="#262F36">
            <path d="M765,323 C764.447715,323 764,323.447715 764,324 L764,335 C764,335.552285 764.447715,336 765,336 L774,336 C774.552285,336 775,335.552285 775,335 L775,324 C775,323.447715 774.552285,323 774,323 L765,323 Z M765,322 L774,322 C775.104569,322 776,322.895431 776,324 L776,335 C776,336.104569 775.104569,337 774,337 L765,337 C763.895431,337 763,336.104569 763,335 L763,324 C763,322.895431 763.895431,322 765,322 Z M772,331 L773,331 L773,334 L772,334 L772,331 Z M768,333 L769,333 L769,334 L768,334 L768,333 Z M770,333 L771,333 L771,334 L770,334 L770,333 Z M770,331 L771,331 L771,332 L770,332 L770,331 Z M768,331 L769,331 L769,332 L768,332 L768,331 Z M766,331 L767,331 L767,332 L766,332 L766,331 Z M766,329 L767,329 L767,330 L766,330 L766,329 Z M768,329 L769,329 L769,330 L768,330 L768,329 Z M770,329 L771,329 L771,330 L770,330 L770,329 Z M772,329 L773,329 L773,330 L772,330 L772,329 Z M764,326 L775,326 L775,327 L764,327 L764,326 Z M766,333 L767,333 L767,334 L766,334 L766,333 Z" id="shape"></path>
        </g>
    </g>
</svg>