<?xml version="1.0" encoding="UTF-8"?>
<svg width="20px" height="20px" viewBox="0 0 20 20" version="1.1" xmlns="http://www.w3.org/2000/svg" xmlns:xlink="http://www.w3.org/1999/xlink">
    <!-- Generator: Sketch 52.6 (67491) - http://www.bohemiancoding.com/sketch -->
    <title>icon-vehicle-filled-20</title>
    <desc>Created with Sketch.</desc>
    <g id="Icon" stroke="none" stroke-width="1" fill="none" fill-rule="evenodd">
        <g id="Index" transform="translate(-360.000000, -1240.000000)" fill="#262F36">
            <path d="M364.5,1256 C363.671573,1256 363,1255.32843 363,1254.5 C363,1253.67157 363.671573,1253 364.5,1253 C365.328427,1253 366,1253.67157 366,1254.5 C366,1255.32843 365.328427,1256 364.5,1256 Z M374.5,1256 C373.671573,1256 373,1255.32843 373,1254.5 C373,1253.67157 373.671573,1253 374.5,1253 C375.328427,1253 376,1253.67157 376,1254.5 C376,1255.32843 375.328427,1256 374.5,1256 Z M367,1255 L367,1254.5 C367,1253.11929 365.880712,1252 364.5,1252 C363.119288,1252 362,1253.11929 362,1254.5 L362,1255 C361.447715,1255 361,1254.55228 361,1254 L361,1246 C361,1244.89543 361.895431,1244 363,1244 L371,1244 C371.552285,1244 372,1244.44772 372,1245 L372,1254 C372,1254.55228 371.552285,1255 371,1255 L367,1255 Z M377,1255 L377,1254.5 C377,1253.11929 375.880712,1252 374.5,1252 L373,1252 L373,1247 L374.171573,1247 C374.702006,1247 375.210714,1247.21071 375.585786,1247.58579 L377.414214,1249.41421 C377.789286,1249.78929 378,1250.29799 378,1250.82843 L378,1254 C378,1254.55228 377.552285,1255 377,1255 Z" id="shape"></path>
        </g>
    </g>
</svg>