<?xml version="1.0" encoding="UTF-8"?>
<svg width="20px" height="20px" viewBox="0 0 20 20" version="1.1" xmlns="http://www.w3.org/2000/svg" xmlns:xlink="http://www.w3.org/1999/xlink">
    <!-- Generator: Sketch 54.1 (76490) - https://sketchapp.com -->
    <title>icon-20-fill-devices</title>
    <desc>Created with Sketch.</desc>
    <g id="Icon" stroke="none" stroke-width="1" fill="none" fill-rule="evenodd">
        <g id="Index" transform="translate(-400.000000, -1430.000000)" fill="#262F36">
            <path d="M406,1433 C406,1432.44772 406.447715,1432 407,1432 L410,1432 C410.552285,1432 411,1432.44772 411,1433 L413,1433 C414.104569,1433 415,1433.89543 415,1435 L415,1436 L410,1436 C408.693781,1436 407.582542,1436.83481 407.170706,1438 L405,1438 L405,1440 L407,1440 L407,1445 L404,1445 C402.895431,1445 402,1444.10457 402,1443 L402,1435 C402,1433.89543 402.895431,1433 404,1433 L406,1433 Z M410,1437 L415,1437 C416.104569,1437 417,1437.89543 417,1439 L417,1444 C417,1445.10457 416.104569,1446 415,1446 L410,1446 C408.895431,1446 408,1445.10457 408,1444 L408,1439 C408,1437.89543 408.895431,1437 410,1437 Z M411,1438 L410,1438 L410,1440 C410,1441.10457 410.895431,1442 412,1442 L413,1442 C414.104569,1442 415,1441.10457 415,1440 L415,1438 L414,1438 L414,1440 C414,1440.55228 413.552285,1441 413,1441 L412,1441 C411.447715,1441 411,1440.55228 411,1440 L411,1438 Z M412.5,1440.25 C412.914214,1440.25 413.25,1439.91421 413.25,1439.5 C413.25,1439.08579 412.914214,1438.75 412.5,1438.75 C412.085786,1438.75 411.75,1439.08579 411.75,1439.5 C411.75,1439.91421 412.085786,1440.25 412.5,1440.25 Z" id="Shape"></path>
        </g>
    </g>
</svg>