<?xml version="1.0" encoding="UTF-8"?>
<svg width="120px" height="120px" viewBox="0 0 120 120" version="1.1" xmlns="http://www.w3.org/2000/svg" xmlns:xlink="http://www.w3.org/1999/xlink">
    <!-- Generator: Sketch 52.6 (67491) - http://www.bohemiancoding.com/sketch -->
    <title>icon-file-import-120</title>
    <desc>Created with Sketch.</desc>
    <g id="Icon" stroke="none" stroke-width="1" fill="none" fill-rule="evenodd">
        <g id="Index" transform="translate(-440.000000, -1000.000000)" fill="#262F36">
            <path d="M520.818551,1020.09489 C520.490237,1020.67284 520.201866,1021.27643 519.957191,1021.90193 C513.993002,1018.77123 507.203348,1017 500,1017 C476.251756,1017 457,1036.25176 457,1060 C457,1083.74824 476.251756,1103 500,1103 C523.748244,1103 543,1083.74824 543,1060 C543,1052.79665 541.228765,1046.007 538.098067,1040.04281 C538.723567,1039.79813 539.327164,1039.50976 539.905105,1039.18145 C543.159594,1045.4069 545,1052.48852 545,1060 C545,1084.85281 524.852814,1105 500,1105 C475.147186,1105 455,1084.85281 455,1060 C455,1035.14719 475.147186,1015 500,1015 C507.511475,1015 514.5931,1016.84041 520.818551,1020.09489 Z M533,1039 C526.372583,1039 521,1033.62742 521,1027 C521,1020.37258 526.372583,1015 533,1015 C539.627417,1015 545,1020.37258 545,1027 C545,1033.62742 539.627417,1039 533,1039 Z M533,1037 C538.522847,1037 543,1032.52285 543,1027 C543,1021.47715 538.522847,1017 533,1017 C527.477153,1017 523,1021.47715 523,1027 C523,1032.52285 527.477153,1037 533,1037 Z M485,1040 L485,1080 L515,1080 L515,1050 L507,1050 C505.895431,1050 505,1049.10457 505,1048 L505,1040 L485,1040 Z M514.171573,1048 L507,1040.82843 L507,1048 L514.171573,1048 Z M485,1038 L507,1038 L517,1048 L517,1080 C517,1081.10457 516.104569,1082 515,1082 L485,1082 C483.895431,1082 483,1081.10457 483,1080 L483,1040 C483,1038.89543 483.895431,1038 485,1038 Z M491,1048 L501,1048 L501,1050 L491,1050 L491,1048 Z M491,1070 L509,1070 L509,1072 L491,1072 L491,1070 Z M491,1059 L509,1059 L509,1061 L491,1061 L491,1059 Z M530,1029.62157 L530,1028 C530,1024.13401 533.134007,1021 537,1021 L538,1021 L538,1023 L537,1023 C534.238576,1023 532,1025.23858 532,1028 L532,1029.62107 L534.535281,1027.08579 L535.949495,1028.5 L530.999747,1033.44975 L526.05,1028.5 L527.464214,1027.08579 L530,1029.62157 Z" id="shape"></path>
        </g>
    </g>
</svg>