<?xml version="1.0" encoding="UTF-8"?>
<svg width="120px" height="120px" viewBox="0 0 120 120" version="1.1" xmlns="http://www.w3.org/2000/svg" xmlns:xlink="http://www.w3.org/1999/xlink">
    <!-- Generator: Sketch 52.6 (67491) - http://www.bohemiancoding.com/sketch -->
    <title>icon-alerts-120</title>
    <desc>Created with Sketch.</desc>
    <g id="Icon" stroke="none" stroke-width="1" fill="none" fill-rule="evenodd">
        <g id="Index" transform="translate(-80.000000, -880.000000)" fill="#262F36">
            <path d="M140,983 C163.748244,983 183,963.748244 183,940 C183,916.251756 163.748244,897 140,897 C116.251756,897 97,916.251756 97,940 C97,963.748244 116.251756,983 140,983 Z M140,985 C115.147186,985 95,964.852814 95,940 C95,915.147186 115.147186,895 140,895 C164.852814,895 185,915.147186 185,940 C185,964.852814 164.852814,985 140,985 Z M135.100018,956 C135.563288,958.28224 137.581042,960 140,960 C142.418958,960 144.436712,958.28224 144.899982,956 L135.100018,956 Z M146.929111,956 C146.443881,959.392294 143.526472,962 140,962 C136.473528,962 133.556119,959.392294 133.070889,956 L118,956 L118,953 C121.911111,951.044444 124,948.411111 124,944.5 L124,934 C124,925.089806 131.089806,918 140,918 C148.910194,918 156,925.089806 156,934 L156,944.5 C156,948.411111 158.088889,951.044444 162,953 L162,956 L146.929111,956 Z M159.67569,954 C155.93101,951.716776 154,948.61693 154,944.5 L154,934 C154,926.194376 147.805624,920 140,920 C132.194376,920 126,926.194376 126,934 L126,944.5 C126,948.61693 124.06899,951.716776 120.32431,954 L159.67569,954 Z" id="shape"></path>
        </g>
    </g>
</svg>