<?xml version="1.0" encoding="UTF-8"?>
<svg width="20px" height="20px" viewBox="0 0 20 20" version="1.1" xmlns="http://www.w3.org/2000/svg" xmlns:xlink="http://www.w3.org/1999/xlink">
    <!-- Generator: Sketch 52.6 (67491) - http://www.bohemiancoding.com/sketch -->
    <title>icon-i-20@2x</title>
    <desc>Created with Sketch.</desc>
    <g id="Icon" stroke="none" stroke-width="1" fill="none" fill-rule="evenodd">
        <g id="Index" transform="translate(-240.000000, -360.000000)" fill="#262F36">
            <path d="M249.5,377 C245.357864,377 242,373.642136 242,369.5 C242,365.357864 245.357864,362 249.5,362 C253.642136,362 257,365.357864 257,369.5 C257,373.642136 253.642136,377 249.5,377 Z M249.5,376 C253.089851,376 256,373.089851 256,369.5 C256,365.910149 253.089851,363 249.5,363 C245.910149,363 243,365.910149 243,369.5 C243,373.089851 245.910149,376 249.5,376 Z M248.9,366.369141 C248.9,366.131509 248.961848,365.946778 249.085547,365.814941 C249.209245,365.683105 249.386652,365.617188 249.617773,365.617188 C249.848894,365.617188 250.027115,365.684732 250.152441,365.819824 C250.277768,365.954916 250.34043,366.13802 250.34043,366.369141 C250.34043,366.603517 250.278581,366.784993 250.154883,366.913574 C250.031184,367.042156 249.85215,367.106445 249.617773,367.106445 C249.139255,367.106445 248.9,366.86068 248.9,366.369141 Z M248.5,368.387009 C249.479044,367.934105 250.5,368.327376 250.5,369.312206 C250.5,369.793587 250.357127,370.148314 249.954264,370.893835 L249.947214,370.90688 C249.608573,371.533499 249.5,371.625196 249.5,372.087794 C249.5,372.550393 250.145711,372.714286 250.5,372.550393 L250.5,373.012991 C249.520956,373.465895 248.5,373.072624 248.5,372.087794 C248.5,371.603224 248.641427,371.254296 249.052786,370.49312 L249.059821,370.480103 C249.390804,369.867601 249.5,369.774804 249.5,369.312206 C249.5,368.849607 248.854289,368.685714 248.5,368.849607 L248.5,368.387009 Z" id="shape"></path>
        </g>
    </g>
</svg>