<?xml version="1.0" encoding="UTF-8"?>
<svg width="20px" height="20px" viewBox="0 0 20 20" version="1.1" xmlns="http://www.w3.org/2000/svg" xmlns:xlink="http://www.w3.org/1999/xlink">
    <!-- Generator: Sketch 52.6 (67491) - http://www.bohemiancoding.com/sketch -->
    <title>icon-scorecards-20@1x</title>
    <desc>Created with Sketch.</desc>
    <g id="Icon" stroke="none" stroke-width="1" fill="none" fill-rule="evenodd">
        <g id="Index" transform="translate(-200.000000, -240.000000)" fill="#262F36">
            <path d="M214.815806,248.916744 C214.232196,251.112192 212.324637,252.768094 210,252.977578 L210,256 L214,256 L214,257 L205,257 L205,256 L209,256 L209,252.977578 C206.675363,252.768094 204.767804,251.112192 204.184194,248.916744 C202.366283,248.540044 201,246.929578 201,245 C201,243.895431 201.895431,243 203,243 L204.267564,243 C204.613374,242.402199 205.259718,242 206,242 L213,242 C213.740282,242 214.386626,242.402199 214.732436,243 L216,243 C217.104569,243 218,243.895431 218,245 C218,246.929578 216.633717,248.540044 214.815806,248.916744 Z M214.990098,247.832774 C216.16046,247.423747 217,246.309916 217,245 C217,244.447715 216.552285,244 216,244 L215,244 L215,247.5 C215,247.611734 214.996668,247.72269 214.990098,247.832774 Z M204.009902,247.832774 C204.003332,247.72269 204,247.611734 204,247.5 L204,244 L203,244 C202.447715,244 202,244.447715 202,245 C202,246.309916 202.83954,247.423747 204.009902,247.832774 Z M214,247.5 L214,244 C214,243.447715 213.552285,243 213,243 L206,243 C205.447715,243 205,243.447715 205,244 L205,247.5 C205,249.985281 207.014719,252 209.5,252 C211.985281,252 214,249.985281 214,247.5 Z" id="shape"></path>
        </g>
    </g>
</svg>