<?xml version="1.0" encoding="UTF-8"?>
<svg width="24px" height="24px" viewBox="0 0 24 24" version="1.1" xmlns="http://www.w3.org/2000/svg" xmlns:xlink="http://www.w3.org/1999/xlink">
    <!-- Generator: Sketch 52.6 (67491) - http://www.bohemiancoding.com/sketch -->
    <title>icon-plus-24</title>
    <desc>Created with Sketch.</desc>
    <g id="Icon" stroke="none" stroke-width="1" fill="none" fill-rule="evenodd">
        <g id="Index" transform="translate(-160.000000, -440.000000)" fill="#262F36">
            <path d="M171,451 L171,446 L172,446 L172,451 L177,451 L177,452 L172,452 L172,457 L171,457 L171,452 L166,452 L166,451 L171,451 Z M171.49999,442 C176.746678,442 180.999979,446.253301 180.999979,451.500011 C180.999979,456.746699 176.746678,461 171.49999,461 C166.253302,461 162.000001,456.746699 162.000001,451.500011 C162.000001,446.253301 166.253302,442 171.49999,442 Z M171.5,443.000003 C166.805547,443.000003 163,446.805483 163,451.499915 C163,456.194324 166.805547,459.999959 171.5,459.999959 C176.194453,459.999959 180,456.194324 180,451.499915 C180,446.805483 176.194453,443.000003 171.5,443.000003 Z" id="shape"></path>
        </g>
    </g>
</svg>