<?xml version="1.0" encoding="UTF-8"?>
<svg width="20px" height="20px" viewBox="0 0 20 20" version="1.1" xmlns="http://www.w3.org/2000/svg" xmlns:xlink="http://www.w3.org/1999/xlink">
    <!-- Generator: Sketch 52.6 (67491) - http://www.bohemiancoding.com/sketch -->
    <title>icon-costs-20@1x</title>
    <desc>Created with Sketch.</desc>
    <g id="Icon" stroke="none" stroke-width="1" fill="none" fill-rule="evenodd">
        <g id="Index" transform="translate(-280.000000, -320.000000)" fill="#262F36">
            <path d="M289.462638,336.900614 C289.836669,336.635852 290.179061,336.329347 290.483027,335.987885 C290.652579,335.995863 290.825021,336 291,336 C293.832285,336 296,334.916142 296,334 L296,332.658898 C295.040847,333.380187 293.474045,333.882049 291.664994,333.981783 C291.779787,333.65362 291.866871,333.312446 291.923442,332.961063 C294.290139,332.759609 296,331.813659 296,331 L296,329.658898 C295.084628,330.347263 293.615815,330.835776 291.911172,330.965629 C291.852279,330.626714 291.764949,330.297556 291.651731,329.980703 C294.158151,329.831461 296,328.844479 296,328 L296,326.658898 C294.925078,327.467245 293.086971,328 291,328 C290.818511,328 290.638904,327.995971 290.461518,327.988082 C290.046833,327.527226 289.561768,327.130961 289.023247,326.81621 C289.624926,326.932211 290.29168,327 291,327 C293.832285,327 296,325.916142 296,325 C296,324.083858 293.832285,323 291,323 C288.167715,323 286,324.083858 286,325 C286,325.353898 286.323469,325.732823 286.883762,326.06463 C286.595347,326.022054 286.300249,326 286,326 C285.659288,326 285.325208,326.028399 285,326.082958 L285,325 C285,323.343146 287.686292,322 291,322 C294.313708,322 297,323.343146 297,325 L297,334 C297,335.656854 294.313708,337 291,337 C290.468579,337 289.953294,336.965456 289.462638,336.900614 Z M286,336 C288.209139,336 290,334.209139 290,332 C290,329.790861 288.209139,328 286,328 C283.790861,328 282,329.790861 282,332 C282,334.209139 283.790861,336 286,336 Z M286,337 C283.238576,337 281,334.761424 281,332 C281,329.238576 283.238576,327 286,327 C288.761424,327 291,329.238576 291,332 C291,334.761424 288.761424,337 286,337 Z M287.731641,332.849512 C287.731641,333.211818 287.60062,333.502912 287.338574,333.722803 C287.076529,333.942693 286.70967,334.074284 286.237988,334.117578 L286.237988,334.818262 L285.769727,334.818262 L285.769727,334.13125 C285.213734,334.119857 284.726109,334.021876 284.306836,333.837305 L284.306836,332.934961 C284.505079,333.032943 284.743765,333.119531 285.0229,333.194727 C285.302036,333.269922 285.550975,333.314355 285.769727,333.328027 L285.769727,332.268457 L285.540723,332.17959 C285.089549,332.001855 284.769972,331.808741 284.581982,331.600244 C284.393993,331.391747 284.3,331.133693 284.3,330.826074 C284.3,330.495669 284.429312,330.223943 284.687939,330.010889 C284.946567,329.797834 285.307159,329.668522 285.769727,329.622949 L285.769727,329.1 L286.237988,329.1 L286.237988,329.609277 C286.759801,329.632064 287.231476,329.736881 287.653027,329.92373 L287.331738,330.723535 C286.976268,330.577701 286.611688,330.488835 286.237988,330.456934 L286.237988,331.465234 C286.682326,331.636134 286.998485,331.784244 287.186475,331.90957 C287.374464,332.034896 287.512321,332.172753 287.600049,332.323145 C287.687777,332.473536 287.731641,332.64899 287.731641,332.849512 Z M286.702832,332.900781 C286.702832,332.805078 286.664095,332.724187 286.586621,332.658105 C286.509147,332.592024 286.392937,332.523666 286.237988,332.453027 L286.237988,333.304102 C286.547886,333.251692 286.702832,333.117254 286.702832,332.900781 Z M285.328809,330.826074 C285.328809,330.926335 285.363558,331.008935 285.433057,331.073877 C285.502556,331.138819 285.614778,331.205468 285.769727,331.273828 L285.769727,330.470605 C285.47578,330.5139 285.328809,330.632388 285.328809,330.826074 Z" id="shape"></path>
        </g>
    </g>
</svg>