<?xml version="1.0" encoding="UTF-8"?>
<svg width="20px" height="20px" viewBox="0 0 20 20" version="1.1" xmlns="http://www.w3.org/2000/svg" xmlns:xlink="http://www.w3.org/1999/xlink">
    <!-- Generator: Sketch 52.6 (67491) - http://www.bohemiancoding.com/sketch -->
    <title>icon-ifta-filled-20</title>
    <desc>Created with Sketch.</desc>
    <g id="Icon" stroke="none" stroke-width="1" fill="none" fill-rule="evenodd">
        <g id="Index" transform="translate(-520.000000, -1240.000000)" fill="#262F36">
            <path d="M534,1247 L524,1247 L524,1244 C524,1242.89543 524.895431,1242 526,1242 L532,1242 C533.104569,1242 534,1242.89543 534,1244 L534,1247 Z M534,1254 L534,1256 L536,1256 L536,1257 L523,1257 L523,1256 L524,1256 L524,1248 L534,1248 L534,1253 L535,1253 C535.552285,1253 536,1252.55228 536,1252 L536,1248.91465 C535.417404,1248.70873 535,1248.15311 535,1247.5 C535,1246.84689 535.417404,1246.29127 536,1246.08535 L536,1245 C536,1244.44772 535.552285,1244 535,1244 L535,1243 C536.104569,1243 537,1243.89543 537,1245 L537,1246.08535 C537.582596,1246.29127 538,1246.84689 538,1247.5 C538,1248.15311 537.582596,1248.70873 537,1248.91465 L537,1252 C537,1253.10457 536.104569,1254 535,1254 L534,1254 Z M527,1250 L527,1251 L528,1251 L528,1250 L527,1250 Z M530,1250 L530,1251 L531,1251 L531,1250 L530,1250 Z" id="shape"></path>
        </g>
    </g>
</svg>