<?xml version="1.0" encoding="UTF-8"?>
<svg width="20px" height="20px" viewBox="0 0 20 20" version="1.1" xmlns="http://www.w3.org/2000/svg" xmlns:xlink="http://www.w3.org/1999/xlink">
    <!-- Generator: Sketch 52.6 (67491) - http://www.bohemiancoding.com/sketch -->
    <title>Artboard</title>
    <desc>Created with Sketch.</desc>
    <g id="Artboard" stroke="none" stroke-width="1" fill="none" fill-rule="evenodd">
        <g id="icon/20/overview-filled" fill="#262F36">
            <g id="shape">
                <path d="M9.50004038,2 C13.6420555,2 17,5.35779239 17,9.5 C17,13.6420996 13.6420555,17 9.50004038,17 C5.35782126,17 2.00008075,13.6420996 2.00008075,9.5 C2.00008075,5.35779239 5.35782126,2 9.50004038,2 Z M5,9.5 L6,9.5 C6,7.56700338 7.56700338,6 9.5,6 C11.4329966,6 13,7.56700338 13,9.5 L14,9.5 C14,7.01471863 11.9852814,5 9.5,5 C7.01471863,5 5,7.01471863 5,9.5 Z M9,11.0853529 C8.41740381,11.2912711 8,11.8468906 8,12.5 C8,13.3284271 8.67157288,14 9.5,14 C10.3284271,14 11,13.3284271 11,12.5 C11,11.8468906 10.5825962,11.2912711 10,11.0853529 L10,8 L9,8 L9,11.0853529 Z"></path>
            </g>
        </g>
    </g>
</svg>