<?xml version="1.0" encoding="UTF-8"?>
<svg width="20px" height="20px" viewBox="0 0 20 20" version="1.1" xmlns="http://www.w3.org/2000/svg" xmlns:xlink="http://www.w3.org/1999/xlink">
    <!-- Generator: Sketch 52.6 (67491) - http://www.bohemiancoding.com/sketch -->
    <title>icon-sign-20@1x</title>
    <desc>Created with Sketch.</desc>
    <g id="Icon" stroke="none" stroke-width="1" fill="none" fill-rule="evenodd">
        <g id="Index" transform="translate(-240.000000, -320.000000)" fill="#262F36">
            <path d="M255.106064,332.629861 L253.374013,333.629861 L255.118776,334.64828 L255.106064,332.629861 Z M252.874013,332.763836 L254.606064,331.763836 L249.241025,322.471316 L247.508975,323.471316 L252.874013,332.763836 Z M248.741025,321.60529 C249.219318,321.329148 249.830908,321.493023 250.107051,321.971316 L255.974452,332.133953 C256.061349,332.284463 256.10752,332.455023 256.108413,332.628815 L256.127754,336.39312 L252.872749,334.497453 C252.722166,334.409755 252.597113,334.28423 252.509984,334.133318 L246.642949,323.971316 C246.366807,323.493023 246.530682,322.881433 247.008975,322.60529 L248.741025,321.60529 Z M241.456903,336.203076 L240.543097,335.796924 C241.996272,332.527412 243.374796,331.148888 244.77736,332.083982 C245.559688,332.605561 245.858495,333.30696 246.114977,334.656656 C246.13565,334.76619 246.13565,334.76619 246.155779,334.874117 C246.353012,335.930589 246.496283,336.339048 246.824881,336.619931 C247.02222,336.788615 247.132861,336.795803 247.313021,336.684685 C247.527651,336.552306 247.759926,336.295409 248.137822,335.7918 C248.210287,335.694924 248.210287,335.694924 248.283867,335.596037 C248.690657,335.049601 248.894205,334.799552 249.161215,334.553558 C250.477924,333.340491 251.888021,333.921133 252.478204,335.853983 C252.612834,336.294897 253.097593,336.446014 254.007416,336.220207 L255.115854,336.912924 C253.166419,337.624499 251.914368,337.431689 251.521796,336.146017 C251.129189,334.860228 250.55904,334.625455 249.838785,335.289017 C249.63408,335.477609 249.454205,335.698576 249.086003,336.193179 C249.012326,336.292197 249.012326,336.292197 248.937678,336.391992 C248.484152,336.996391 248.196192,337.314876 247.837977,337.535814 C247.292248,337.872407 246.706577,337.834356 246.175119,337.380069 C245.604734,336.892507 245.413569,336.347506 245.172763,335.057637 C245.152668,334.949896 245.152668,334.949896 245.132558,334.843344 C244.923434,333.742863 244.709452,333.240578 244.22264,332.916018 C243.625312,332.517778 242.670502,333.472588 241.456903,336.203076 Z" id="shape"></path>
        </g>
    </g>
</svg>