<?xml version="1.0" encoding="UTF-8"?>
<svg width="20px" height="20px" viewBox="0 0 20 20" version="1.1" xmlns="http://www.w3.org/2000/svg" xmlns:xlink="http://www.w3.org/1999/xlink">
    <!-- Generator: Sketch 52.6 (67491) - http://www.bohemiancoding.com/sketch -->
    <title>icon-ellipsis-20@1x</title>
    <desc>Created with Sketch.</desc>
    <g id="Icon" stroke="none" stroke-width="1" fill="none" fill-rule="evenodd">
        <g id="Index" transform="translate(-440.000000, -320.000000)" fill="#262F36">
            <path d="M450,326 C449.447715,326 449,325.552285 449,325 C449,324.447715 449.447715,324 450,324 C450.552285,324 451,324.447715 451,325 C451,325.552285 450.552285,326 450,326 Z M450,331 C449.447715,331 449,330.552285 449,330 C449,329.447715 449.447715,329 450,329 C450.552285,329 451,329.447715 451,330 C451,330.552285 450.552285,331 450,331 Z M450,336 C449.447715,336 449,335.552285 449,335 C449,334.447715 449.447715,334 450,334 C450.552285,334 451,334.447715 451,335 C451,335.552285 450.552285,336 450,336 Z" id="shape"></path>
        </g>
    </g>
</svg>