<?xml version="1.0" encoding="UTF-8"?>
<svg width="20px" height="20px" viewBox="0 0 20 20" version="1.1" xmlns="http://www.w3.org/2000/svg" xmlns:xlink="http://www.w3.org/1999/xlink">
    <!-- Generator: Sketch 52.6 (67491) - http://www.bohemiancoding.com/sketch -->
    <title>icon-cycle-20@1x</title>
    <desc>Created with Sketch.</desc>
    <g id="Icon" stroke="none" stroke-width="1" fill="none" fill-rule="evenodd">
        <g id="Index" transform="translate(-200.000000, -280.000000)" fill="#262F36">
            <path d="M209.5,297 C205.357864,297 202,293.642136 202,289.5 C202,285.357864 205.357864,282 209.5,282 C213.642136,282 217,285.357864 217,289.5 C217,293.642136 213.642136,297 209.5,297 Z M209.5,296 C213.089851,296 216,293.089851 216,289.5 C216,285.910149 213.089851,283 209.5,283 C205.910149,283 203,285.910149 203,289.5 C203,293.089851 205.910149,296 209.5,296 Z M209.5,294 C207.014719,294 205,291.985281 205,289.5 C205,287.014719 207.014719,285 209.5,285 C211.985281,285 214,287.014719 214,289.5 C214,291.985281 211.985281,294 209.5,294 Z M209.5,293 C211.432997,293 213,291.432997 213,289.5 C213,287.567003 211.432997,286 209.5,286 C207.567003,286 206,287.567003 206,289.5 C206,291.432997 207.567003,293 209.5,293 Z" id="shape"></path>
        </g>
    </g>
</svg>