<?xml version="1.0" encoding="UTF-8"?>
<svg width="20px" height="20px" viewBox="0 0 20 20" version="1.1" xmlns="http://www.w3.org/2000/svg" xmlns:xlink="http://www.w3.org/1999/xlink">
    <!-- Generator: Sketch 52.6 (67491) - http://www.bohemiancoding.com/sketch -->
    <title>icon-dashcam-20@1x</title>
    <desc>Created with Sketch.</desc>
    <g id="Icon" stroke="none" stroke-width="1" fill="none" fill-rule="evenodd">
        <g id="Index" transform="translate(-960.000000, -240.000000)" fill="#262F36">
            <path d="M964,243 C963.447715,243 963,243.447715 963,244 L963,255 C963,255.552285 963.447715,256 964,256 L975,256 C975.552285,256 976,255.552285 976,255 L976,244 C976,243.447715 975.552285,243 975,243 L964,243 Z M964,242 L975,242 C976.104569,242 977,242.895431 977,244 L977,255 C977,256.104569 976.104569,257 975,257 L964,257 C962.895431,257 962,256.104569 962,255 L962,244 C962,242.895431 962.895431,242 964,242 Z M969.5,253 C967.567003,253 966,251.432997 966,249.5 C966,247.567003 967.567003,246 969.5,246 C971.432997,246 973,247.567003 973,249.5 C973,251.432997 971.432997,253 969.5,253 Z M969.5,252 C970.880712,252 972,250.880712 972,249.5 C972,248.119288 970.880712,247 969.5,247 C968.119288,247 967,248.119288 967,249.5 C967,250.880712 968.119288,252 969.5,252 Z M969.5,251 C968.671573,251 968,250.328427 968,249.5 C968,248.671573 968.671573,248 969.5,248 C970.328427,248 971,248.671573 971,249.5 C971,250.328427 970.328427,251 969.5,251 Z" id="shape"></path>
        </g>
    </g>
</svg>