<?xml version="1.0" encoding="UTF-8"?>
<svg width="20px" height="20px" viewBox="0 0 20 20" version="1.1" xmlns="http://www.w3.org/2000/svg" xmlns:xlink="http://www.w3.org/1999/xlink">
    <!-- Generator: Sketch 52.6 (67491) - http://www.bohemiancoding.com/sketch -->
    <title>icon-account-security-20@1x</title>
    <desc>Created with Sketch.</desc>
    <g id="Icon" stroke="none" stroke-width="1" fill="none" fill-rule="evenodd">
        <g id="Index" transform="translate(-640.000000, -320.000000)" fill="#262F36">
            <path d="M650,333 L647,333 C645.343146,333 644,334.343146 644,336 L644,337 L643,337 L643,336 C643,333.790861 644.790861,332 647,332 L650,332 L650,333 Z M649.5,331 C647.014719,331 645,328.985281 645,326.5 C645,324.014719 647.014719,322 649.5,322 C651.985281,322 654,324.014719 654,326.5 C654,328.985281 651.985281,331 649.5,331 Z M649.5,330 C651.432997,330 653,328.432997 653,326.5 C653,324.567003 651.432997,323 649.5,323 C647.567003,323 646,324.567003 646,326.5 C646,328.432997 647.567003,330 649.5,330 Z M652,333.5 C652,334.80079 652.255967,335.760666 652.734614,336.401711 C653.173521,336.989534 653.75878,337.483211 654.5,337.883384 C655.24122,337.483211 655.826479,336.989534 656.265386,336.401711 C656.744033,335.760666 657,334.80079 657,333.5 L657,332.754301 L654.5,332.040016 L652,332.754301 L652,333.5 Z M651,332 L654.5,331 L658,332 L658,333.5 C658,335 657.688889,336.166667 657.066667,337 C656.444444,337.833333 655.588889,338.5 654.5,339 C653.411111,338.5 652.555556,337.833333 651.933333,337 C651.311111,336.166667 651,335 651,333.5 L651,332 Z" id="shape"></path>
        </g>
    </g>
</svg>