<?xml version="1.0" encoding="UTF-8"?>
<svg width="120px" height="120px" viewBox="0 0 120 120" version="1.1" xmlns="http://www.w3.org/2000/svg" xmlns:xlink="http://www.w3.org/1999/xlink">
    <!-- Generator: Sketch 52.6 (67491) - http://www.bohemiancoding.com/sketch -->
    <title>icon-dashcam-120</title>
    <desc>Created with Sketch.</desc>
    <g id="Icon" stroke="none" stroke-width="1" fill="none" fill-rule="evenodd">
        <g id="Index" transform="translate(-80.000000, -640.000000)" fill="#262F36">
            <path d="M140,745 C115.147186,745 95,724.852814 95,700 C95,675.147186 115.147186,655 140,655 C164.852814,655 185,675.147186 185,700 C185,724.852814 164.852814,745 140,745 Z M140,743 C163.748244,743 183,723.748244 183,700 C183,676.251756 163.748244,657 140,657 C116.251756,657 97,676.251756 97,700 C97,723.748244 116.251756,743 140,743 Z M126,682 C123.790861,682 122,683.790861 122,686 L122,714 C122,716.209139 123.790861,718 126,718 L154,718 C156.209139,718 158,716.209139 158,714 L158,686 C158,683.790861 156.209139,682 154,682 L126,682 Z M126,680 L154,680 C157.313708,680 160,682.686292 160,686 L160,714 C160,717.313708 157.313708,720 154,720 L126,720 C122.686292,720 120,717.313708 120,714 L120,686 C120,682.686292 122.686292,680 126,680 Z M140,707 C143.865993,707 147,703.865993 147,700 C147,696.134007 143.865993,693 140,693 C136.134007,693 133,696.134007 133,700 C133,703.865993 136.134007,707 140,707 Z M140,709 C135.029437,709 131,704.970563 131,700 C131,695.029437 135.029437,691 140,691 C144.970563,691 149,695.029437 149,700 C149,704.970563 144.970563,709 140,709 Z M140,704 C137.790861,704 136,702.209139 136,700 C136,697.790861 137.790861,696 140,696 C142.209139,696 144,697.790861 144,700 C144,702.209139 142.209139,704 140,704 Z M140,702 C141.104569,702 142,701.104569 142,700 C142,698.895431 141.104569,698 140,698 C138.895431,698 138,698.895431 138,700 C138,701.104569 138.895431,702 140,702 Z" id="shape"></path>
        </g>
    </g>
</svg>