<?xml version="1.0" encoding="UTF-8"?>
<svg width="120px" height="120px" viewBox="0 0 120 120" version="1.1" xmlns="http://www.w3.org/2000/svg" xmlns:xlink="http://www.w3.org/1999/xlink">
    <!-- Generator: Sketch 52.6 (67491) - http://www.bohemiancoding.com/sketch -->
    <title>icon-messages-120</title>
    <desc>Created with Sketch.</desc>
    <g id="Icon" stroke="none" stroke-width="1" fill="none" fill-rule="evenodd">
        <g id="Index" transform="translate(-200.000000, -880.000000)" fill="#262F36">
            <path d="M260,983 C283.748244,983 303,963.748244 303,940 C303,916.251756 283.748244,897 260,897 C236.251756,897 217,916.251756 217,940 C217,963.748244 236.251756,983 260,983 Z M260,985 C235.147186,985 215,964.852814 215,940 C215,915.147186 235.147186,895 260,895 C284.852814,895 305,915.147186 305,940 C305,964.852814 284.852814,985 260,985 Z M259,949 C260.104569,949 261,948.104569 261,947 C261,945.895431 260.104569,945 259,945 C257.895431,945 257,945.895431 257,947 C257,948.104569 257.895431,949 259,949 Z M259,951 C256.790861,951 255,949.209139 255,947 C255,944.790861 256.790861,943 259,943 C261.209139,943 263,944.790861 263,947 C263,949.209139 261.209139,951 259,951 Z M271,949 C272.104569,949 273,948.104569 273,947 C273,945.895431 272.104569,945 271,945 C269.895431,945 269,945.895431 269,947 C269,948.104569 269.895431,949 271,949 Z M271,951 C268.790861,951 267,949.209139 267,947 C267,944.790861 268.790861,943 271,943 C273.209139,943 275,944.790861 275,947 C275,949.209139 273.209139,951 271,951 Z M254.35907,958 L280,958 L280,936 L250,936 L250,961.113621 L254.35907,958 Z M280,934 C281.104569,934 282,934.895431 282,936 L282,958 C282,959.104569 281.104569,960 280,960 L255,960 L248,965 L248,936 C248,934.895431 248.895431,934 250,934 L280,934 Z M272,932 L272,921 L242,921 L242,946.113621 L246,943.256478 L246,945.714286 L240,950 L240,921 C240,919.895431 240.895431,919 242,919 L272,919 C273.104569,919 274,919.895431 274,921 L274,932 L272,932 Z" id="shape"></path>
        </g>
    </g>
</svg>