<?xml version="1.0" encoding="UTF-8"?>
<svg width="120px" height="120px" viewBox="0 0 120 120" version="1.1" xmlns="http://www.w3.org/2000/svg" xmlns:xlink="http://www.w3.org/1999/xlink">
    <!-- Generator: Sketch 52.6 (67491) - http://www.bohemiancoding.com/sketch -->
    <title>icon-driver-invite-120</title>
    <desc>Created with Sketch.</desc>
    <g id="Icon" stroke="none" stroke-width="1" fill="none" fill-rule="evenodd">
        <g id="Index" transform="translate(-680.000000, -760.000000)" fill="#262F36">
            <path d="M778.098067,800.042809 C778.723567,799.798134 779.327164,799.509763 779.905105,799.181449 C783.159594,805.4069 785,812.488525 785,820 C785,844.852814 764.852814,865 740,865 C715.147186,865 695,844.852814 695,820 C695,795.147186 715.147186,775 740,775 C747.511475,775 754.5931,776.840406 760.818551,780.094895 C760.490237,780.672836 760.201866,781.276433 759.957191,781.901933 C753.993002,778.771235 747.203348,777 740,777 C716.251756,777 697,796.251756 697,820 C697,833.54947 703.266888,845.635229 713.060229,853.516844 C713.814431,844.26953 721.558271,837 731,837 L749,837 C758.441729,837 766.185569,844.26953 766.939771,853.516844 C776.733112,845.635229 783,833.54947 783,820 C783,812.796652 781.228765,806.006998 778.098067,800.042809 Z M715.000003,854.989794 C722.0448,860.032242 730.675822,863 740,863 C749.324178,863 757.9552,860.032242 764.999997,854.989794 C764.994483,846.157929 757.833154,839 749,839 L731,839 C722.166846,839 715.005517,846.157929 715.000003,854.989794 Z M740,831 C749.388841,831 757,823.388841 757,814 C757,804.611159 749.388841,797 740,797 C730.611159,797 723,804.611159 723,814 C723,823.388841 730.611159,831 740,831 Z M740,833 C729.50659,833 721,824.49341 721,814 C721,803.50659 729.50659,795 740,795 C750.49341,795 759,803.50659 759,814 C759,824.49341 750.49341,833 740,833 Z M773,799 C766.372583,799 761,793.627417 761,787 C761,780.372583 766.372583,775 773,775 C779.627417,775 785,780.372583 785,787 C785,793.627417 779.627417,799 773,799 Z M773,797 C778.522847,797 783,792.522847 783,787 C783,781.477153 778.522847,777 773,777 C767.477153,777 763,781.477153 763,787 C763,792.522847 767.477153,797 773,797 Z M769.005714,784 L773,786.33 L776.994286,784 L769.005714,784 Z M777,786.294286 L773,788.58 L769,786.294286 L769,790 L777,790 L777,786.294286 Z M769,782 L777,782 C778.104569,782 779,782.895431 779,784 L779,790 C779,791.104569 778.104569,792 777,792 L769,792 C767.895431,792 767,791.104569 767,790 L767,784 C767,782.895431 767.895431,782 769,782 Z" id="shape"></path>
        </g>
    </g>
</svg>