<?xml version="1.0" encoding="UTF-8"?>
<svg width="20px" height="20px" viewBox="0 0 20 20" version="1.1" xmlns="http://www.w3.org/2000/svg" xmlns:xlink="http://www.w3.org/1999/xlink">
    <!-- Generator: Sketch 52.6 (67491) - http://www.bohemiancoding.com/sketch -->
    <title>icon-calendar-20@1x</title>
    <desc>Created with Sketch.</desc>
    <g id="Icon" stroke="none" stroke-width="1" fill="none" fill-rule="evenodd">
        <g id="Index" transform="translate(-480.000000, -240.000000)" fill="#262F36">
            <path d="M496,246 L496,245 C496,244.447715 495.552285,244 495,244 L484,244 C483.447715,244 483,244.447715 483,245 L483,246 L496,246 Z M496,247 L483,247 L483,254 C483,254.552285 483.447715,255 484,255 L495,255 C495.552285,255 496,254.552285 496,254 L496,247 Z M485,243 L485,241 L486,241 L486,243 L493,243 L493,241 L494,241 L494,243 L495,243 C496.104569,243 497,243.895431 497,245 L497,254 C497,255.104569 496.104569,256 495,256 L484,256 C482.895431,256 482,255.104569 482,254 L482,245 C482,243.895431 482.895431,243 484,243 L485,243 Z M487,249 L487,250 L486,250 L486,249 L487,249 Z M487,252 L487,253 L486,253 L486,252 L487,252 Z M490,249 L490,250 L489,250 L489,249 L490,249 Z M489,252 L490,252 L490,253 L489,253 L489,252 Z M493,249 L493,250 L492,250 L492,249 L493,249 Z M492,252 L493,252 L493,253 L492,253 L492,252 Z" id="shape"></path>
        </g>
    </g>
</svg>