<?xml version="1.0" encoding="UTF-8"?>
<svg width="20px" height="20px" viewBox="0 0 20 20" version="1.1" xmlns="http://www.w3.org/2000/svg" xmlns:xlink="http://www.w3.org/1999/xlink">
    <!-- Generator: Sketch 52.6 (67491) - http://www.bohemiancoding.com/sketch -->
    <title>icon-message-20@1x</title>
    <desc>Created with Sketch.</desc>
    <g id="Icon" stroke="none" stroke-width="1" fill="none" fill-rule="evenodd">
        <g id="Index" transform="translate(-1040.000000, -280.000000)" fill="#262F36">
            <path d="M1047,290 C1046.44772,290 1046,289.552285 1046,289 C1046,288.447715 1046.44772,288 1047,288 C1047.55228,288 1048,288.447715 1048,289 C1048,289.552285 1047.55228,290 1047,290 Z M1052,290 C1051.44772,290 1051,289.552285 1051,289 C1051,288.447715 1051.44772,288 1052,288 C1052.55228,288 1053,288.447715 1053,289 C1053,289.552285 1052.55228,290 1052,290 Z M1043,296 L1045.66667,294 L1055,294 C1055.55228,294 1056,293.552285 1056,293 L1056,285 C1056,284.447715 1055.55228,284 1055,284 L1044,284 C1043.44772,284 1043,284.447715 1043,285 L1043,296 Z M1044,283 L1055,283 C1056.10457,283 1057,283.895431 1057,285 L1057,293 C1057,294.104569 1056.10457,295 1055,295 L1046,295 L1042,298 L1042,285 C1042,283.895431 1042.89543,283 1044,283 Z" id="shape"></path>
        </g>
    </g>
</svg>