<?xml version="1.0" encoding="UTF-8"?>
<svg width="20px" height="20px" viewBox="0 0 20 20" version="1.1" xmlns="http://www.w3.org/2000/svg" xmlns:xlink="http://www.w3.org/1999/xlink">
    <!-- Generator: Sketch 52.6 (67491) - http://www.bohemiancoding.com/sketch -->
    <title>icon-settings-20@1x</title>
    <desc>Created with Sketch.</desc>
    <g id="Icon" stroke="none" stroke-width="1" fill="none" fill-rule="evenodd">
        <g id="Index" transform="translate(-1040.000000, -240.000000)" fill="#262F36">
            <path d="M1047.07922,244.560018 L1047.52986,242.757464 C1047.64115,242.312297 1048.04113,242 1048.5,242 L1050.5,242 C1050.95887,242 1051.35885,242.312297 1051.47014,242.757464 L1051.92078,244.560018 C1052.14519,244.670195 1052.361,244.795213 1052.56691,244.933793 L1054.35414,244.422539 C1054.79531,244.296337 1055.26576,244.486584 1055.49519,244.883975 L1056.49519,246.616025 C1056.72462,247.013416 1056.65416,247.515961 1056.32428,247.834926 L1054.98758,249.127398 C1054.99582,249.250533 1055,249.374778 1055,249.5 C1055,249.625222 1054.99582,249.749467 1054.98758,249.872602 L1056.32428,251.165074 C1056.65416,251.484039 1056.72462,251.986584 1056.49519,252.383975 L1055.49519,254.116025 C1055.26576,254.513416 1054.79531,254.703663 1054.35414,254.577461 L1052.56691,254.066207 C1052.361,254.204787 1052.14519,254.329805 1051.92078,254.439982 L1051.47014,256.242536 C1051.35885,256.687703 1050.95887,257 1050.5,257 L1048.5,257 C1048.04113,257 1047.64115,256.687703 1047.52986,256.242536 L1047.07922,254.439982 C1046.85481,254.329805 1046.639,254.204787 1046.43309,254.066207 L1044.64586,254.577461 C1044.20469,254.703663 1043.73424,254.513416 1043.50481,254.116025 L1042.50481,252.383975 C1042.27538,251.986584 1042.34584,251.484039 1042.67572,251.165074 L1044.01242,249.872602 C1044.00418,249.749467 1044,249.625222 1044,249.5 C1044,249.374778 1044.00418,249.250533 1044.01242,249.127398 L1042.67572,247.834926 C1042.34584,247.515961 1042.27538,247.013416 1042.50481,246.616025 L1043.50481,244.883975 C1043.73424,244.486584 1044.20469,244.296337 1044.64586,244.422539 L1046.43309,244.933793 C1046.639,244.795213 1046.85481,244.670195 1047.07922,244.560018 Z M1054.62917,253.616025 L1055.62917,251.883975 L1053.93799,250.248757 C1053.97877,250.005242 1054,249.7551 1054,249.5 C1054,249.2449 1053.97877,248.994758 1053.93799,248.751243 L1055.62917,247.116025 L1054.62917,245.383975 L1052.36675,246.031163 C1051.98301,245.713664 1051.5457,245.458621 1051.0704,245.281608 L1050.5,243 L1048.5,243 L1047.9296,245.281608 C1047.4543,245.458621 1047.01699,245.713664 1046.63325,246.031163 L1044.37083,245.383975 L1043.37083,247.116025 L1045.06201,248.751243 C1045.02123,248.994758 1045,249.2449 1045,249.5 C1045,249.7551 1045.02123,250.005242 1045.06201,250.248757 L1043.37083,251.883975 L1044.37083,253.616025 L1046.63325,252.968837 C1047.01699,253.286336 1047.4543,253.541379 1047.9296,253.718392 L1048.5,256 L1050.5,256 L1051.0704,253.718392 C1051.5457,253.541379 1051.98301,253.286336 1052.36675,252.968837 L1054.62917,253.616025 Z M1049.5,252.003283 C1048.11929,252.003283 1047,250.88326 1047,249.501642 C1047,248.120023 1048.11929,247 1049.5,247 C1050.88071,247 1052,248.120023 1052,249.501642 C1052,250.88326 1050.88071,252.003283 1049.5,252.003283 Z M1049.5,251 C1050.32843,251 1051,250.328427 1051,249.5 C1051,248.671573 1050.32843,248 1049.5,248 C1048.67157,248 1048,248.671573 1048,249.5 C1048,250.328427 1048.67157,251 1049.5,251 Z" id="Shape"></path>
        </g>
    </g>
</svg>