<?xml version="1.0" encoding="UTF-8"?>
<svg width="120px" height="120px" viewBox="0 0 120 120" version="1.1" xmlns="http://www.w3.org/2000/svg" xmlns:xlink="http://www.w3.org/1999/xlink">
    <!-- Generator: Sketch 52.6 (67491) - http://www.bohemiancoding.com/sketch -->
    <title>icon-unknown-120</title>
    <desc>Created with Sketch.</desc>
    <g id="Icon" stroke="none" stroke-width="1" fill="none" fill-rule="evenodd">
        <g id="Index" transform="translate(-560.000000, -520.000000)" fill="#262F36">
            <path d="M620,625 C595.147186,625 575,604.852814 575,580 C575,555.147186 595.147186,535 620,535 C644.852814,535 665,555.147186 665,580 C665,604.852814 644.852814,625 620,625 Z M620,623 C643.748244,623 663,603.748244 663,580 C663,556.251756 643.748244,537 620,537 C596.251756,537 577,556.251756 577,580 C577,603.748244 596.251756,623 620,623 Z M618,596 L620,596 L620,602 L618,602 L618,596 Z M611.231566,563.69383 L609.8,562.297184 C613.252889,558.757963 617.209658,557.14032 621.604129,557.498818 C627.691828,557.995449 631.824347,561.899187 632.445883,566.871472 C633.029827,571.543027 631.061068,574.833834 625.070483,578.827557 C623.304317,580.005001 622.079805,581.259071 621.285715,582.612633 C620.201559,584.460626 619.968329,585.776368 620,589 C620.003932,589.400227 620,589.787989 620,590 L618.010729,589.995507 C618.010729,589.79237 618.014595,589.393476 618.010729,589 C617.975714,585.435942 618.240061,583.851634 619.560665,581.600603 C620.514176,579.975301 621.951793,578.502983 623.961083,577.163457 C629.376714,573.553036 630.939075,570.941528 630.461327,567.119542 C629.957992,563.092862 626.591021,559.91229 621.441511,559.492196 C617.66398,559.184027 614.282724,560.566384 611.231566,563.69383 Z" id="shape"></path>
        </g>
    </g>
</svg>