<?xml version="1.0" encoding="UTF-8"?>
<svg width="20px" height="20px" viewBox="0 0 20 20" version="1.1" xmlns="http://www.w3.org/2000/svg" xmlns:xlink="http://www.w3.org/1999/xlink">
    <!-- Generator: Sketch 52.6 (67491) - http://www.bohemiancoding.com/sketch -->
    <title>icon-phone-receiver-20@1x</title>
    <desc>Created with Sketch.</desc>
    <g id="Icon" stroke="none" stroke-width="1" fill="none" fill-rule="evenodd">
        <g id="Index" transform="translate(-800.000000, -320.000000)" fill="#262F36">
            <path d="M814.700914,335.404986 L815.927885,333.564531 C816.059151,333.367631 816.005945,333.101598 815.809045,332.970331 L813.153171,331.199749 C813.025231,331.114456 812.861398,331.104256 812.723862,331.173025 L810.994801,332.037542 C810.610258,332.229814 810.158255,332.232717 809.771275,332.045399 C809.220727,331.778906 808.681926,331.377788 808.152069,330.847931 C807.622213,330.318076 807.221096,329.779276 806.954617,329.22876 C806.767275,328.841766 806.770167,328.389749 806.962447,328.005189 L807.826976,326.276132 C807.895741,326.138601 807.885542,325.974768 807.800249,325.846828 L806.029666,323.190955 C805.898399,322.994055 805.632366,322.940848 805.435467,323.072115 L803.59501,324.29909 C803.044073,324.666382 802.845408,325.381879 803.12811,325.98064 C804.139786,328.123354 805.504897,330.054141 807.225377,331.774621 C808.945854,333.495098 810.876639,334.860207 813.01936,335.871886 C813.618115,336.154594 814.333619,335.955929 814.700914,335.404986 Z M815.532965,335.959686 C814.890671,336.923126 813.639459,337.270535 812.5924,336.776157 C810.344729,335.714926 808.319379,334.282836 806.51827,332.481727 C804.717159,330.680617 803.285067,328.655264 802.223835,326.40759 C801.729469,325.360529 802.076878,324.109328 803.04031,323.46704 L804.880766,322.240065 C805.537195,321.802446 806.424097,321.979826 806.861716,322.636255 L808.632299,325.292128 C808.91665,325.718655 808.950654,326.264843 808.721403,326.723345 L807.856875,328.452402 C807.803346,328.559459 807.802539,328.685293 807.854697,328.793035 C808.067878,329.233444 808.401775,329.683424 808.859176,330.140825 C809.316578,330.598226 809.766558,330.932123 810.206967,331.145303 C810.314698,331.197451 810.440532,331.196643 810.547588,331.143115 L812.276653,330.278595 C812.735156,330.049344 813.281344,330.083348 813.707871,330.367699 L816.363745,332.138281 C817.020174,332.575901 817.197554,333.462802 816.759935,334.119231 L815.532965,335.959686 Z" id="Path"></path>
        </g>
    </g>
</svg>