<?xml version="1.0" encoding="UTF-8"?>
<svg width="20px" height="20px" viewBox="0 0 20 20" version="1.1" xmlns="http://www.w3.org/2000/svg" xmlns:xlink="http://www.w3.org/1999/xlink">
    <!-- Generator: Sketch 52.6 (67491) - http://www.bohemiancoding.com/sketch -->
    <title>icon-coaching-coached-20@1x</title>
    <desc>Created with Sketch.</desc>
    <g id="Icon" stroke="none" stroke-width="1" fill="none" fill-rule="evenodd">
        <g id="Index" transform="translate(-600.000000, -280.000000)" fill="#262F36">
            <path d="M602,283.5 L609.5,281.5 L617,283.5 L617,286.5 C617,289.5 616.333333,291.833333 615,293.5 C613.666667,295.166667 611.833333,296.5 609.5,297.5 C607.166667,296.5 605.333333,295.166667 604,293.5 C602.666667,291.833333 602,289.5 602,286.5 L602,283.5 Z M603,284.268278 L603,286.5 C603,289.289549 603.604298,291.404591 604.780869,292.875305 C605.931837,294.314016 607.500654,295.491572 609.5,296.4064 C611.499346,295.491572 613.068163,294.314016 614.219131,292.875305 C615.395702,291.404591 616,289.289549 616,286.5 L616,284.268278 L609.5,282.534945 L603,284.268278 Z M608.474874,290.089087 L612.363961,286.2 L613.071068,286.907107 L608.474874,291.503301 L606,289.028427 L606.707107,288.32132 L608.474874,290.089087 Z" id="shape"></path>
        </g>
    </g>
</svg>