<?xml version="1.0" encoding="UTF-8"?>
<svg width="24px" height="24px" viewBox="0 0 24 24" version="1.1" xmlns="http://www.w3.org/2000/svg" xmlns:xlink="http://www.w3.org/1999/xlink">
    <!-- Generator: Sketch 52.6 (67491) - http://www.bohemiancoding.com/sketch -->
    <title>icon-cross-24</title>
    <desc>Created with Sketch.</desc>
    <g id="Icon" stroke="none" stroke-width="1" fill="none" fill-rule="evenodd">
        <g id="Index" transform="translate(-240.000000, -440.000000)" fill="#262F36">
            <path d="M250.792893,451.5 L247.257359,447.964466 L247.964466,447.257359 L251.5,450.792893 L255.035534,447.257359 L255.742641,447.964466 L252.207107,451.5 L255.742641,455.035534 L255.035534,455.742641 L251.5,452.207107 L247.964466,455.742641 L247.257359,455.035534 L250.792893,451.5 Z M251.49999,442 C256.746678,442 260.999979,446.253301 260.999979,451.500011 C260.999979,456.746699 256.746678,461 251.49999,461 C246.253302,461 242.000001,456.746699 242.000001,451.500011 C242.000001,446.253301 246.253302,442 251.49999,442 Z M251.5,443.000003 C246.805547,443.000003 243,446.805483 243,451.499915 C243,456.194324 246.805547,459.999959 251.5,459.999959 C256.194453,459.999959 260,456.194324 260,451.499915 C260,446.805483 256.194453,443.000003 251.5,443.000003 Z" id="shape"></path>
        </g>
    </g>
</svg>