<?xml version="1.0" encoding="UTF-8"?>
<svg width="120px" height="120px" viewBox="0 0 120 120" version="1.1" xmlns="http://www.w3.org/2000/svg" xmlns:xlink="http://www.w3.org/1999/xlink">
    <!-- Generator: Sketch 52.6 (67491) - http://www.bohemiancoding.com/sketch -->
    <title>icon-wrench-120</title>
    <desc>Created with Sketch.</desc>
    <g id="Icon" stroke="none" stroke-width="1" fill="none" fill-rule="evenodd">
        <g id="Index" transform="translate(-80.000000, -1000.000000)" fill="#262F36">
            <path d="M140,1105 C115.147186,1105 95,1084.85281 95,1060 C95,1035.14719 115.147186,1015 140,1015 C164.852814,1015 185,1035.14719 185,1060 C185,1084.85281 164.852814,1105 140,1105 Z M140,1103 C163.748244,1103 183,1083.74824 183,1060 C183,1036.25176 163.748244,1017 140,1017 C116.251756,1017 97,1036.25176 97,1060 C97,1083.74824 116.251756,1103 140,1103 Z M121.221828,1072.06066 L123.696701,1069.58578 C125.551692,1067.73079 128.559225,1067.73079 130.414215,1069.58578 C132.269205,1071.44078 132.269205,1074.44831 130.414215,1076.3033 L127.939342,1078.77817 L129.159786,1079.99862 C131.489685,1079.958 133.702347,1079.02557 135.363962,1077.36396 C137.648652,1075.07927 138.524038,1071.76629 137.694748,1068.66869 L137.396202,1067.55354 L147.553544,1057.3962 L148.668688,1057.69475 C151.766287,1058.52404 155.079268,1057.64865 157.363958,1055.36396 C159.025573,1053.70235 159.958004,1051.48969 159.998616,1049.15979 L158.778172,1047.93934 L156.303299,1050.41422 C154.448308,1052.26921 151.440775,1052.26921 149.585785,1050.41422 C147.730795,1048.55922 147.730795,1045.55169 149.585785,1043.6967 L152.060658,1041.22183 L150.840214,1040.00138 C148.510315,1040.042 146.297653,1040.97443 144.636038,1042.63604 C142.351348,1044.92073 141.475962,1048.23371 142.305252,1051.33131 L142.603798,1052.44646 L132.446456,1062.6038 L131.331312,1062.30525 C128.233713,1061.47596 124.920732,1062.35135 122.636042,1064.63604 C120.974427,1066.29765 120.041996,1068.51031 120.001384,1070.84021 L121.221828,1072.06066 Z M143.221825,1041.22183 C145.339681,1039.10397 148.176422,1037.9708 151.112158,1038.00057 C151.471983,1038.00422 151.816039,1038.14878 152.070486,1038.40323 L153.916813,1040.24956 C154.453784,1040.78653 154.453784,1041.65713 153.916813,1042.1941 L150.999998,1045.11091 C149.926057,1046.18486 149.926057,1047.92606 150.999998,1049 C152.07394,1050.07394 153.815143,1050.07394 154.889085,1049 L157.8059,1046.08319 C158.342871,1045.54622 159.213473,1045.54622 159.750443,1046.08319 L161.596771,1047.92951 C161.851218,1048.18396 161.995779,1048.52802 161.999428,1048.88784 C162.0292,1051.82358 160.896028,1054.66032 158.778172,1056.77818 C155.958774,1059.59757 151.898311,1060.62982 148.151463,1059.62671 L139.626711,1068.15146 C140.629817,1071.89831 139.597573,1075.95877 136.778175,1078.77817 C134.660319,1080.89603 131.823578,1082.0292 128.887842,1081.99943 C128.528017,1081.99578 128.183961,1081.85122 127.929514,1081.59677 L126.083187,1079.75044 C125.546216,1079.21347 125.546216,1078.34287 126.083187,1077.8059 L129.000002,1074.88909 C130.073943,1073.81514 130.073943,1072.07394 129.000002,1071 C127.92606,1069.92606 126.184857,1069.92606 125.110915,1071 L122.1941,1073.91681 C121.657129,1074.45378 120.786527,1074.45378 120.249557,1073.91681 L118.403229,1072.07049 C118.148782,1071.81604 118.004221,1071.47198 118.000572,1071.11216 C117.9708,1068.17642 119.103972,1065.33968 121.221828,1063.22182 C124.041226,1060.40243 128.101689,1059.37018 131.848537,1060.37329 L140.373289,1051.84854 C139.370183,1048.10169 140.402427,1044.04123 143.221825,1041.22183 Z" id="shape"></path>
        </g>
    </g>
</svg>