<?xml version="1.0" encoding="UTF-8"?>
<svg width="20px" height="20px" viewBox="0 0 20 20" version="1.1" xmlns="http://www.w3.org/2000/svg" xmlns:xlink="http://www.w3.org/1999/xlink">
    <!-- Generator: Sketch 52.6 (67491) - http://www.bohemiancoding.com/sketch -->
    <title>icon-dashcam-recall-20@1x</title>
    <desc>Created with Sketch.</desc>
    <g id="Icon" stroke="none" stroke-width="1" fill="none" fill-rule="evenodd">
        <g id="Index" transform="translate(-680.000000, -320.000000)" fill="#262F36">
            <path d="M688,337 L684,337 C682.895431,337 682,336.104569 682,335 L682,324 C682,322.895431 682.895431,322 684,322 L695,322 C696.104569,322 697,322.895431 697,324 L697,333.007107 L696,333.014214 L696,324 C696,323.447715 695.552285,323 695,323 L684,323 C683.447715,323 683,323.447715 683,324 L683,335 C683,335.552285 683.447715,336 684,336 L688,336 L688,337 Z M689.5,333 C687.567003,333 686,331.432997 686,329.5 C686,327.567003 687.567003,326 689.5,326 C691.432997,326 693,327.567003 693,329.5 C693,331.432997 691.432997,333 689.5,333 Z M689.5,332 C690.880712,332 692,330.880712 692,329.5 C692,328.119288 690.880712,327 689.5,327 C688.119288,327 687,328.119288 687,329.5 C687,330.880712 688.119288,332 689.5,332 Z M689.5,331 C688.671573,331 688,330.328427 688,329.5 C688,328.671573 688.671573,328 689.5,328 C690.328427,328 691,328.671573 691,329.5 C691,330.328427 690.328427,331 689.5,331 Z M694.003398,337.402124 L694.003398,339.902124 L688.56,336.5 L694.003398,333.097876 L694.003398,335.597876 L698.003398,333.097876 L698.003398,339.902124 L694.003398,337.402124 Z M693.003398,334.902124 L690.446796,336.5 L693.003398,338.097876 L693.003398,334.902124 Z M694.446796,336.5 L697.003398,338.097876 L697.003398,334.902124 L694.446796,336.5 Z" id="shape"></path>
        </g>
    </g>
</svg>