<?xml version="1.0" encoding="UTF-8"?>
<svg width="120px" height="120px" viewBox="0 0 120 120" version="1.1" xmlns="http://www.w3.org/2000/svg" xmlns:xlink="http://www.w3.org/1999/xlink">
    <!-- Generator: Sketch 52.6 (67491) - http://www.bohemiancoding.com/sketch -->
    <title>icon-developers-120</title>
    <desc>Created with Sketch.</desc>
    <g id="Icon" stroke="none" stroke-width="1" fill="none" fill-rule="evenodd">
        <g id="Index" transform="translate(-440.000000, -880.000000)" fill="#262F36">
            <path d="M531.104526,910.309687 L518.384776,923.029437 L522.627417,927.272078 C524.970563,929.615224 524.970563,933.414214 522.627417,935.757359 L515.556349,942.828427 C514.775301,943.609476 513.508971,943.609476 512.727922,942.828427 L497.171573,927.272078 C496.390524,926.491029 496.390524,925.224699 497.171573,924.443651 L504.242641,917.372583 C506.585786,915.029437 510.384776,915.029437 512.727922,917.372583 L516.970563,921.615224 L529.690313,908.895474 C521.971804,901.525765 511.514427,897 500,897 C476.251756,897 457,916.251756 457,940 C457,951.514427 461.525765,961.971804 468.895474,969.690313 L481.615224,956.970563 L477.372583,952.727922 C475.029437,950.384776 475.029437,946.585786 477.372583,944.242641 L484.443651,937.171573 C485.224699,936.390524 486.491029,936.390524 487.272078,937.171573 L490.100505,940 L495.757359,934.343146 L497.171573,935.757359 L491.514719,941.414214 L498.585786,948.485281 L504.242641,942.828427 L505.656854,944.242641 L500,949.899495 L502.828427,952.727922 C503.609476,953.508971 503.609476,954.775301 502.828427,955.556349 L495.757359,962.627417 C493.414214,964.970563 489.615224,964.970563 487.272078,962.627417 L483.029437,958.384776 L470.309687,971.104526 C478.028196,978.474235 488.485573,983 500,983 C523.748244,983 543,963.748244 543,940 C543,928.485573 538.474235,918.028196 531.104526,910.309687 Z M500,985 C475.147186,985 455,964.852814 455,940 C455,915.147186 475.147186,895 500,895 C524.852814,895 545,915.147186 545,940 C545,964.852814 524.852814,985 500,985 Z M478.786797,945.656854 C477.224699,947.218951 477.224699,949.751611 478.786797,951.313708 L488.686292,961.213203 C490.248389,962.775301 492.781049,962.775301 494.343146,961.213203 L501.414214,954.142136 L485.857864,938.585786 L478.786797,945.656854 Z M505.656854,918.786797 L498.585786,925.857864 L514.142136,941.414214 L521.213203,934.343146 C522.775301,932.781049 522.775301,930.248389 521.213203,928.686292 L511.313708,918.786797 C509.751611,917.224699 507.218951,917.224699 505.656854,918.786797 Z" id="shape"></path>
        </g>
    </g>
</svg>