<?xml version="1.0" encoding="UTF-8"?>
<svg width="24px" height="24px" viewBox="0 0 24 24" version="1.1" xmlns="http://www.w3.org/2000/svg" xmlns:xlink="http://www.w3.org/1999/xlink">
    <!-- Generator: Sketch 52.6 (67491) - http://www.bohemiancoding.com/sketch -->
    <title>icon-clock-24</title>
    <desc>Created with Sketch.</desc>
    <g id="Icon" stroke="none" stroke-width="1" fill="none" fill-rule="evenodd">
        <g id="Index" transform="translate(-80.000000, -440.000000)" fill="#262F36">
            <path d="M91.4999902,442 C96.7466783,442 100.999979,446.253301 100.999979,451.500011 C100.999979,456.746699 96.7466783,461 91.4999902,461 C86.253302,461 82.0000012,456.746699 82.0000012,451.500011 C82.0000012,446.253301 86.253302,442 91.4999902,442 Z M91.5,443.000003 C86.8055466,443.000003 83,446.805483 83,451.499915 C83,456.194324 86.8055466,459.999959 91.5,459.999959 C96.1944534,459.999959 100,456.194324 100,451.499915 C100,446.805483 96.1944534,443.000003 91.5,443.000003 Z M92.000036,449.562958 C92.7028224,449.743832 93.2561759,450.297167 93.437076,450.999994 L97.000086,450.999994 L97.000086,452 L93.4370907,451.999916 C93.2150848,452.862589 92.4319954,453.499942 91.500174,453.499942 C90.395488,453.499942 89.5,452.604608 89.5,451.499966 C89.5,450.568097 90.1374009,449.78504 91.00007,449.562993 L91.00007,445 L92,445 L92.000036,449.562958 Z M91.500174,450.500022 C90.947952,450.500022 90.500208,450.9477 90.500208,451.499966 C90.500208,452.05221 90.947952,452.50002 91.500174,452.50002 C92.052396,452.50002 92.50014,452.05221 92.50014,451.499966 C92.50014,450.9477 92.052396,450.500022 91.500174,450.500022 Z" id="shape"></path>
        </g>
    </g>
</svg>