<?xml version="1.0" encoding="UTF-8"?>
<svg width="20px" height="20px" viewBox="0 0 20 20" version="1.1" xmlns="http://www.w3.org/2000/svg" xmlns:xlink="http://www.w3.org/1999/xlink">
    <!-- Generator: Sketch 54.1 (76490) - https://sketchapp.com -->
    <title>icon-20-o-star</title>
    <desc>Created with Sketch.</desc>
    <g id="Icon" stroke="none" stroke-width="1" fill="none" fill-rule="evenodd">
        <g id="Index" transform="translate(-1000.000000, -414.000000)" fill="#262F36">
            <g id="icon/20/star" transform="translate(1000.000000, 414.000000)">
                <path d="M9.5,14.0806573 L6.20367914,16.1101544 C5.44331342,16.5783006 4.49724948,15.8909449 4.70751702,15.023129 L5.61906428,11.2609925 L2.67027869,8.7531541 C1.99007929,8.17466846 2.35144356,7.0625036 3.24176177,6.99431006 L7.10144982,6.69867889 L8.57532096,3.11925247 C8.91530033,2.29358251 10.0846997,2.29358251 10.424679,3.11925247 L11.8985502,6.69867889 L15.7582382,6.99431006 C16.6485564,7.0625036 17.0099207,8.17466846 16.3297213,8.7531541 L13.3809357,11.2609925 L14.292483,15.023129 C14.5027505,15.8909449 13.5566866,16.5783006 12.7963209,16.1101544 L9.5,14.0806573 Z M9.5,12.9063198 L13.3206041,15.2586105 L12.2640743,10.8981022 L15.6818674,7.99138954 L11.2082919,7.64873793 L9.5,3.5 L7.79170811,7.64873793 L3.31813264,7.99138954 L6.73592566,10.8981022 L5.67939586,15.2586105 L9.5,12.9063198 Z" id="Star"></path>
            </g>
        </g>
    </g>
</svg>