<?xml version="1.0" encoding="UTF-8"?>
<svg width="20px" height="20px" viewBox="0 0 20 20" version="1.1" xmlns="http://www.w3.org/2000/svg" xmlns:xlink="http://www.w3.org/1999/xlink">
    <!-- Generator: Sketch 52.6 (67491) - http://www.bohemiancoding.com/sketch -->
    <title>icon-dashcam-disconnect-20@1x</title>
    <desc>Created with Sketch.</desc>
    <g id="Icon" stroke="none" stroke-width="1" fill="none" fill-rule="evenodd">
        <g id="Index" transform="translate(-120.000000, -280.000000)" fill="#262F36">
            <path d="M122.27691,296.015984 C122.100965,295.718227 122,295.370904 122,295 L122,284 C122,282.895431 122.895431,282 124,282 L135,282 C135.370904,282 135.718227,282.100965 136.015984,282.27691 L137.985281,280.307612 L138.692388,281.014719 L121.014719,298.692388 L120.307612,297.985281 L122.27691,296.015984 Z M135.259022,283.033872 C135.176408,283.011779 135.08958,283 135,283 L124,283 C123.447715,283 123,283.447715 123,284 L123,295 C123,295.08958 123.011779,295.176408 123.033872,295.259022 L126.696808,291.596086 C126.259202,291.011795 126,290.286168 126,289.5 C126,287.567003 127.567003,286 129.5,286 C130.286168,286 131.011795,286.259202 131.596086,286.696808 L135.259022,283.033872 Z M130.878695,287.414198 C130.483478,287.152438 130.009541,287 129.5,287 C128.119288,287 127,288.119288 127,289.5 C127,290.009541 127.152438,290.483478 127.414198,290.878695 L128.146185,290.146708 C128.052476,289.95089 128,289.731573 128,289.5 C128,288.671573 128.671573,288 129.5,288 C129.731573,288 129.95089,288.052476 130.146708,288.146185 L130.878695,287.414198 Z M125.12132,296 L135,296 C135.552285,296 136,295.552285 136,295 L136,285.12132 L137,284.12132 L137,295 C137,296.104569 136.104569,297 135,297 L124.12132,297 L125.12132,296 Z M128.323846,292.797475 L129.146167,291.975154 C129.261756,291.99153 129.379889,292 129.5,292 C130.880712,292 132,290.880712 132,289.5 C132,289.379889 131.99153,289.261756 131.975154,289.146167 L132.797475,288.323846 C132.928598,288.691432 133,289.087378 133,289.5 C133,291.432997 131.432997,293 129.5,293 C129.087378,293 128.691432,292.928598 128.323846,292.797475 Z" id="shape"></path>
        </g>
    </g>
</svg>