<?xml version="1.0" encoding="UTF-8"?>
<svg width="20px" height="20px" viewBox="0 0 20 20" version="1.1" xmlns="http://www.w3.org/2000/svg" xmlns:xlink="http://www.w3.org/1999/xlink">
    <!-- Generator: Sketch 52.6 (67491) - http://www.bohemiancoding.com/sketch -->
    <title>icon-edit-20@1x</title>
    <desc>Created with Sketch.</desc>
    <g id="Icon" stroke="none" stroke-width="1" fill="none" fill-rule="evenodd">
        <g id="Index" transform="translate(-1000.000000, -280.000000)" fill="#262F36">
            <path d="M1004.06434,293.271447 L1003.52966,295.217799 L1005.47573,294.688483 L1005.47855,294.68566 L1004.06434,293.271447 Z M1006.18566,293.978553 L1015.89429,284.269922 L1014.48008,282.855709 L1004.77145,292.56434 L1006.18566,293.978553 Z M1015.18718,282.148602 L1016.6014,283.562816 C1016.99192,283.95334 1016.99192,284.586505 1016.6014,284.977029 L1006.18284,295.395589 C1006.05962,295.518809 1005.90634,295.607691 1005.73819,295.653426 L1002.10346,296.642043 L1003.09642,293.011009 C1003.14226,292.84337 1003.231,292.690572 1003.35389,292.567681 L1013.77297,282.148602 C1014.1635,281.758078 1014.79666,281.758078 1015.18718,282.148602 Z" id="shape"></path>
        </g>
    </g>
</svg>