<?xml version="1.0" encoding="UTF-8"?>
<svg width="120px" height="120px" viewBox="0 0 120 120" version="1.1" xmlns="http://www.w3.org/2000/svg" xmlns:xlink="http://www.w3.org/1999/xlink">
    <!-- Generator: Sketch 52.6 (67491) - http://www.bohemiancoding.com/sketch -->
    <title>icon-dashcam-recall-120</title>
    <desc>Created with Sketch.</desc>
    <g id="Icon" stroke="none" stroke-width="1" fill="none" fill-rule="evenodd">
        <g id="Index" transform="translate(-200.000000, -640.000000)" fill="#262F36">
            <path d="M264.706862,720 L246,720 C242.686292,720 240,717.313708 240,714 L240,686 C240,682.686292 242.686292,680 246,680 L274,680 C277.313708,680 280,682.686292 280,686 L280,713.746687 L283.996152,711.162431 L283.996152,726.837569 L275.354674,721.249245 L275.354674,726.829407 L264.706862,720 Z M277.974047,715.056842 C277.991191,714.737038 278,714.385734 278,714 L278,686 C278,683.790861 276.209139,682 274,682 L246,682 C243.790861,682 242,683.790861 242,686 L242,714 C242,716.209139 243.790861,718 246,718 L264.706862,718 L275.354674,711.170593 L275.354674,716.750755 L277.974047,715.056842 Z M260,745 C235.147186,745 215,724.852814 215,700 C215,675.147186 235.147186,655 260,655 C284.852814,655 305,675.147186 305,700 C305,724.852814 284.852814,745 260,745 Z M260,743 C283.748244,743 303,723.748244 303,700 C303,676.251756 283.748244,657 260,657 C236.251756,657 217,676.251756 217,700 C217,723.748244 236.251756,743 260,743 Z M260,707 C263.865993,707 267,703.865993 267,700 C267,696.134007 263.865993,693 260,693 C256.134007,693 253,696.134007 253,700 C253,703.865993 256.134007,707 260,707 Z M260,709 C255.029437,709 251,704.970563 251,700 C251,695.029437 255.029437,691 260,691 C264.970563,691 269,695.029437 269,700 C269,704.970563 264.970563,709 260,709 Z M260,704 C257.790861,704 256,702.209139 256,700 C256,697.790861 257.790861,696 260,696 C262.209139,696 264,697.790861 264,700 C264,702.209139 262.209139,704 260,704 Z M260,702 C261.104569,702 262,701.104569 262,700 C262,698.895431 261.104569,698 260,698 C258.895431,698 258,698.895431 258,700 C258,701.104569 258.895431,702 260,702 Z M281.996152,723.162431 L281.996152,714.837569 L275.559598,719 L281.996152,723.162431 Z M266.85225,719 L273.354674,723.170593 L273.354674,714.829407 L266.85225,719 Z" id="shape"></path>
        </g>
    </g>
</svg>