<?xml version="1.0" encoding="UTF-8"?>
<svg width="20px" height="20px" viewBox="0 0 20 20" version="1.1" xmlns="http://www.w3.org/2000/svg" xmlns:xlink="http://www.w3.org/1999/xlink">
    <!-- Generator: Sketch 52.6 (67491) - http://www.bohemiancoding.com/sketch -->
    <title>icon-bulb-20@1x</title>
    <desc>Created with Sketch.</desc>
    <g id="Icon" stroke="none" stroke-width="1" fill="none" fill-rule="evenodd">
        <g id="Index" transform="translate(-440.000000, -360.000000)" fill="#262F36">
            <path d="M447.384893,373.578876 L448,373.835387 L448,376 C448,376.552285 448.447715,377 449,377 L450,377 C450.552285,377 451,376.552285 451,376 L451,373.835387 L451.615107,373.578876 C453.648036,372.731104 455,370.740577 455,368.5 C455,365.462434 452.537566,363 449.5,363 C446.462434,363 444,365.462434 444,368.5 C444,370.740577 445.351964,372.731104 447.384893,373.578876 Z M447,374.501837 C444.651048,373.522277 443,371.20395 443,368.5 C443,364.910149 445.910149,362 449.5,362 C453.089851,362 456,364.910149 456,368.5 C456,371.20395 454.348952,373.522277 452,374.501837 L452,376 C452,377.104569 451.104569,378 450,378 L449,378 C447.895431,378 447,377.104569 447,376 L447,374.501837 Z M449,360 L450,360 L450,361 L449,361 L449,360 Z M455.156854,362.136039 L455.863961,362.843146 L455.156854,363.550253 L454.449747,362.843146 L455.156854,362.136039 Z M441,369 L441,368 L442,368 L442,369 L441,369 Z M457,369 L457,368 L458,368 L458,369 L457,369 Z M443.136039,362.843146 L443.843146,362.136039 L444.550253,362.843146 L443.843146,363.550253 L443.136039,362.843146 Z" id="shape"></path>
        </g>
    </g>
</svg>