<?xml version="1.0" encoding="UTF-8"?>
<svg width="120px" height="120px" viewBox="0 0 120 120" version="1.1" xmlns="http://www.w3.org/2000/svg" xmlns:xlink="http://www.w3.org/1999/xlink">
    <!-- Generator: Sketch 52.6 (67491) - http://www.bohemiancoding.com/sketch -->
    <title>icon-signature-120</title>
    <desc>Created with Sketch.</desc>
    <g id="Icon" stroke="none" stroke-width="1" fill="none" fill-rule="evenodd">
        <g id="Index" transform="translate(-920.000000, -760.000000)" fill="#262F36">
            <path d="M980,865 C955.147186,865 935,844.852814 935,820 C935,795.147186 955.147186,775 980,775 C1004.85281,775 1025,795.147186 1025,820 C1025,844.852814 1004.85281,865 980,865 Z M980,863 C1003.74824,863 1023,843.748244 1023,820 C1023,796.251756 1003.74824,777 980,777 C956.251756,777 937,796.251756 937,820 C937,843.748244 956.251756,863 980,863 Z M999.244436,827.177248 L981.244436,796.000334 L977.780334,798.000334 L995.780334,829.177248 L999.244436,827.177248 Z M997.043175,830.757548 L999.99682,832.480417 L999.981595,829.06105 L997.043175,830.757548 Z M976.780334,796.268283 L980.244436,794.268283 C981.201021,793.715998 982.424202,794.043749 982.976486,795.000334 L1001.71092,827.449328 C1001.88495,827.750752 1001.9773,828.092372 1001.97885,828.440423 L1002.00459,834.221494 C1002.00705,834.773774 1001.56133,835.223478 1001.00906,835.225937 C1000.8305,835.226732 1000.65499,835.179704 1000.50075,835.089738 L995.507067,832.176909 C995.206422,832.001542 994.956746,831.750752 994.782719,831.449328 L976.048283,799.000334 C975.495998,798.043749 975.823749,796.820568 976.780334,796.268283 Z M958.908438,840.41802 L957.091562,839.58198 C959.210163,834.977848 961.93199,832.248914 965.28307,831.50423 C967.952784,830.91096 969.255677,832.294362 971.027314,836.012251 C971.072424,836.106918 971.26889,836.520782 971.321339,836.630782 C972.498516,839.099636 973.255854,840.152945 974.351123,840.563671 C975.759765,841.091911 976.759893,840.530151 978.828057,838.365965 C978.949584,838.238651 978.949584,838.238651 979.072206,838.109983 C980.88686,836.206501 981.818382,835.440447 983.225279,835.038476 C985.385262,834.421338 986.503014,835.315685 988.232637,837.885411 L988.271714,837.943469 C989.333155,839.520333 989.834275,840 990.5,840 C992.39762,840 996.178505,839.342455 1001.77096,838.026583 L1002.22904,839.973417 C996.488161,841.324212 992.60238,842 990.5,842 C988.886457,842 988.056917,841.205973 986.612583,839.060287 L986.573462,839.002163 C985.305176,837.117852 984.758503,836.680443 983.774721,836.961524 C982.840112,837.228555 982.079069,837.854413 980.519794,839.490017 C980.397355,839.618492 980.397355,839.618492 980.273984,839.747738 C977.684767,842.457168 976.091259,843.352223 973.648877,842.436329 C971.882407,841.773903 970.919109,840.434143 969.516053,837.491563 C969.462654,837.37957 969.26605,836.965416 969.221821,836.872599 C967.836553,833.965527 967.073361,833.155175 965.71693,833.456604 C963.06801,834.045253 960.789837,836.329375 958.908438,840.41802 Z" id="shape"></path>
        </g>
    </g>
</svg>
