<?xml version="1.0" encoding="UTF-8"?>
<svg width="120px" height="120px" viewBox="0 0 120 120" version="1.1" xmlns="http://www.w3.org/2000/svg" xmlns:xlink="http://www.w3.org/1999/xlink">
    <!-- Generator: Sketch 52.6 (67491) - http://www.bohemiancoding.com/sketch -->
    <title>icon-search-120</title>
    <desc>Created with Sketch.</desc>
    <g id="Icon" stroke="none" stroke-width="1" fill="none" fill-rule="evenodd">
        <g id="Index" transform="translate(-560.000000, -760.000000)" fill="#262F36">
            <path d="M620,865 C595.147186,865 575,844.852814 575,820 C575,795.147186 595.147186,775 620,775 C644.852814,775 665,795.147186 665,820 C665,844.852814 644.852814,865 620,865 Z M620,863 C643.748244,863 663,843.748244 663,820 C663,796.251756 643.748244,777 620,777 C596.251756,777 577,796.251756 577,820 C577,843.748244 596.251756,863 620,863 Z M626.791391,825.373171 L628.230356,826.812136 C629.013617,826.028875 630.283535,826.028875 631.066796,826.812136 L642.412554,838.157895 C643.195815,838.941156 643.195815,840.211073 642.412554,840.994334 L640.994334,842.412554 C640.211073,843.195815 638.941156,843.195815 638.157895,842.412554 L626.812136,831.066796 C626.028875,830.283535 626.028875,829.013617 626.812136,828.230356 L625.373171,826.791391 C622.361911,829.469456 618.395021,831.096316 614.048158,831.096316 C604.63272,831.096316 597,823.463596 597,814.048158 C597,804.63272 604.63272,797 614.048158,797 C623.463596,797 631.096316,804.63272 631.096316,814.048158 C631.096316,818.395021 629.469456,822.361911 626.791391,825.373171 Z M614,829 C622.284271,829 629,822.284271 629,814 C629,805.715729 622.284271,799 614,799 C605.715729,799 599,805.715729 599,814 C599,822.284271 605.715729,829 614,829 Z M628,829.444444 L639.555556,841 L641,839.555556 L629.444444,828 L628,829.444444 Z" id="shape"></path>
        </g>
    </g>
</svg>