<?xml version="1.0" encoding="UTF-8"?>
<svg width="20px" height="20px" viewBox="0 0 20 20" version="1.1" xmlns="http://www.w3.org/2000/svg" xmlns:xlink="http://www.w3.org/1999/xlink">
    <!-- Generator: Sketch 52.6 (67491) - http://www.bohemiancoding.com/sketch -->
    <title>icon-info-20@2x</title>
    <desc>Created with Sketch.</desc>
    <g id="Icon" stroke="none" stroke-width="1" fill="none" fill-rule="evenodd">
        <g id="Index" transform="translate(-1000.000000, -240.000000)" fill="#262F36">
            <path d="M1009.5,257 C1005.35786,257 1002,253.642136 1002,249.5 C1002,245.357864 1005.35786,242 1009.5,242 C1013.64214,242 1017,245.357864 1017,249.5 C1017,253.642136 1013.64214,257 1009.5,257 Z M1009.5,256 C1013.08985,256 1016,253.089851 1016,249.5 C1016,245.910149 1013.08985,243 1009.5,243 C1005.91015,243 1003,245.910149 1003,249.5 C1003,253.089851 1005.91015,256 1009.5,256 Z M1008.90371,251.073242 L1008.90371,250.760742 C1008.90371,250.402667 1008.96881,250.104819 1009.09902,249.867188 C1009.22923,249.629556 1009.45709,249.38379 1009.78262,249.129883 C1010.16999,248.823892 1010.41982,248.586264 1010.53213,248.416992 C1010.64443,248.247721 1010.70059,248.0459 1010.70059,247.811523 C1010.70059,247.538085 1010.60944,247.328126 1010.42715,247.181641 C1010.24486,247.035156 1009.98281,246.961914 1009.64102,246.961914 C1009.33177,246.961914 1009.04531,247.005859 1008.78164,247.09375 C1008.51797,247.181641 1008.26081,247.287434 1008.01016,247.411133 L1007.6,246.551758 C1008.26081,246.183917 1008.96881,246 1009.72402,246 C1010.36205,246 1010.86823,246.156248 1011.24258,246.46875 C1011.61693,246.781252 1011.8041,247.212562 1011.8041,247.762695 C1011.8041,248.006837 1011.76829,248.22412 1011.69668,248.414551 C1011.62506,248.604981 1011.51683,248.786457 1011.37197,248.958984 C1011.22712,249.131511 1010.97728,249.356118 1010.62246,249.632812 C1010.31973,249.870444 1010.11709,250.067382 1010.01455,250.223633 C1009.91201,250.379884 1009.86074,250.589842 1009.86074,250.853516 L1009.86074,251.073242 L1008.90371,251.073242 Z M1008.70352,252.630859 C1008.70352,252.13932 1008.94277,251.893555 1009.42129,251.893555 C1009.65567,251.893555 1009.8347,251.957844 1009.9584,252.086426 C1010.0821,252.215007 1010.14395,252.396483 1010.14395,252.630859 C1010.14395,252.86198 1010.08128,253.045084 1009.95596,253.180176 C1009.83063,253.315268 1009.65241,253.382812 1009.42129,253.382812 C1009.19017,253.382812 1009.01276,253.316895 1008.88906,253.185059 C1008.76536,253.053222 1008.70352,252.868491 1008.70352,252.630859 Z" id="shape"></path>
        </g>
    </g>
</svg>