<?xml version="1.0" encoding="UTF-8"?>
<svg width="20px" height="20px" viewBox="0 0 20 20" version="1.1" xmlns="http://www.w3.org/2000/svg" xmlns:xlink="http://www.w3.org/1999/xlink">
    <!-- Generator: Sketch 52.6 (67491) - http://www.bohemiancoding.com/sketch -->
    <title>icon-unlock-20@1x</title>
    <desc>Created with Sketch.</desc>
    <g id="Icon" stroke="none" stroke-width="1" fill="none" fill-rule="evenodd">
        <g id="Index" transform="translate(-560.000000, -320.000000)" fill="#262F36">
            <path d="M573,328 L573,324.5 C573,322.567003 571.432997,321 569.5,321 C567.567003,321 566,322.567003 566,324.5 L566,326 L565,326 L565,324.5 C565,322.014719 567.014719,320 569.5,320 C571.985281,320 574,322.014719 574,324.5 L574,328 C575.104569,328 576,328.895431 576,330 L576,336 C576,337.104569 575.104569,338 574,338 L565,338 C563.895431,338 563,337.104569 563,336 L563,330 C563,328.895431 563.895431,328 565,328 L573,328 Z M565,329 C564.447715,329 564,329.447715 564,330 L564,336 C564,336.552285 564.447715,337 565,337 L574,337 C574.552285,337 575,336.552285 575,336 L575,330 C575,329.447715 574.552285,329 574,329 L565,329 Z" id="shape"></path>
        </g>
    </g>
</svg>