<?xml version="1.0" encoding="UTF-8"?>
<svg width="20px" height="20px" viewBox="0 0 20 20" version="1.1" xmlns="http://www.w3.org/2000/svg" xmlns:xlink="http://www.w3.org/1999/xlink">
    <!-- Generator: Sketch 52.6 (67491) - http://www.bohemiancoding.com/sketch -->
    <title>icon-apps-filled-20</title>
    <desc>Created with Sketch.</desc>
    <g id="Icon" stroke="none" stroke-width="1" fill="none" fill-rule="evenodd">
        <g id="Index" transform="translate(-800.000000, -1240.000000)" fill="#262F36">
            <path d="M815.333333,1248.5 L815.570845,1248.64251 C816.044425,1248.92666 816.19799,1249.54092 815.913842,1250.0145 C815.829393,1250.15525 815.711595,1250.27304 815.570845,1250.35749 L810.014496,1253.6913 C809.697813,1253.88131 809.302187,1253.88131 808.985504,1253.6913 L803.429155,1250.35749 C802.955575,1250.07334 802.80201,1249.45908 803.086158,1248.9855 C803.170607,1248.84475 803.288405,1248.72696 803.429155,1248.64251 L803.666667,1248.5 L808.985504,1251.6913 C809.302187,1251.88131 809.697813,1251.88131 810.014496,1251.6913 L815.333333,1248.5 Z M815.333333,1251.5 L815.570845,1251.64251 C816.044425,1251.92666 816.19799,1252.54092 815.913842,1253.0145 C815.829393,1253.15525 815.711595,1253.27304 815.570845,1253.35749 L810.014496,1256.6913 C809.697813,1256.88131 809.302187,1256.88131 808.985504,1256.6913 L803.429155,1253.35749 C802.955575,1253.07334 802.80201,1252.45908 803.086158,1251.9855 C803.170607,1251.84475 803.288405,1251.72696 803.429155,1251.64251 L803.666667,1251.5 L808.985504,1254.6913 C809.302187,1254.88131 809.697813,1254.88131 810.014496,1254.6913 L815.333333,1251.5 Z M808.985504,1242.3087 C809.302187,1242.11869 809.697813,1242.11869 810.014496,1242.3087 L815.570845,1245.64251 C816.044425,1245.92666 816.19799,1246.54092 815.913842,1247.0145 C815.829393,1247.15525 815.711595,1247.27304 815.570845,1247.35749 L810.014496,1250.6913 C809.697813,1250.88131 809.302187,1250.88131 808.985504,1250.6913 L803.429155,1247.35749 C802.955575,1247.07334 802.80201,1246.45908 803.086158,1245.9855 C803.170607,1245.84475 803.288405,1245.72696 803.429155,1245.64251 L808.985504,1242.3087 Z" id="shape"></path>
        </g>
    </g>
</svg>