<?xml version="1.0" encoding="UTF-8"?>
<svg width="20px" height="20px" viewBox="0 0 20 20" version="1.1" xmlns="http://www.w3.org/2000/svg" xmlns:xlink="http://www.w3.org/1999/xlink">
    <!-- Generator: Sketch 54.1 (76490) - https://sketchapp.com -->
    <title>icon-20-o-wifi</title>
    <desc>Created with Sketch.</desc>
    <g id="Icon" stroke="none" stroke-width="1" fill="none" fill-rule="evenodd">
        <g id="Index" transform="translate(-1080.000000, -360.000000)" fill="#262F36" fill-rule="nonzero">
            <g id="icon/20/wifi" transform="translate(1080.000000, 360.000000)">
                <path d="M9.5,14.5 C10.0522847,14.5 10.5,14.0522847 10.5,13.5 C10.5,12.9477153 10.0522847,12.5 9.5,12.5 C8.94771525,12.5 8.5,12.9477153 8.5,13.5 C8.5,14.0522847 8.94771525,14.5 9.5,14.5 Z M6.3763082,11.5012559 C7.10934392,10.5860736 8.23622954,10 9.5,10 C10.7637705,10 11.8906561,10.5860736 12.6236918,11.5012559 L11.8983808,12.1975544 C11.3509452,11.4702775 10.4803922,11 9.5,11 C8.51960778,11 7.64905476,11.4702775 7.10161918,12.1975544 L6.3763082,11.5012559 L6.3763082,11.5012559 Z M13.771366,10.3994886 C12.8934532,8.9605887 11.3089054,8 9.5,8 C7.69109464,8 6.10654679,8.9605887 5.22863395,10.3994886 L4.49278837,9.69307684 C5.56668846,8.07028793 7.40835466,7 9.5,7 C11.5916453,7 13.4333115,8.07028793 14.5072116,9.69307684 L13.771366,10.3994886 L13.771366,10.3994886 Z M15.6291618,8.61600468 C14.4362006,6.4598931 12.1385884,5 9.5,5 C6.86141156,5 4.56379942,6.4598931 3.37083821,8.61600468 L2.62759052,7.9024869 C4.02416982,5.5651596 6.5793036,4 9.5,4 C12.4206964,4 14.9758302,5.5651596 16.3724095,7.9024869 L15.6291618,8.61600468 L15.6291618,8.61600468 Z" id="Shape"></path>
            </g>
        </g>
    </g>
</svg>