<?xml version="1.0" encoding="UTF-8"?>
<svg width="20px" height="20px" viewBox="0 0 20 20" version="1.1" xmlns="http://www.w3.org/2000/svg" xmlns:xlink="http://www.w3.org/1999/xlink">
    <!-- Generator: Sketch 54.1 (76490) - https://sketchapp.com -->
    <title>icon-20-o-battery</title>
    <desc>Created with Sketch.</desc>
    <g id="Icon" stroke="none" stroke-width="1" fill="none" fill-rule="evenodd">
        <g id="Index" transform="translate(-880.000000, -414.000000)" fill="#262F36">
            <g id="icon/20/battery" transform="translate(880.000000, 414.000000)">
                <path d="M13,9 L14,9 L14,10 L13,10 L13,11 L12,11 L12,10 L11,10 L11,9 L12,9 L12,8 L13,8 L13,9 Z M17,8 C17.5522847,8 18,8.44771525 18,9 L18,10 C18,10.5522847 17.5522847,11 17,11 L17,12 C17,13.1045695 16.1045695,14 15,14 L4,14 C2.8954305,14 2,13.1045695 2,12 L2,7 C2,5.8954305 2.8954305,5 4,5 L15,5 C16.1045695,5 17,5.8954305 17,7 L17,8 Z M16,12 L16,7 C16,6.44771525 15.5522847,6 15,6 L4,6 C3.44771525,6 3,6.44771525 3,7 L3,12 C3,12.5522847 3.44771525,13 4,13 L15,13 C15.5522847,13 16,12.5522847 16,12 Z M5,10 L5,9 L8,9 L8,10 L5,10 Z" id="Shape"></path>
            </g>
        </g>
    </g>
</svg>