<?xml version="1.0" encoding="UTF-8"?>
<svg width="120px" height="120px" viewBox="0 0 120 120" version="1.1" xmlns="http://www.w3.org/2000/svg" xmlns:xlink="http://www.w3.org/1999/xlink">
    <!-- Generator: Sketch 52.6 (67491) - http://www.bohemiancoding.com/sketch -->
    <title>icon-stopwatch-120</title>
    <desc>Created with Sketch.</desc>
    <g id="Icon" stroke="none" stroke-width="1" fill="none" fill-rule="evenodd">
        <g id="Index" transform="translate(-320.000000, -760.000000)" fill="#262F36">
            <path d="M407.294737,784.219982 L408.991378,782.523341 C409.772427,781.742292 411.038757,781.742292 411.819805,782.523341 L417.476659,788.180195 C418.257708,788.961243 418.257708,790.227573 417.476659,791.008622 L415.780018,792.705263 C421.564185,800.276057 425,809.73679 425,820 C425,844.852814 404.852814,865 380,865 C355.147186,865 335,844.852814 335,820 C335,795.481383 354.608989,775.542691 379,775.010892 L379,773 L373,773 C371.895431,773 371,772.104569 371,771 L371,769 C371,767.895431 371.895431,767 373,767 L387,767 C388.104569,767 389,767.895431 389,769 L389,771 C389,772.104569 388.104569,773 387,773 L381,773 L381,775.010892 C390.877338,775.226248 399.970468,778.624162 407.294737,784.219982 Z M408.866189,785.476956 C410.914719,787.19165 412.80835,789.085281 414.523044,791.133811 L416.062446,789.594408 L410.405592,783.937554 L408.866189,785.476956 Z M379,816.126017 L379,793 L381,793 L381,816.126017 C382.725227,816.57006 384,818.136161 384,820 C384,822.209139 382.209139,824 380,824 C377.790861,824 376,822.209139 376,820 C376,818.136161 377.274773,816.57006 379,816.126017 Z M380,863 C403.748244,863 423,843.748244 423,820 C423,796.251756 403.748244,777 380,777 C356.251756,777 337,796.251756 337,820 C337,843.748244 356.251756,863 380,863 Z M380,822 C381.104569,822 382,821.104569 382,820 C382,818.895431 381.104569,818 380,818 C378.895431,818 378,818.895431 378,820 C378,821.104569 378.895431,822 380,822 Z M373,769 L373,771 L387,771 L387,769 L373,769 Z" id="shape"></path>
        </g>
    </g>
</svg>