<?xml version="1.0" encoding="UTF-8"?>
<svg width="20px" height="20px" viewBox="0 0 20 20" version="1.1" xmlns="http://www.w3.org/2000/svg" xmlns:xlink="http://www.w3.org/1999/xlink">
    <!-- Generator: Sketch 52.6 (67491) - http://www.bohemiancoding.com/sketch -->
    <title>icon-location-20@1x</title>
    <desc>Created with Sketch.</desc>
    <g id="Icon" stroke="none" stroke-width="1" fill="none" fill-rule="evenodd">
        <g id="Index" transform="translate(-266.000000, -24.000000)" fill="#262F36">
            <g id="icon/20/location" transform="translate(266.000000, 24.000000)">
                <path d="M12.2928932,13.7928932 C14.1196763,11.9661101 15,10.2054628 15,7.5 C15,4.46243388 12.5375661,2 9.5,2 C6.46243388,2 4,4.46243388 4,7.5 C4,10.2054628 4.88032368,11.9661101 6.70710678,13.7928932 L9.5,16.5857864 L12.2928932,13.7928932 Z M9.5,18 L6,14.5 C4.5,13 3,11 3,7.5 C3,3.91014913 5.91014913,1 9.5,1 C13.0898509,1 16,3.91014913 16,7.5 C16,11 14.5,13 13,14.5 L9.5,18 Z M9.5,10 C8.11928813,10 7,8.88071187 7,7.5 C7,6.11928813 8.11928813,5 9.5,5 C10.8807119,5 12,6.11928813 12,7.5 C12,8.88071187 10.8807119,10 9.5,10 Z M9.5,9 C10.3284271,9 11,8.32842712 11,7.5 C11,6.67157288 10.3284271,6 9.5,6 C8.67157288,6 8,6.67157288 8,7.5 C8,8.32842712 8.67157288,9 9.5,9 Z" id="shape"></path>
            </g>
        </g>
    </g>
</svg>