<?xml version="1.0" encoding="UTF-8"?>
<svg width="20px" height="20px" viewBox="0 0 20 20" version="1.1" xmlns="http://www.w3.org/2000/svg" xmlns:xlink="http://www.w3.org/1999/xlink">
    <!-- Generator: Sketch 52.6 (67491) - http://www.bohemiancoding.com/sketch -->
    <title>icon-inspection-reports-20@1x</title>
    <desc>Created with Sketch.</desc>
    <g id="Icon" stroke="none" stroke-width="1" fill="none" fill-rule="evenodd">
        <g id="Index" transform="translate(-400.000000, -240.000000)" fill="#262F36">
            <path d="M410.671573,242.671573 C411.441703,241.901443 412.473245,241.489381 413.540785,241.500207 C413.671631,241.501534 413.796742,241.554101 413.889268,241.646628 L414.56066,242.318019 C414.755922,242.513282 414.755922,242.829864 414.56066,243.025126 L413.5,244.085786 C413.109476,244.476311 413.109476,245.109476 413.5,245.5 C413.890524,245.890524 414.523689,245.890524 414.914214,245.5 L415.974874,244.43934 C416.170136,244.244078 416.486718,244.244078 416.681981,244.43934 L417.353372,245.110732 C417.445899,245.203258 417.498466,245.328369 417.499793,245.459215 C417.510619,246.526755 417.098557,247.558297 416.328427,248.328427 C415.303191,249.353663 413.826659,249.729024 412.464169,249.364258 L409.364258,252.464169 C409.729024,253.826659 409.353663,255.303191 408.328427,256.328427 C407.558297,257.098557 406.526755,257.510619 405.459215,257.499793 C405.328369,257.498466 405.203258,257.445899 405.110732,257.353372 L404.43934,256.681981 C404.244078,256.486718 404.244078,256.170136 404.43934,255.974874 L405.5,254.914214 C405.890524,254.523689 405.890524,253.890524 405.5,253.5 C405.109476,253.109476 404.476311,253.109476 404.085786,253.5 L403.025126,254.56066 C402.829864,254.755922 402.513282,254.755922 402.318019,254.56066 L401.646628,253.889268 C401.554101,253.796742 401.501534,253.671631 401.500207,253.540785 C401.489381,252.473245 401.901443,251.441703 402.671573,250.671573 C403.696809,249.646337 405.173341,249.270976 406.535831,249.635742 L409.635742,246.535831 C409.270976,245.173341 409.646337,243.696809 410.671573,242.671573 Z M411.37868,243.37868 C410.551207,244.206152 410.288137,245.425055 410.673689,246.508405 C410.738407,246.690255 410.692672,246.893115 410.556184,247.029602 L407.029602,250.556184 C406.893115,250.692672 406.690255,250.738407 406.508405,250.673689 C405.425055,250.288137 404.206152,250.551207 403.37868,251.37868 C402.848225,251.909134 402.544754,252.603058 402.50458,253.333007 L402.671573,253.5 L403.37868,252.792893 C404.159728,252.011845 405.426058,252.011845 406.207107,252.792893 C406.988155,253.573942 406.988155,254.840272 406.207107,255.62132 L405.5,256.328427 L405.666993,256.49542 C406.396942,256.455246 407.090866,256.151775 407.62132,255.62132 C408.448793,254.793848 408.711863,253.574945 408.326311,252.491595 C408.261593,252.309745 408.307328,252.106885 408.443816,251.970398 L411.970398,248.443816 C412.106885,248.307328 412.309745,248.261593 412.491595,248.326311 C413.574945,248.711863 414.793848,248.448793 415.62132,247.62132 C416.151775,247.090866 416.455246,246.396942 416.49542,245.666993 L416.328427,245.5 L415.62132,246.207107 C414.840272,246.988155 413.573942,246.988155 412.792893,246.207107 C412.011845,245.426058 412.011845,244.159728 412.792893,243.37868 L413.5,242.671573 L413.333007,242.50458 C412.603058,242.544754 411.909134,242.848225 411.37868,243.37868 Z" id="shape"></path>
        </g>
    </g>
</svg>