<?xml version="1.0" encoding="UTF-8"?>
<svg width="16px" height="16px" viewBox="0 0 16 16" version="1.1" xmlns="http://www.w3.org/2000/svg" xmlns:xlink="http://www.w3.org/1999/xlink">
    <!-- Generator: Sketch 52.6 (67491) - http://www.bohemiancoding.com/sketch -->
    <title>icon-0-placeholder-16</title>
    <desc>Created with Sketch.</desc>
    <g id="Icon" stroke="none" stroke-width="1" fill="none" fill-rule="evenodd">
        <g id="Index" transform="translate(-600.000000, -160.000000)" fill="#262F36">
            <path d="M611.164366,171.871473 L608,168.707107 L604.835634,171.871473 C605.697569,172.576817 606.799365,173 608,173 C609.200635,173 610.302431,172.576817 611.164366,171.871473 Z M611.871473,171.164366 C612.576817,170.302431 613,169.200635 613,168 C613,166.799365 612.576817,165.697569 611.871473,164.835634 L608.707107,168 L611.871473,171.164366 Z M611.164366,164.128527 C610.302431,163.423183 609.200635,163 608,163 C606.799365,163 605.697569,163.423183 604.835634,164.128527 L608,167.292893 L611.164366,164.128527 Z M604.128527,164.835634 C603.423183,165.697569 603,166.799365 603,168 C603,169.200635 603.423183,170.302431 604.128527,171.164366 L607.292893,168 L604.128527,164.835634 Z M608,174 C604.686292,174 602,171.313708 602,168 C602,164.686292 604.686292,162 608,162 C611.313708,162 614,164.686292 614,168 C614,171.313708 611.313708,174 608,174 Z" id="shape"></path>
        </g>
    </g>
</svg>