<?xml version="1.0" encoding="UTF-8"?>
<svg width="20px" height="20px" viewBox="0 0 20 20" version="1.1" xmlns="http://www.w3.org/2000/svg" xmlns:xlink="http://www.w3.org/1999/xlink">
    <!-- Generator: Sketch 52.6 (67491) - http://www.bohemiancoding.com/sketch -->
    <title>icon-speed-20@1x</title>
    <desc>Created with Sketch.</desc>
    <g id="Icon" stroke="none" stroke-width="1" fill="none" fill-rule="evenodd">
        <g id="Index" transform="translate(-880.000000, -240.000000)" fill="#262F36">
            <path d="M884.563787,245.270894 C883.690504,246.28924 883.126895,247.580937 883.018945,249 L884,249 L884,250 L883.018945,250 C883.274257,253.356224 886.078385,256 889.5,256 C892.921615,256 895.725743,253.356224 895.981055,250 L895,250 L895,249 L895.981055,249 C895.873105,247.580937 895.309496,246.28924 894.436213,245.270894 L893.742641,245.964466 L893.035534,245.257359 L893.729106,244.563787 C892.71076,243.690504 891.419063,243.126895 890,243.018945 L890,244 L889,244 L889,243.018945 C887.580937,243.126895 886.28924,243.690504 885.270894,244.563787 L885.964466,245.257359 L885.257359,245.964466 L884.563787,245.270894 Z M889.5,257 C885.357864,257 882,253.642136 882,249.5 C882,245.357864 885.357864,242 889.5,242 C893.642136,242 897,245.357864 897,249.5 C897,253.642136 893.642136,257 889.5,257 Z M890.146708,248.146185 L892.328427,245.964466 L893.035534,246.671573 L890.853815,248.853292 C890.947524,249.04911 891,249.268427 891,249.5 C891,250.328427 890.328427,251 889.5,251 C888.671573,251 888,250.328427 888,249.5 C888,248.671573 888.671573,248 889.5,248 C889.731573,248 889.95089,248.052476 890.146708,248.146185 Z" id="shape"></path>
        </g>
    </g>
</svg>