<?xml version="1.0" encoding="UTF-8"?>
<svg width="20px" height="20px" viewBox="0 0 20 20" version="1.1" xmlns="http://www.w3.org/2000/svg" xmlns:xlink="http://www.w3.org/1999/xlink">
    <!-- Generator: Sketch 52.6 (67491) - http://www.bohemiancoding.com/sketch -->
    <title>icon-broadcast-20@1x</title>
    <desc>Created with Sketch.</desc>
    <g id="Icon" stroke="none" stroke-width="1" fill="none" fill-rule="evenodd">
        <g id="Index" transform="translate(-1080.000000, -280.000000)" fill="#262F36">
            <path d="M1085.43007,292.558859 L1084.51893,295.959288 L1083.553,295.700469 L1084.465,292.296832 L1083.47595,292.028292 C1082.60475,291.79175 1082,291.000913 1082,290.09817 L1082,288.792032 C1082,287.875537 1082.62294,287.076318 1083.5117,286.852556 L1089.75585,285.280476 C1090.29142,285.145636 1090.8349,285.470493 1090.96974,286.006065 C1090.98984,286.085892 1091,286.167896 1091,286.250214 L1091,292.763446 C1091,293.315731 1090.55228,293.763446 1090,293.763446 C1089.9115,293.763446 1089.82339,293.751697 1089.73797,293.728507 L1085.43007,292.558859 Z M1092.68198,292.681981 C1093.49632,291.867641 1094,290.742641 1094,289.5 C1094,288.29885 1093.52939,287.207616 1092.7625,286.400621 L1093.48751,285.71187 C1094.42481,286.698197 1095,288.031927 1095,289.5 C1095,291.018783 1094.38439,292.393783 1093.38909,293.389087 L1092.68198,292.681981 Z M1094.8033,294.803301 C1096.16053,293.446068 1097,291.571068 1097,289.5 C1097,287.498083 1096.21566,285.679359 1094.93751,284.334368 L1095.66251,283.645618 C1097.11108,285.16994 1098,287.231161 1098,289.5 C1098,291.84721 1097.04861,293.97221 1095.51041,295.510408 L1094.8033,294.803301 Z M1083.75585,287.822294 C1083.31147,287.934175 1083,288.333784 1083,288.792032 L1083,290.09817 C1083,290.549541 1083.30237,290.94496 1083.73797,291.063231 L1090,292.763446 L1090,286.250214 L1083.75585,287.822294 Z" id="shape"></path>
        </g>
    </g>
</svg>