<?xml version="1.0" encoding="UTF-8"?>
<svg width="20px" height="20px" viewBox="0 0 20 20" version="1.1" xmlns="http://www.w3.org/2000/svg" xmlns:xlink="http://www.w3.org/1999/xlink">
    <!-- Generator: Sketch 52.6 (67491) - http://www.bohemiancoding.com/sketch -->
    <title>icon-refresh-20@1x</title>
    <desc>Created with Sketch.</desc>
    <g id="Icon" stroke="none" stroke-width="1" fill="none" fill-rule="evenodd">
        <g id="Index" transform="translate(-400.000000, -280.000000)" fill="#262F36">
            <path d="M413.024066,294.96268 C414.814764,293.805071 416,291.790933 416,289.5 C416,286.5001 413.96778,283.974928 411.205028,283.22592 L411.542345,282.281434 C414.691844,283.170752 417,286.065783 417,289.5 C417,292.124021 415.652382,294.433324 413.611521,295.77358 L414.5,297 L410.5,297 L412,293.549101 L413.024066,294.96268 Z M405.388462,283.226398 L404.5,282 L408.5,282 L407,285.450899 L405.975924,284.037305 C404.185239,285.194895 403.000081,287.209013 403.000081,289.5 C403.000081,292.452737 404.968887,294.945659 407.665442,295.737496 L407.383202,296.697113 C404.271786,295.783457 402.000081,292.907006 402.000081,289.5 C402.000081,286.875914 403.347614,284.566631 405.388462,283.226398 Z" id="shape"></path>
        </g>
    </g>
</svg>