<?xml version="1.0" encoding="UTF-8"?>
<svg width="20px" height="20px" viewBox="0 0 20 20" version="1.1" xmlns="http://www.w3.org/2000/svg" xmlns:xlink="http://www.w3.org/1999/xlink">
    <!-- Generator: Sketch 52.6 (67491) - http://www.bohemiancoding.com/sketch -->
    <title>icon-dashcam-eld-20@1x</title>
    <desc>Created with Sketch.</desc>
    <g id="Icon" stroke="none" stroke-width="1" fill="none" fill-rule="evenodd">
        <g id="Index" transform="translate(-160.000000, -280.000000)" fill="#262F36">
            <path d="M174,292 C174,291.447715 174.447715,291 175,291 L176,291 C176.552285,291 177,291.447715 177,292 C178.10457,292 179,292.895431 179,294 L179,297 C179,298.104569 178.104569,299 177,299 L174,299 C172.895431,299 172,298.104569 172,297 L172,294 C172,292.895431 172.895431,292 174,292 Z M177,293 L174,293 C173.447715,293 173,293.447715 173,294 L173,297 C173,297.552285 173.447715,298 174,298 L177,298 C177.552285,298 178,297.552285 178,297 L178,294 C178,293.447715 177.552285,293 177,293 Z M177,290 L176,290 L176,284 C176,283.447715 175.552285,283 175,283 L164,283 C163.447715,283 163,283.447715 163,284 L163,295 C163,295.552285 163.447715,296 164,296 L171,296 L171,297 L164,297 C162.895431,297 162,296.104569 162,295 L162,284 C162,282.895431 162.895431,282 164,282 L175,282 C176.104569,282 177,282.895431 177,284 L177,290 Z M169.5,293 C167.567003,293 166,291.432997 166,289.5 C166,287.567003 167.567003,286 169.5,286 C171.432997,286 173,287.567003 173,289.5 C173,291.432997 171.432997,293 169.5,293 Z M169.5,292 C170.880712,292 172,290.880712 172,289.5 C172,288.119288 170.880712,287 169.5,287 C168.119288,287 167,288.119288 167,289.5 C167,290.880712 168.119288,292 169.5,292 Z M169.5,291 C168.671573,291 168,290.328427 168,289.5 C168,288.671573 168.671573,288 169.5,288 C170.328427,288 171,288.671573 171,289.5 C171,290.328427 170.328427,291 169.5,291 Z M174,295 L175,295 L175,296 L174,296 L174,295 Z M176,295 L177,295 L177,296 L176,296 L176,295 Z" id="shape"></path>
        </g>
    </g>
</svg>