<?xml version="1.0" encoding="UTF-8"?>
<svg width="120px" height="120px" viewBox="0 0 120 120" version="1.1" xmlns="http://www.w3.org/2000/svg" xmlns:xlink="http://www.w3.org/1999/xlink">
    <!-- Generator: Sketch 54.1 (76490) - https://sketchapp.com -->
    <title>icon-tag-120</title>
    <desc>Created with Sketch.</desc>
    <g id="Icon" stroke="none" stroke-width="1" fill="none" fill-rule="evenodd">
        <g id="Index" transform="translate(-680.000000, -1000.000000)" fill="#262F36">
            <path d="M740,1105 C715.147186,1105 695,1084.85281 695,1060 C695,1035.14719 715.147186,1015 740,1015 C764.852814,1015 785,1035.14719 785,1060 C785,1084.85281 764.852814,1105 740,1105 Z M740,1103 C763.748244,1103 783,1083.74824 783,1060 C783,1036.25176 763.748244,1017 740,1017 C716.251756,1017 697,1036.25176 697,1060 C697,1083.74824 716.251756,1103 740,1103 Z M757.414214,1059.75736 C757.789286,1059.38229 758,1058.87358 758,1058.34315 L758,1044 C758,1042.89543 757.104569,1042 756,1042 L741.656854,1042 C741.126421,1042 740.617713,1042.21071 740.242641,1042.58579 L718.828427,1064 L736,1081.17157 L757.414214,1059.75736 Z M758.828427,1061.17157 L737.414214,1082.58579 C736.633165,1083.36684 735.366835,1083.36684 734.585786,1082.58579 L717.414214,1065.41421 C716.633165,1064.63316 716.633165,1063.36684 717.414214,1062.58579 L738.828427,1041.17157 C739.578573,1040.42143 740.595988,1040 741.656854,1040 L756,1040 C758.209139,1040 760,1041.79086 760,1044 L760,1058.34315 C760,1059.40401 759.578573,1060.42143 758.828427,1061.17157 Z M750,1054 C747.790861,1054 746,1052.20914 746,1050 C746,1047.79086 747.790861,1046 750,1046 C752.209139,1046 754,1047.79086 754,1050 C754,1052.20914 752.209139,1054 750,1054 Z M750,1052 C751.104569,1052 752,1051.10457 752,1050 C752,1048.89543 751.104569,1048 750,1048 C748.895431,1048 748,1048.89543 748,1050 C748,1051.10457 748.895431,1052 750,1052 Z" id="shape"></path>
        </g>
    </g>
</svg>