<?xml version="1.0" encoding="UTF-8"?>
<svg width="24px" height="24px" viewBox="0 0 24 24" version="1.1" xmlns="http://www.w3.org/2000/svg" xmlns:xlink="http://www.w3.org/1999/xlink">
    <!-- Generator: Sketch 52.6 (67491) - http://www.bohemiancoding.com/sketch -->
    <title>icon-avatar-filled-24</title>
    <desc>Created with Sketch.</desc>
    <g id="Icon" stroke="none" stroke-width="1" fill="none" fill-rule="evenodd">
        <g id="Index" transform="translate(-80.000000, -1360.000000)" fill="#262F36">
            <path d="M91.4999902,1362 C96.7466783,1362 100.999979,1366.2533 100.999979,1371.50001 C100.999979,1376.7467 96.7466783,1381 91.4999902,1381 C86.253302,1381 82.0000012,1376.7467 82.0000012,1371.50001 C82.0000012,1366.2533 86.253302,1362 91.4999902,1362 Z M96.8614399,1378.09613 C97.1401154,1377.86934 97.404144,1377.62524 97.6518878,1377.36548 C97.0268851,1375.97122 95.6268629,1375 94,1375 L89,1375 C87.3731371,1375 85.9731149,1375.97122 85.3481122,1377.36548 C85.595856,1377.62524 85.8598846,1377.86934 86.1385601,1378.09613 C86.5220331,1376.881 87.6581328,1376 89,1376 L94,1376 C95.3418672,1376 96.4779669,1376.881 96.8614399,1378.09613 Z M91.5,1374 C93.9852814,1374 96,1371.98528 96,1369.5 C96,1367.01472 93.9852814,1365 91.5,1365 C89.0147186,1365 87,1367.01472 87,1369.5 C87,1371.98528 89.0147186,1374 91.5,1374 Z M91.5,1373 C89.5670034,1373 88,1371.433 88,1369.5 C88,1367.567 89.5670034,1366 91.5,1366 C93.4329966,1366 95,1367.567 95,1369.5 C95,1371.433 93.4329966,1373 91.5,1373 Z" id="shape"></path>
        </g>
    </g>
</svg>