<?xml version="1.0" encoding="UTF-8"?>
<svg width="20px" height="20px" viewBox="0 0 20 20" version="1.1" xmlns="http://www.w3.org/2000/svg" xmlns:xlink="http://www.w3.org/1999/xlink">
    <!-- Generator: Sketch 52.6 (67491) - http://www.bohemiancoding.com/sketch -->
    <title>icon-overview-filled-20</title>
    <desc>Created with Sketch.</desc>
    <g id="Icon" stroke="none" stroke-width="1" fill="none" fill-rule="evenodd">
        <g id="Index" transform="translate(-80.000000, -1240.000000)" fill="#262F36">
            <path d="M89.5000404,1242 C93.6420555,1242 97,1245.35779 97,1249.5 C97,1253.6421 93.6420555,1257 89.5000404,1257 C85.3578213,1257 82.0000808,1253.6421 82.0000808,1249.5 C82.0000808,1245.35779 85.3578213,1242 89.5000404,1242 Z M85,1249.5 L86,1249.5 C86,1247.567 87.5670034,1246 89.5,1246 C91.4329966,1246 93,1247.567 93,1249.5 L94,1249.5 C94,1247.01472 91.9852814,1245 89.5,1245 C87.0147186,1245 85,1247.01472 85,1249.5 Z M89,1251.08535 C88.4174038,1251.29127 88,1251.84689 88,1252.5 C88,1253.32843 88.6715729,1254 89.5,1254 C90.3284271,1254 91,1253.32843 91,1252.5 C91,1251.84689 90.5825962,1251.29127 90,1251.08535 L90,1248 L89,1248 L89,1251.08535 Z" id="shape"></path>
        </g>
    </g>
</svg>