<?xml version="1.0" encoding="UTF-8"?>
<svg width="20px" height="20px" viewBox="0 0 20 20" version="1.1" xmlns="http://www.w3.org/2000/svg" xmlns:xlink="http://www.w3.org/1999/xlink">
    <!-- Generator: Sketch 52.6 (67491) - http://www.bohemiancoding.com/sketch -->
    <title>icon-reports-20@1x</title>
    <desc>Created with Sketch.</desc>
    <g id="Icon" stroke="none" stroke-width="1" fill="none" fill-rule="evenodd">
        <g id="Index" transform="translate(-560.000000, -360.000000)" fill="#262F36">
            <path d="M564,371 L565,371 L565,377 L564,377 L564,371 Z M574,363.727922 L570.071068,367.656854 L567.949747,365.535534 L563.707107,369.778175 L563,369.071068 L567.949747,364.12132 L570.071068,366.242641 L573.313708,363 L571,363 L571,361.999487 L575,362 L575,366 L574,366 L574,363.727922 Z M569,369 L570,369 L570,377 L569,377 L569,369 Z M574,368 L575,368 L575,377 L574,377 L574,368 Z" id="shape"></path>
        </g>
    </g>
</svg>