<?xml version="1.0" encoding="UTF-8"?>
<svg width="20px" height="20px" viewBox="0 0 20 20" version="1.1" xmlns="http://www.w3.org/2000/svg" xmlns:xlink="http://www.w3.org/1999/xlink">
    <!-- Generator: Sketch 52.6 (67491) - http://www.bohemiancoding.com/sketch -->
    <title>icon-logs-20@1x</title>
    <desc>Created with Sketch.</desc>
    <g id="Icon" stroke="none" stroke-width="1" fill="none" fill-rule="evenodd">
        <g id="Index" transform="translate(-160.000000, -240.000000)" fill="#262F36">
            <path d="M164,244 L164,255 C164,255.552285 164.447715,256 165,256 L174,256 C174.552285,256 175,255.552285 175,255 L175,244 C175,243.447715 174.552285,243 174,243 L165,243 C164.447715,243 164,243.447715 164,244 Z M163,253 L162,253 L162,252 L163,252 L163,250 L162,250 L162,249 L163,249 L163,247 L162,247 L162,246 L163,246 L163,244 C163,242.895431 163.895431,242 165,242 L174,242 C175.104569,242 176,242.895431 176,244 L176,255 C176,256.104569 175.104569,257 174,257 L165,257 C163.895431,257 163,256.104569 163,255 L163,253 Z M166,246 L173,246 L173,247 L166,247 L166,246 Z M166,249 L173,249 L173,250 L166,250 L166,249 Z M166,252 L173,252 L173,253 L166,253 L166,252 Z" id="shape"></path>
        </g>
    </g>
</svg>