<?xml version="1.0" encoding="UTF-8"?>
<svg width="20px" height="20px" viewBox="0 0 20 20" version="1.1" xmlns="http://www.w3.org/2000/svg" xmlns:xlink="http://www.w3.org/1999/xlink">
    <!-- Generator: Sketch 52.6 (67491) - http://www.bohemiancoding.com/sketch -->
    <title>icon-developers-20@1x</title>
    <desc>Created with Sketch.</desc>
    <g id="Icon" stroke="none" stroke-width="1" fill="none" fill-rule="evenodd">
        <g id="Index" transform="translate(-640.000000, -240.000000)" fill="#262F36">
            <path d="M642.428932,253.035534 L645.964466,256.571068 C646.35499,256.961592 646.988155,256.961592 647.37868,256.571068 L649.5,254.449747 L644.550253,249.5 L642.428932,251.62132 C642.038408,252.011845 642.038408,252.64501 642.428932,253.035534 Z M645.964466,249.5 L648.085786,247.37868 L648.792893,248.085786 L646.671573,250.207107 L648.792893,252.328427 L650.914214,250.207107 L651.62132,250.914214 L649.5,253.035534 L650.914214,254.449747 L648.085786,257.278175 C647.304738,258.059223 646.038408,258.059223 645.257359,257.278175 L643.843146,255.863961 L642.428932,257.278175 L641.721825,256.571068 L643.136039,255.156854 L641.721825,253.742641 C640.940777,252.961592 640.940777,251.695262 641.721825,250.914214 L644.550253,248.085786 L645.964466,249.5 Z M656.571068,245.964466 L653.035534,242.428932 C652.64501,242.038408 652.011845,242.038408 651.62132,242.428932 L649.5,244.550253 L654.449747,249.5 L656.571068,247.37868 C656.961592,246.988155 656.961592,246.35499 656.571068,245.964466 Z M655.156854,243.136039 L656.571068,241.721825 L657.278175,242.428932 L655.863961,243.843146 L657.278175,245.257359 C658.059223,246.038408 658.059223,247.304738 657.278175,248.085786 L654.449747,250.914214 L648.085786,244.550253 L650.914214,241.721825 C651.695262,240.940777 652.961592,240.940777 653.742641,241.721825 L655.156854,243.136039 Z" id="Shape"></path>
        </g>
    </g>
</svg>