<?xml version="1.0" encoding="UTF-8"?>
<svg width="20px" height="20px" viewBox="0 0 20 20" version="1.1" xmlns="http://www.w3.org/2000/svg" xmlns:xlink="http://www.w3.org/1999/xlink">
    <!-- Generator: Sketch 52.6 (67491) - http://www.bohemiancoding.com/sketch -->
    <title>icon-alerts-20@1x</title>
    <desc>Created with Sketch.</desc>
    <g id="Icon" stroke="none" stroke-width="1" fill="none" fill-rule="evenodd">
        <g id="Index" transform="translate(-680.000000, -280.000000)" fill="#262F36">
            <path d="M687.050009,295 L682,295 L682,294 C683.333333,293.333333 684,292.333333 684,291 L684,287.5 C684,284.462434 686.462434,282 689.5,282 C692.537566,282 695,284.462434 695,287.5 L695,291 C695,292.333333 695.666667,293.333333 697,294 L697,295 L691.949991,295 C691.718356,296.14112 690.709479,297 689.5,297 C688.290521,297 687.281644,296.14112 687.050009,295 Z M688.085353,295 C688.291271,295.582596 688.846891,296 689.5,296 C690.153109,296 690.708729,295.582596 690.914647,295 L688.085353,295 Z M695.254981,294 C694.432137,293.214923 694,292.201544 694,291 L694,287.5 C694,285.014719 691.985281,283 689.5,283 C687.014719,283 685,285.014719 685,287.5 L685,291 C685,292.201544 684.567863,293.214923 683.745019,294 L695.254981,294 Z" id="shape"></path>
        </g>
    </g>
</svg>