<?xml version="1.0" encoding="UTF-8"?>
<svg width="20px" height="20px" viewBox="0 0 20 20" version="1.1" xmlns="http://www.w3.org/2000/svg" xmlns:xlink="http://www.w3.org/1999/xlink">
    <!-- Generator: Sketch 52.6 (67491) - http://www.bohemiancoding.com/sketch -->
    <title>icon-edit-duty-status-20@1x</title>
    <desc>Created with Sketch.</desc>
    <g id="Icon" stroke="none" stroke-width="1" fill="none" fill-rule="evenodd">
        <g id="Index" transform="translate(-120.000000, -320.000000)" fill="#262F36">
            <path d="M132.809702,326.128589 L136.828913,323.808097 L136.217514,325.318019 C134.048972,326.924071 132.351096,328.165824 131.123884,329.043278 C131.522993,328.341364 132.08669,327.366603 132.809702,326.128589 Z M125.818459,331.662666 C125.750938,331.669624 125.681799,331.676059 125.610913,331.681981 C124.101492,331.808075 122.870486,331.958285 122.318202,331.0017 C121.765917,330.045115 122.287534,328.710005 123.483265,328.019649 C124.655185,327.343041 126.039694,327.536878 126.614314,328.445435 C126.870623,328.850695 127.1376,329.01255 127.385522,329.047237 C126.626835,330.288164 126.106013,331.157361 125.818459,331.662666 Z M123.184227,330.5017 C123.472646,331.001256 124.419109,331.215368 125.110913,330.815955 C125.797229,330.41971 126.07427,329.507401 125.782303,329.0017 C125.533768,328.571225 124.737865,328.450006 123.983265,328.885674 C123.228665,329.321343 122.935692,330.071225 123.184227,330.5017 Z M132.895479,322.055178 L134.425653,321.404838 C131.362152,326.594668 129.723458,329.432969 129.509572,329.91974 C129.188744,330.649897 129.11795,330.966727 129.85876,331.798392 C130.59957,332.630057 130.690897,334.02505 130.00085,335.220247 C129.172423,336.655124 127.531518,337.258679 126.335786,336.568323 C125.140055,335.877967 125.733471,334.033057 126.5,332.5 C126.833333,331.833333 128.96516,328.351726 132.895479,322.055178 Z M126.835786,335.702297 C127.514741,336.094292 128.564431,335.708198 129.134825,334.720247 C129.705218,333.732295 129.514741,332.630191 128.835786,332.238196 C128.411227,331.993076 127.917483,332.325842 127.184045,333.596194 C126.451178,334.865556 126.410477,335.456745 126.835786,335.702297 Z" id="shape"></path>
        </g>
    </g>
</svg>