<?xml version="1.0" encoding="UTF-8"?>
<svg width="20px" height="20px" viewBox="0 0 20 20" version="1.1" xmlns="http://www.w3.org/2000/svg" xmlns:xlink="http://www.w3.org/1999/xlink">
    <!-- Generator: Sketch 54.1 (76490) - https://sketchapp.com -->
    <title>icon-20-o-co-ordinates</title>
    <desc>Created with Sketch.</desc>
    <g id="Icon" stroke="none" stroke-width="1" fill="none" fill-rule="evenodd">
        <g id="Index" transform="translate(-900.000000, -454.000000)" fill="#262F36">
            <g id="icon/20/co-ordinates" transform="translate(900.000000, 454.000000)">
                <path d="M3.01894482,10 L1,10 L1,9 L3.01894482,9 C3.2617039,5.80879696 5.80879696,3.2617039 9,3.01894482 L9,1 L10,1 L10,3.01894482 C13.191203,3.2617039 15.7382961,5.80879696 15.9810552,9 L18,9 L18,10 L15.9810552,10 C15.7382961,13.191203 13.191203,15.7382961 10,15.9810552 L10,18 L9,18 L9,15.9810552 C5.80879696,15.7382961 3.2617039,13.191203 3.01894482,10 L3.01894482,10 Z M4.02242151,10 C4.2601957,12.638569 6.36143101,14.7398043 9,14.9775785 L9,13 L10,13 L10,14.9775785 C12.638569,14.7398043 14.7398043,12.638569 14.9775785,10 L13,10 L13,9 L14.9775785,9 C14.7398043,6.36143101 12.638569,4.2601957 10,4.02242151 L10,6 L9,6 L9,4.02242151 C6.36143101,4.2601957 4.2601957,6.36143101 4.02242151,9 L6,9 L6,10 L4.02242151,10 L4.02242151,10 Z" id="shape"></path>
            </g>
        </g>
    </g>
</svg>