<?xml version="1.0" encoding="UTF-8"?>
<svg width="20px" height="20px" viewBox="0 0 20 20" version="1.1" xmlns="http://www.w3.org/2000/svg" xmlns:xlink="http://www.w3.org/1999/xlink">
    <!-- Generator: Sketch 52.6 (67491) - http://www.bohemiancoding.com/sketch -->
    <title>icon-email-20@1x</title>
    <desc>Created with Sketch.</desc>
    <g id="Icon" stroke="none" stroke-width="1" fill="none" fill-rule="evenodd">
        <g id="Index" transform="translate(-800.000000, -280.000000)" fill="#262F36">
            <path d="M803.740978,284.033872 L809.5,289.792893 L815.259022,284.033872 C815.176408,284.011779 815.08958,284 815,284 L804,284 C803.91042,284 803.823592,284.011779 803.740978,284.033872 Z M803.033872,284.740978 C803.011779,284.823592 803,284.91042 803,285 L803,294 C803,294.552285 803.447715,295 804,295 L815,295 C815.552285,295 816,294.552285 816,294 L816,285 C816,284.91042 815.988221,284.823592 815.966128,284.740978 L810.207107,290.5 C809.816582,290.890524 809.183418,290.890524 808.792893,290.5 L803.033872,284.740978 Z M815,283 C816.104569,283 817,283.895431 817,285 L817,294 C817,295.104569 816.104569,296 815,296 L804,296 C802.895431,296 802,295.104569 802,294 L802,285 C802,283.895431 802.895431,283 804,283 L815,283 Z" id="email"></path>
        </g>
    </g>
</svg>