<?xml version="1.0" encoding="UTF-8"?>
<svg width="24px" height="24px" viewBox="0 0 24 24" version="1.1" xmlns="http://www.w3.org/2000/svg" xmlns:xlink="http://www.w3.org/1999/xlink">
    <!-- Generator: Sketch 52.6 (67491) - http://www.bohemiancoding.com/sketch -->
    <title>icon-event-pause-24</title>
    <desc>Created with Sketch.</desc>
    <g id="Icon" stroke="none" stroke-width="1" fill="none" fill-rule="evenodd">
        <g id="Index" transform="translate(-520.000000, -521.000000)" fill="#262F36">
            <path d="M528,525 C529.104569,525 530,525.895431 530,527 L530,539 C530,540.104569 529.104569,541 528,541 C526.895431,541 526,540.104569 526,539 L526,527 C526,525.895431 526.895431,525 528,525 Z M536,525 C537.104569,525 538,525.895431 538,527 L538,539 C538,540.104569 537.104569,541 536,541 C534.895431,541 534,540.104569 534,539 L534,527 C534,525.895431 534.895431,525 536,525 Z" id="shape"></path>
        </g>
    </g>
</svg>