<?xml version="1.0" encoding="UTF-8"?>
<svg width="20px" height="20px" viewBox="0 0 20 20" version="1.1" xmlns="http://www.w3.org/2000/svg" xmlns:xlink="http://www.w3.org/1999/xlink">
    <!-- Generator: Sketch 52.6 (67491) - http://www.bohemiancoding.com/sketch -->
    <title>icon-0-placeholder-20@2x</title>
    <desc>Created with Sketch.</desc>
    <g id="Icon" stroke="none" stroke-width="1" fill="none" fill-rule="evenodd">
        <g id="Index" transform="translate(-600.000000, -360.000000)" fill="#262F36">
            <path d="M605.270894,374.436213 C606.407662,375.411049 607.885052,376 609.5,376 C611.114948,376 612.592338,375.411049 613.729106,374.436213 L609.5,370.207107 L605.270894,374.436213 Z M604.563787,373.729106 L608.792893,369.5 L604.563787,365.270894 C603.588951,366.407662 603,367.885052 603,369.5 C603,371.114948 603.588951,372.592338 604.563787,373.729106 Z M605.270894,364.563787 L609.5,368.792893 L613.729106,364.563787 C612.592338,363.588951 611.114948,363 609.5,363 C607.885052,363 606.407662,363.588951 605.270894,364.563787 Z M614.436213,365.270894 L610.207107,369.5 L614.436213,373.729106 C615.411049,372.592338 616,371.114948 616,369.5 C616,367.885052 615.411049,366.407662 614.436213,365.270894 Z M609.5,377 C605.357864,377 602,373.642136 602,369.5 C602,365.357864 605.357864,362 609.5,362 C613.642136,362 617,365.357864 617,369.5 C617,373.642136 613.642136,377 609.5,377 Z" id="shape"></path>
        </g>
    </g>
</svg>