<?xml version="1.0" encoding="UTF-8"?>
<svg width="20px" height="20px" viewBox="0 0 20 20" version="1.1" xmlns="http://www.w3.org/2000/svg" xmlns:xlink="http://www.w3.org/1999/xlink">
    <!-- Generator: Sketch 52.6 (67491) - http://www.bohemiancoding.com/sketch -->
    <title>icon-groups-20@1x</title>
    <desc>Created with Sketch.</desc>
    <g id="Icon" stroke="none" stroke-width="1" fill="none" fill-rule="evenodd">
        <g id="Index" transform="translate(-560.000000, -240.000000)" fill="#262F36">
            <path d="M572,257 L571,257 L571,256 C571,254.895431 570.104569,254 569,254 L564,254 C562.895431,254 562,254.895431 562,256 L562,257 L561,257 L561,256 C561,254.343146 562.343146,253 564,253 L569,253 C570.656854,253 572,254.343146 572,256 L572,257 Z M566.5,252 C564.567003,252 563,250.432997 563,248.5 C563,246.567003 564.567003,245 566.5,245 C568.432997,245 570,246.567003 570,248.5 C570,250.432997 568.432997,252 566.5,252 Z M566.5,251 C567.880712,251 569,249.880712 569,248.5 C569,247.119288 567.880712,246 566.5,246 C565.119288,246 564,247.119288 564,248.5 C564,249.880712 565.119288,251 566.5,251 Z M570.242225,251 C570.448733,250.691494 570.618103,250.356029 570.743941,250 L575,250 C576.656854,250 578,251.343146 578,253 L578,254 L577,254 L577,253 C577,251.895431 576.104569,251 575,251 L570.242225,251 Z M570.997144,248.661826 C570.999043,248.608118 571,248.554171 571,248.5 C571,248.116357 570.951992,247.743927 570.861655,247.38839 C571.300421,247.769387 571.873279,248 572.5,248 C573.880712,248 575,246.880712 575,245.5 C575,244.119288 573.880712,243 572.5,243 C571.119288,243 570,244.119288 570,245.5 C570,245.560242 570.002131,245.619987 570.006321,245.679162 C569.73731,245.345204 569.421565,245.050475 569.06902,244.804907 C569.391411,243.204895 570.804996,242 572.5,242 C574.432997,242 576,243.567003 576,245.5 C576,247.432997 574.432997,249 572.5,249 C571.962077,249 571.452498,248.878648 570.997144,248.661826 Z" id="shape"></path>
        </g>
    </g>
</svg>