<?xml version="1.0" encoding="UTF-8"?>
<svg width="20px" height="20px" viewBox="0 0 20 20" version="1.1" xmlns="http://www.w3.org/2000/svg" xmlns:xlink="http://www.w3.org/1999/xlink">
    <!-- Generator: Sketch 52.6 (67491) - http://www.bohemiancoding.com/sketch -->
    <title>icon-coaching-coachable-20@1x</title>
    <desc>Created with Sketch.</desc>
    <g id="Icon" stroke="none" stroke-width="1" fill="none" fill-rule="evenodd">
        <g id="Index" transform="translate(-560.000000, -280.000000)" fill="#262F36">
            <path d="M562,283.5 L569.5,281.5 L577,283.5 L577,286.5 C577,289.5 576.333333,291.833333 575,293.5 C573.666667,295.166667 571.833333,296.5 569.5,297.5 C567.166667,296.5 565.333333,295.166667 564,293.5 C562.666667,291.833333 562,289.5 562,286.5 L562,283.5 Z M563,284.268278 L563,286.5 C563,289.289549 563.604298,291.404591 564.780869,292.875305 C565.931837,294.314016 567.500654,295.491572 569.5,296.4064 C571.499346,295.491572 573.068163,294.314016 574.219131,292.875305 C575.395702,291.404591 576,289.289549 576,286.5 L576,284.268278 L569.5,282.534945 L563,284.268278 Z M569.5,291.5 C570.880712,291.5 572,290.380712 572,289 C572,287.619288 570.880712,286.5 569.5,286.5 C568.119288,286.5 567,287.619288 567,289 C567,290.380712 568.119288,291.5 569.5,291.5 Z M569.5,292.5 C567.567003,292.5 566,290.932997 566,289 C566,287.067003 567.567003,285.5 569.5,285.5 C571.432997,285.5 573,287.067003 573,289 C573,290.932997 571.432997,292.5 569.5,292.5 Z" id="shape"></path>
        </g>
    </g>
</svg>