<?xml version="1.0" encoding="UTF-8"?>
<svg width="20px" height="20px" viewBox="0 0 20 20" version="1.1" xmlns="http://www.w3.org/2000/svg" xmlns:xlink="http://www.w3.org/1999/xlink">
    <!-- Generator: Sketch 52.6 (67491) - http://www.bohemiancoding.com/sketch -->
    <title>icon-dashcam-video-20@1x</title>
    <desc>Created with Sketch.</desc>
    <g id="Icon" stroke="none" stroke-width="1" fill="none" fill-rule="evenodd">
        <g id="Index" transform="translate(-480.000000, -360.000000)" fill="#262F36">
            <path d="M492,377 L484,377 C482.895431,377 482,376.104569 482,375 L482,364 C482,362.895431 482.895431,362 484,362 L495,362 C496.104569,362 497,362.895431 497,364 L497,374 L496,374 L496,364 C496,363.447715 495.552285,363 495,363 L484,363 C483.447715,363 483,363.447715 483,364 L483,375 C483,375.552285 483.447715,376 484,376 L492,376 L492,377 Z M489.5,373 C487.567003,373 486,371.432997 486,369.5 C486,367.567003 487.567003,366 489.5,366 C491.432997,366 493,367.567003 493,369.5 C493,371.432997 491.432997,373 489.5,373 Z M489.5,372 C490.880712,372 492,370.880712 492,369.5 C492,368.119288 490.880712,367 489.5,367 C488.119288,367 487,368.119288 487,369.5 C487,370.880712 488.119288,372 489.5,372 Z M489.5,371 C488.671573,371 488,370.328427 488,369.5 C488,368.671573 488.671573,368 489.5,368 C490.328427,368 491,368.671573 491,369.5 C491,370.328427 490.328427,371 489.5,371 Z M493,379.902124 L493,373.097876 L498.443398,376.5 L493,379.902124 Z M494,374.902124 L494,378.097876 L496.556602,376.5 L494,374.902124 Z" id="shape"></path>
        </g>
    </g>
</svg>