<?xml version="1.0" encoding="UTF-8"?>
<svg width="20px" height="20px" viewBox="0 0 20 20" version="1.1" xmlns="http://www.w3.org/2000/svg" xmlns:xlink="http://www.w3.org/1999/xlink">
    <!-- Generator: Sketch 52.6 (67491) - http://www.bohemiancoding.com/sketch -->
    <title>icon-proximity-20@1x</title>
    <desc>Created with Sketch.</desc>
    <g id="Icon" stroke="none" stroke-width="1" fill="none" fill-rule="evenodd">
        <g id="Index" transform="translate(-320.000000, -320.000000)" fill="#262F36">
            <path d="M329.5,337 C325.357864,337 322,333.642136 322,329.5 C322,325.357864 325.357864,322 329.5,322 C333.642136,322 337,325.357864 337,329.5 C337,333.642136 333.642136,337 329.5,337 Z M329.5,336 C333.089851,336 336,333.089851 336,329.5 C336,325.910149 333.089851,323 329.5,323 C325.910149,323 323,325.910149 323,329.5 C323,333.089851 325.910149,336 329.5,336 Z M329.5,334 C327.014719,334 325,331.985281 325,329.5 C325,327.014719 327.014719,325 329.5,325 C331.985281,325 334,327.014719 334,329.5 C334,331.985281 331.985281,334 329.5,334 Z M329.5,333 C331.432997,333 333,331.432997 333,329.5 C333,327.567003 331.432997,326 329.5,326 C327.567003,326 326,327.567003 326,329.5 C326,331.432997 327.567003,333 329.5,333 Z M329.5,330 C329.776142,330 330,329.776142 330,329.5 C330,329.223858 329.776142,329 329.5,329 C329.223858,329 329,329.223858 329,329.5 C329,329.776142 329.223858,330 329.5,330 Z M329.5,331 C328.671573,331 328,330.328427 328,329.5 C328,328.671573 328.671573,328 329.5,328 C330.328427,328 331,328.671573 331,329.5 C331,330.328427 330.328427,331 329.5,331 Z" id="shape"></path>
        </g>
    </g>
</svg>