<?xml version="1.0" encoding="UTF-8"?>
<svg width="120px" height="120px" viewBox="0 0 120 120" version="1.1" xmlns="http://www.w3.org/2000/svg" xmlns:xlink="http://www.w3.org/1999/xlink">
    <!-- Generator: Sketch 52.6 (67491) - http://www.bohemiancoding.com/sketch -->
    <title>icon-ifta-120</title>
    <desc>Created with Sketch.</desc>
    <g id="Icon" stroke="none" stroke-width="1" fill="none" fill-rule="evenodd">
        <g id="Index" transform="translate(-920.000000, -880.000000)" fill="#262F36">
            <path d="M980,983 C1003.74824,983 1023,963.748244 1023,940 C1023,916.251756 1003.74824,897 980,897 C956.251756,897 937,916.251756 937,940 C937,963.748244 956.251756,983 980,983 Z M980,985 C955.147186,985 935,964.852814 935,940 C935,915.147186 955.147186,895 980,895 C1004.85281,895 1025,915.147186 1025,940 C1025,964.852814 1004.85281,985 980,985 Z M993,959 L992,959 C988.686292,959 986,956.313708 986,953 L986,951 L985,951 C983.895431,951 983,950.104569 983,949 L983,939 C983,937.895431 983.895431,937 985,937 L989,937 C990.104569,937 991,937.895431 991,939 L991,949 C991,950.104569 990.104569,951 989,951 L988,951 L988,953 C988,955.209139 989.790861,957 992,957 L993,957 L993,935 L967,935 L967,963 L993,963 L993,959 Z M995,957 C997.209139,957 999,955.209139 999,953 L999,942 C997.895431,942 997,941.104569 997,940 L997,935 C997,933.895431 997.895431,933 999,933 C999,931.519435 998.195603,930.226748 997,929.535129 L997,927.341411 C999.330385,928.165084 1001,930.387562 1001,933 C1002.10457,933 1003,933.895431 1003,935 L1003,940 C1003,941.104569 1002.10457,942 1001,942 L1001,953 C1001,956.313708 998.313708,959 995,959 L995,963 C995,964.104569 994.104569,965 993,965 L967,965 C965.895431,965 965,964.104569 965,963 L965,923 C965,919.686292 967.686292,917 971,917 L989,917 C992.313708,917 995,919.686292 995,923 L995,957 Z M986,949 L986,940 L988,940 L988,949 L989,949 L989,939 L985,939 L985,949 L986,949 Z M967,933 L993,933 L993,923 C993,920.790861 991.209139,919 989,919 L971,919 C968.790861,919 967,920.790861 967,923 L967,933 Z M999,935 L999,940 L1001,940 L1001,935 L999,935 Z" id="shape"></path>
        </g>
    </g>
</svg>