<?xml version="1.0" encoding="UTF-8"?>
<svg width="120px" height="120px" viewBox="0 0 120 120" version="1.1" xmlns="http://www.w3.org/2000/svg" xmlns:xlink="http://www.w3.org/1999/xlink">
    <!-- Generator: Sketch 54.1 (76490) - https://sketchapp.com -->
    <title>icon-app-120</title>
    <desc>Created with Sketch.</desc>
    <g id="Icon" stroke="none" stroke-width="1" fill="none" fill-rule="evenodd">
        <g id="Index" transform="translate(-928.000000, -1000.000000)" fill="#262F36">
            <path d="M988,1105 C963.147186,1105 943,1084.85281 943,1060 C943,1035.14719 963.147186,1015 988,1015 C1012.85281,1015 1033,1035.14719 1033,1060 C1033,1084.85281 1012.85281,1105 988,1105 Z M988,1103 C1011.74824,1103 1031,1083.74824 1031,1060 C1031,1036.25176 1011.74824,1017 988,1017 C964.251756,1017 945,1036.25176 945,1060 C945,1083.74824 964.251756,1103 988,1103 Z M1001.5332,1068.65437 L1003.53494,1067.5 L1008.48021,1070.35184 C1009.91935,1071.18176 1010.42319,1073.03236 1009.61472,1074.49174 C1009.3475,1074.97411 1008.95547,1075.37409 1008.48021,1075.64816 L989.486698,1086.60134 C988.564967,1087.13289 987.435033,1087.13289 986.513302,1086.60134 L967.519789,1075.64816 C966.080647,1074.81824 965.576809,1072.96764 966.38528,1071.50826 C966.652503,1071.02589 967.044531,1070.62591 967.519789,1070.35184 L972.465059,1067.5 L974.466802,1068.65437 L968.518918,1072.08439 C968.359355,1072.17641 968.22635,1072.31211 968.134761,1072.47744 C967.852875,1072.98628 968.028967,1073.63306 968.518918,1073.91561 L987.512431,1084.86879 C987.815803,1085.04374 988.184197,1085.04374 988.487569,1084.86879 L1007.48108,1073.91561 C1007.64064,1073.82359 1007.77365,1073.68789 1007.86524,1073.52256 C1008.14713,1073.01372 1007.97103,1072.36694 1007.48108,1072.08439 L1001.5332,1068.65437 Z M1001.5332,1055.65437 L1003.53494,1054.5 L1008.48021,1057.35184 C1009.91935,1058.18176 1010.42319,1060.03236 1009.61472,1061.49174 C1009.3475,1061.97411 1008.95547,1062.37409 1008.48021,1062.64816 L989.486698,1073.60134 C988.564967,1074.13289 987.435033,1074.13289 986.513302,1073.60134 L967.519789,1062.64816 C966.080647,1061.81824 965.576809,1059.96764 966.38528,1058.50826 C966.652503,1058.02589 967.044531,1057.62591 967.519789,1057.35184 L972.465059,1054.5 L974.466802,1055.65437 L968.518918,1059.08439 C968.359355,1059.17641 968.22635,1059.31211 968.134761,1059.47744 C967.852875,1059.98628 968.028967,1060.63306 968.518918,1060.91561 L987.512431,1071.86879 C987.815803,1072.04374 988.184197,1072.04374 988.487569,1071.86879 L1007.48108,1060.91561 C1007.64064,1060.82359 1007.77365,1060.68789 1007.86524,1060.52256 C1008.14713,1060.01372 1007.97103,1059.36694 1007.48108,1059.08439 L1001.5332,1055.65437 Z M967.519789,1044.35184 L986.513302,1033.39866 C987.435033,1032.86711 988.564967,1032.86711 989.486698,1033.39866 L1008.48021,1044.35184 C1009.91935,1045.18176 1010.42319,1047.03236 1009.61472,1048.49174 C1009.3475,1048.97411 1008.95547,1049.37409 1008.48021,1049.64816 L989.486698,1060.60134 C988.564967,1061.13289 987.435033,1061.13289 986.513302,1060.60134 L967.519789,1049.64816 C966.080647,1048.81824 965.576809,1046.96764 966.38528,1045.50826 C966.652503,1045.02589 967.044531,1044.62591 967.519789,1044.35184 Z M968.518918,1046.08439 C968.359355,1046.17641 968.22635,1046.31211 968.134761,1046.47744 C967.852875,1046.98628 968.028967,1047.63306 968.518918,1047.91561 L987.512431,1058.86879 C987.815803,1059.04374 988.184197,1059.04374 988.487569,1058.86879 L1007.48108,1047.91561 C1007.64064,1047.82359 1007.77365,1047.68789 1007.86524,1047.52256 C1008.14713,1047.01372 1007.97103,1046.36694 1007.48108,1046.08439 L988.487569,1035.13121 C988.184197,1034.95626 987.815803,1034.95626 987.512431,1035.13121 L968.518918,1046.08439 Z" id="Shape"></path>
        </g>
    </g>
</svg>