<?xml version="1.0" encoding="UTF-8"?>
<svg width="20px" height="20px" viewBox="0 0 20 20" version="1.1" xmlns="http://www.w3.org/2000/svg" xmlns:xlink="http://www.w3.org/1999/xlink">
    <!-- Generator: Sketch 52.6 (67491) - http://www.bohemiancoding.com/sketch -->
    <title>icon-coaching-coachable-filled-20</title>
    <desc>Created with Sketch.</desc>
    <g id="Icon" stroke="none" stroke-width="1" fill="none" fill-rule="evenodd">
        <g id="Index" transform="translate(-1040.000000, -1240.000000)" fill="#262F36">
            <path d="M1042,1243.5 L1049.5,1241.5 L1057,1243.5 L1057,1246.5 C1057,1249.5 1056.33333,1251.83333 1055,1253.5 C1053.66667,1255.16667 1051.83333,1256.5 1049.5,1257.5 C1047.16667,1256.5 1045.33333,1255.16667 1044,1253.5 C1042.66667,1251.83333 1042,1249.5 1042,1246.5 L1042,1243.5 Z M1049.5,1252.5 C1051.433,1252.5 1053,1250.933 1053,1249 C1053,1247.067 1051.433,1245.5 1049.5,1245.5 C1047.567,1245.5 1046,1247.067 1046,1249 C1046,1250.933 1047.567,1252.5 1049.5,1252.5 Z M1049.5,1251.5 C1048.11929,1251.5 1047,1250.38071 1047,1249 C1047,1247.61929 1048.11929,1246.5 1049.5,1246.5 C1050.88071,1246.5 1052,1247.61929 1052,1249 C1052,1250.38071 1050.88071,1251.5 1049.5,1251.5 Z" id="shape"></path>
        </g>
    </g>
</svg>