<?xml version="1.0" encoding="UTF-8"?>
<svg width="20px" height="20px" viewBox="0 0 20 20" version="1.1" xmlns="http://www.w3.org/2000/svg" xmlns:xlink="http://www.w3.org/1999/xlink">
    <!-- Generator: Sketch 52.6 (67491) - http://www.bohemiancoding.com/sketch -->
    <title>icon-driver-id-20@1x</title>
    <desc>Created with Sketch.</desc>
    <g id="Icon" stroke="none" stroke-width="1" fill="none" fill-rule="evenodd">
        <g id="Index" transform="translate(-720.000000, -320.000000)" fill="#262F36">
            <path d="M724,323 C723.447715,323 723,323.447715 723,324 L723,335 C723,335.552285 723.447715,336 724,336 L735,336 C735.552285,336 736,335.552285 736,335 L736,324 C736,323.447715 735.552285,323 735,323 L724,323 Z M724,322 L735,322 C736.104569,322 737,322.895431 737,324 L737,335 C737,336.104569 736.104569,337 735,337 L724,337 C722.895431,337 722,336.104569 722,335 L722,324 C722,322.895431 722.895431,322 724,322 Z M734,336 C734,334.895431 733.104569,334 732,334 L727,334 C725.895431,334 725,334.895431 725,336 L724,336 C724,334.343146 725.343146,333 727,333 L732,333 C733.656854,333 735,334.343146 735,336 L734,336 Z M729.5,332 C727.567003,332 726,330.432997 726,328.5 C726,326.567003 727.567003,325 729.5,325 C731.432997,325 733,326.567003 733,328.5 C733,330.432997 731.432997,332 729.5,332 Z M729.5,331 C730.880712,331 732,329.880712 732,328.5 C732,327.119288 730.880712,326 729.5,326 C728.119288,326 727,327.119288 727,328.5 C727,329.880712 728.119288,331 729.5,331 Z" id="shape"></path>
        </g>
    </g>
</svg>