<?xml version="1.0" encoding="UTF-8"?>
<svg width="20px" height="20px" viewBox="0 0 20 20" version="1.1" xmlns="http://www.w3.org/2000/svg" xmlns:xlink="http://www.w3.org/1999/xlink">
    <!-- Generator: Sketch 54.1 (76490) - https://sketchapp.com -->
    <title>icon-20-o-battery-low</title>
    <desc>Created with Sketch.</desc>
    <g id="Icon" stroke="none" stroke-width="1" fill="none" fill-rule="evenodd">
        <g id="Index" transform="translate(-920.000000, -414.000000)" fill="#262F36">
            <g id="icon/20/battery-low" transform="translate(920.000000, 414.000000)">
                <path d="M17,8 C17.5522847,8 18,8.44771525 18,9 L18,10 C18,10.5522847 17.5522847,11 17,11 L17,12 C17,13.1045695 16.1045695,14 15,14 L4,14 C2.8954305,14 2,13.1045695 2,12 L2,7 C2,5.8954305 2.8954305,5 4,5 L15,5 C16.1045695,5 17,5.8954305 17,7 L17,8 Z M16,12 L16,7 C16,6.44771525 15.5522847,6 15,6 L4,6 C3.44771525,6 3,6.44771525 3,7 L3,12 C3,12.5522847 3.44771525,13 4,13 L15,13 C15.5522847,13 16,12.5522847 16,12 Z M4.5,7 L5.5,7 C5.77614237,7 6,7.22385763 6,7.5 L6,11.5 C6,11.7761424 5.77614237,12 5.5,12 L4.5,12 C4.22385763,12 4,11.7761424 4,11.5 L4,7.5 C4,7.22385763 4.22385763,7 4.5,7 Z" id="Shape"></path>
            </g>
        </g>
    </g>
</svg>