<?xml version="1.0" encoding="UTF-8"?>
<svg width="20px" height="20px" viewBox="0 0 20 20" version="1.1" xmlns="http://www.w3.org/2000/svg" xmlns:xlink="http://www.w3.org/1999/xlink">
    <!-- Generator: Sketch 52.6 (67491) - http://www.bohemiancoding.com/sketch -->
    <title>icon-overview-20@1x</title>
    <desc>Created with Sketch.</desc>
    <g id="Icon" stroke="none" stroke-width="1" fill="none" fill-rule="evenodd">
        <g id="Index" transform="translate(-80.000000, -240.000000)" fill="#262F36">
            <path d="M89.5,257 C85.3578644,257 82,253.642136 82,249.5 C82,245.357864 85.3578644,242 89.5,242 C93.6421356,242 97,245.357864 97,249.5 C97,253.642136 93.6421356,257 89.5,257 Z M89.5,256 C93.0898509,256 96,253.089851 96,249.5 C96,245.910149 93.0898509,243 89.5,243 C85.9101491,243 83,245.910149 83,249.5 C83,253.089851 85.9101491,256 89.5,256 Z M85,249.5 C85,247.014719 87.0147186,245 89.5,245 C91.9852814,245 94,247.014719 94,249.5 L93,249.5 C93,247.567003 91.4329966,246 89.5,246 C87.5670034,246 86,247.567003 86,249.5 L85,249.5 Z M89,251.085353 L89,248 L90,248 L90,251.085353 C90.5825962,251.291271 91,251.846891 91,252.5 C91,253.328427 90.3284271,254 89.5,254 C88.6715729,254 88,253.328427 88,252.5 C88,251.846891 88.4174038,251.291271 89,251.085353 Z" id="shape"></path>
        </g>
    </g>
</svg>