<?xml version="1.0" encoding="UTF-8"?>
<svg width="20px" height="20px" viewBox="0 0 20 20" version="1.1" xmlns="http://www.w3.org/2000/svg" xmlns:xlink="http://www.w3.org/1999/xlink">
    <!-- Generator: Sketch 52.6 (67491) - http://www.bohemiancoding.com/sketch -->
    <title>icon-apps-20@1x</title>
    <desc>Created with Sketch.</desc>
    <g id="Icon" stroke="none" stroke-width="1" fill="none" fill-rule="evenodd">
        <g id="Index" transform="translate(-800.000000, -240.000000)" fill="#262F36">
            <path d="M814.361508,249.083095 L815.333333,248.5 L815.570845,248.642507 C816.044425,248.926655 816.19799,249.540915 815.913842,250.014496 C815.829393,250.155245 815.711595,250.273043 815.570845,250.357493 L810.014496,253.691303 C809.697813,253.881312 809.302187,253.881312 808.985504,253.691303 L803.429155,250.357493 C802.955575,250.073345 802.80201,249.459085 803.086158,248.985504 C803.170607,248.844755 803.288405,248.726957 803.429155,248.642507 L803.666667,248.5 L804.638492,249.083095 L803.943651,249.5 L809.5,252.83381 L815.056349,249.5 L814.361508,249.083095 Z M814.361508,252.083095 L815.333333,251.5 L815.570845,251.642507 C816.044425,251.926655 816.19799,252.540915 815.913842,253.014496 C815.829393,253.155245 815.711595,253.273043 815.570845,253.357493 L810.014496,256.691303 C809.697813,256.881312 809.302187,256.881312 808.985504,256.691303 L803.429155,253.357493 C802.955575,253.073345 802.80201,252.459085 803.086158,251.985504 C803.170607,251.844755 803.288405,251.726957 803.429155,251.642507 L803.666667,251.5 L804.638492,252.083095 L803.943651,252.5 L809.5,255.83381 L815.056349,252.5 L814.361508,252.083095 Z M803.943651,246.5 L809.5,249.83381 L815.056349,246.5 L809.5,243.16619 L803.943651,246.5 Z M808.985504,242.308697 C809.302187,242.118688 809.697813,242.118688 810.014496,242.308697 L815.570845,245.642507 C816.044425,245.926655 816.19799,246.540915 815.913842,247.014496 C815.829393,247.155245 815.711595,247.273043 815.570845,247.357493 L810.014496,250.691303 C809.697813,250.881312 809.302187,250.881312 808.985504,250.691303 L803.429155,247.357493 C802.955575,247.073345 802.80201,246.459085 803.086158,245.985504 C803.170607,245.844755 803.288405,245.726957 803.429155,245.642507 L808.985504,242.308697 Z" id="shape"></path>
        </g>
    </g>
</svg>