<?xml version="1.0" encoding="UTF-8"?>
<svg width="120px" height="120px" viewBox="0 0 120 120" version="1.1" xmlns="http://www.w3.org/2000/svg" xmlns:xlink="http://www.w3.org/1999/xlink">
    <!-- Generator: Sketch 52.6 (67491) - http://www.bohemiancoding.com/sketch -->
    <title>icon-reports-120</title>
    <desc>Created with Sketch.</desc>
    <g id="Icon" stroke="none" stroke-width="1" fill="none" fill-rule="evenodd">
        <g id="Index" transform="translate(-560.000000, -880.000000)" fill="#262F36">
            <path d="M620,983 C643.748244,983 663,963.748244 663,940 C663,916.251756 643.748244,897 620,897 C596.251756,897 577,916.251756 577,940 C577,963.748244 596.251756,983 620,983 Z M620,985 C595.147186,985 575,964.852814 575,940 C575,915.147186 595.147186,895 620,895 C644.852814,895 665,915.147186 665,940 C665,964.852814 644.852814,985 620,985 Z M608,917 L608,957 L638,957 L638,927 L630,927 C628.895431,927 628,926.104569 628,925 L628,917 L608,917 Z M637.171573,925 L630,917.828427 L630,925 L637.171573,925 Z M608,915 L630,915 L640,925 L640,957 C640,958.104569 639.104569,959 638,959 L608,959 C606.895431,959 606,958.104569 606,957 L606,917 C606,915.895431 606.895431,915 608,915 Z M614,925 L624,925 L624,927 L614,927 L614,925 Z M614,947 L632,947 L632,949 L614,949 L614,947 Z M614,936 L632,936 L632,938 L614,938 L614,936 Z M632,961 L634,961 L634,963 C634,964.104569 633.104569,965 632,965 L602,965 C600.895431,965 600,964.104569 600,963 L600,923 C600,921.895431 600.895431,921 602,921 L604,921 L604,923 L602,923 L602,963 L632,963 L632,961 Z" id="shape"></path>
        </g>
    </g>
</svg>