<?xml version="1.0" encoding="UTF-8"?>
<svg width="120px" height="120px" viewBox="0 0 120 120" version="1.1" xmlns="http://www.w3.org/2000/svg" xmlns:xlink="http://www.w3.org/1999/xlink">
    <!-- Generator: Sketch 52.6 (67491) - http://www.bohemiancoding.com/sketch -->
    <title>icon-video-pending-120</title>
    <desc>Created with Sketch.</desc>
    <g id="Icon" stroke="none" stroke-width="1" fill="none" fill-rule="evenodd">
        <g id="Index" transform="translate(-200.000000, -1000.000000)" fill="#262F36">
            <path d="M280.818551,1020.09489 C280.490237,1020.67284 280.201866,1021.27643 279.957191,1021.90193 C273.993002,1018.77123 267.203348,1017 260,1017 C236.251756,1017 217,1036.25176 217,1060 C217,1083.74824 236.251756,1103 260,1103 C283.748244,1103 303,1083.74824 303,1060 C303,1052.79665 301.228765,1046.007 298.098067,1040.04281 C298.723567,1039.79813 299.327164,1039.50976 299.905105,1039.18145 C303.159594,1045.4069 305,1052.48852 305,1060 C305,1084.85281 284.852814,1105 260,1105 C235.147186,1105 215,1084.85281 215,1060 C215,1035.14719 235.147186,1015 260,1015 C267.511475,1015 274.5931,1016.84041 280.818551,1020.09489 Z M293,1039 C286.372583,1039 281,1033.62742 281,1027 C281,1020.37258 286.372583,1015 293,1015 C299.627417,1015 305,1020.37258 305,1027 C305,1033.62742 299.627417,1039 293,1039 Z M293,1037 C298.522847,1037 303,1032.52285 303,1027 C303,1021.47715 298.522847,1017 293,1017 C287.477153,1017 283,1021.47715 283,1027 C283,1032.52285 287.477153,1037 293,1037 Z M278.742828,1060.45631 C278.819171,1060.41184 278.883437,1060.34699 278.928717,1060.26785 C279.074526,1060.01301 278.987664,1059.6859 278.742828,1059.54327 L248.743185,1042.06609 C248.668602,1042.02264 248.584867,1042 248.49997,1042 C248.227901,1042 248,1042.22997 248,1042.52261 L248,1077.47697 C248,1077.57155 248.024588,1077.66415 248.070866,1077.74503 C248.210638,1077.98931 248.508926,1078.06996 248.743185,1077.93349 L278.742828,1060.45631 Z M249.749955,1079.66161 C248.554238,1080.35821 247.02528,1079.94482 246.334932,1078.73827 C246.115514,1078.35479 246,1077.91978 246,1077.47697 L246,1042.52261 C246,1041.12941 247.119275,1040 248.49997,1040 C248.938807,1040 249.369912,1040.11656 249.749955,1040.33797 L279.749597,1057.81514 C280.945315,1058.51174 281.354998,1060.05455 280.66465,1061.2611 C280.445232,1061.64458 280.129641,1061.96303 279.749597,1062.18444 L249.749955,1079.66161 Z M294,1026 L299,1026 L299,1028 L292,1028 L292,1020 L294,1020 L294,1026 Z" id="shape"></path>
        </g>
    </g>
</svg>