<?xml version="1.0" encoding="UTF-8"?>
<svg width="20px" height="20px" viewBox="0 0 20 20" version="1.1" xmlns="http://www.w3.org/2000/svg" xmlns:xlink="http://www.w3.org/1999/xlink">
    <!-- Generator: Sketch 52.6 (67491) - http://www.bohemiancoding.com/sketch -->
    <title>icon-compass-20@1x</title>
    <desc>Created with Sketch.</desc>
    <g id="Icon" stroke="none" stroke-width="1" fill="none" fill-rule="evenodd">
        <g id="Index" transform="translate(-920.000000, -240.000000)" fill="#262F36">
            <path d="M929.5,257 C925.357864,257 922,253.642136 922,249.5 C922,245.357864 925.357864,242 929.5,242 C933.642136,242 937,245.357864 937,249.5 C937,253.642136 933.642136,257 929.5,257 Z M929.5,256 C933.089851,256 936,253.089851 936,249.5 C936,245.910149 933.089851,243 929.5,243 C925.910149,243 923,245.910149 923,249.5 C923,253.089851 925.910149,256 929.5,256 Z M932.25,244.73686 L931.232051,250.5 L926.75,254.26314 L927.767949,248.5 L932.25,244.73686 Z M929.5,250.25 C929.914214,250.25 930.25,249.914214 930.25,249.5 C930.25,249.085786 929.914214,248.75 929.5,248.75 C929.085786,248.75 928.75,249.085786 928.75,249.5 C928.75,249.914214 929.085786,250.25 929.5,250.25 Z" id="shape"></path>
        </g>
    </g>
</svg>