<?xml version="1.0" encoding="UTF-8"?>
<svg width="20px" height="20px" viewBox="0 0 20 20" version="1.1" xmlns="http://www.w3.org/2000/svg" xmlns:xlink="http://www.w3.org/1999/xlink">
    <!-- Generator: Sketch 52.6 (67491) - http://www.bohemiancoding.com/sketch -->
    <title>icon-coaching-locked-20@1x</title>
    <desc>Created with Sketch.</desc>
    <g id="Icon" stroke="none" stroke-width="1" fill="none" fill-rule="evenodd">
        <g id="Index" transform="translate(-640.000000, -280.000000)" fill="#262F36">
            <path d="M642,283.5 L649.5,281.5 L657,283.5 L657,286.5 C657,289.5 656.333333,291.833333 655,293.5 C653.666667,295.166667 651.833333,296.5 649.5,297.5 C647.166667,296.5 645.333333,295.166667 644,293.5 C642.666667,291.833333 642,289.5 642,286.5 L642,283.5 Z M643,284.268278 L643,286.5 C643,289.289549 643.604298,291.404591 644.780869,292.875305 C645.931837,294.314016 647.500654,295.491572 649.5,296.4064 C651.499346,295.491572 653.068163,294.314016 654.219131,292.875305 C655.395702,291.404591 656,289.289549 656,286.5 L656,284.268278 L649.5,282.534945 L643,284.268278 Z M647,287 L647,286.5 C647,285.119288 648.119288,284 649.5,284 C650.880712,284 652,285.119288 652,286.5 L652,287 C652.552285,287 653,287.447715 653,288 L653,292 C653,292.552285 652.552285,293 652,293 L647,293 C646.447715,293 646,292.552285 646,292 L646,288 C646,287.447715 646.447715,287 647,287 Z M648,287 L651,287 L651,286.5 C651,285.671573 650.328427,285 649.5,285 C648.671573,285 648,285.671573 648,286.5 L648,287 Z M647,288 L647,292 L652,292 L652,288 L647,288 Z" id="shape"></path>
        </g>
    </g>
</svg>