<?xml version="1.0" encoding="UTF-8"?>
<svg width="20px" height="20px" viewBox="0 0 20 20" version="1.1" xmlns="http://www.w3.org/2000/svg" xmlns:xlink="http://www.w3.org/1999/xlink">
    <!-- Generator: Sketch 52.6 (67491) - http://www.bohemiancoding.com/sketch -->
    <title>Artboard</title>
    <desc>Created with Sketch.</desc>
    <g id="Artboard" stroke="none" stroke-width="1" fill="none" fill-rule="evenodd">
        <g id="icon/20/logs" fill="#262F36">
            <g id="shape">
                <path d="M4,4 L4,15 C4,15.5522847 4.44771525,16 5,16 L14,16 C14.5522847,16 15,15.5522847 15,15 L15,4 C15,3.44771525 14.5522847,3 14,3 L5,3 C4.44771525,3 4,3.44771525 4,4 Z M3,13 L2,13 L2,12 L3,12 L3,10 L2,10 L2,9 L3,9 L3,7 L2,7 L2,6 L3,6 L3,4 C3,2.8954305 3.8954305,2 5,2 L14,2 C15.1045695,2 16,2.8954305 16,4 L16,15 C16,16.1045695 15.1045695,17 14,17 L5,17 C3.8954305,17 3,16.1045695 3,15 L3,13 Z M6,6 L13,6 L13,7 L6,7 L6,6 Z M6,9 L13,9 L13,10 L6,10 L6,9 Z M6,12 L13,12 L13,13 L6,13 L6,12 Z"></path>
            </g>
        </g>
    </g>
</svg>