<?xml version="1.0" encoding="UTF-8"?>
<svg width="120px" height="120px" viewBox="0 0 120 120" version="1.1" xmlns="http://www.w3.org/2000/svg" xmlns:xlink="http://www.w3.org/1999/xlink">
    <!-- Generator: Sketch 54.1 (76490) - https://sketchapp.com -->
    <title>icon-trailer-120</title>
    <desc>Created with Sketch.</desc>
    <g id="Icon" stroke="none" stroke-width="1" fill="none" fill-rule="evenodd">
        <g id="Index" transform="translate(-320.000000, -1120.000000)" fill="#262F36">
            <path d="M380,1225 C355.147186,1225 335,1204.85281 335,1180 C335,1155.14719 355.147186,1135 380,1135 C404.852814,1135 425,1155.14719 425,1180 C425,1204.85281 404.852814,1225 380,1225 Z M380,1223 C403.748244,1223 423,1203.74824 423,1180 C423,1156.25176 403.748244,1137 380,1137 C356.251756,1137 337,1156.25176 337,1180 C337,1203.74824 356.251756,1223 380,1223 Z M407,1167 L355,1167 C353.895431,1167 353,1167.89543 353,1169 L353,1191 L356.100018,1191 C356.563288,1188.71776 358.581042,1187 361,1187 C363.418958,1187 365.436712,1188.71776 365.899982,1191 L368.100018,1191 C368.563288,1188.71776 370.581042,1187 373,1187 C375.418958,1187 377.436712,1188.71776 377.899982,1191 L407,1191 L407,1167 Z M407,1193 L377.899982,1193 C377.436712,1195.28224 375.418958,1197 373,1197 C370.581042,1197 368.563288,1195.28224 368.100018,1193 L365.899982,1193 C365.436712,1195.28224 363.418958,1197 361,1197 C358.581042,1197 356.563288,1195.28224 356.100018,1193 L353,1193 C351.895431,1193 351,1192.10457 351,1191 L351,1169 C351,1166.79086 352.790861,1165 355,1165 L407,1165 C408.104569,1165 409,1165.89543 409,1167 L409,1191 C409,1192.10457 408.104569,1193 407,1193 Z M361,1195 C362.656854,1195 364,1193.65685 364,1192 C364,1190.34315 362.656854,1189 361,1189 C359.343146,1189 358,1190.34315 358,1192 C358,1193.65685 359.343146,1195 361,1195 Z M373,1195 C374.656854,1195 376,1193.65685 376,1192 C376,1190.34315 374.656854,1189 373,1189 C371.343146,1189 370,1190.34315 370,1192 C370,1193.65685 371.343146,1195 373,1195 Z" id="Shape"></path>
        </g>
    </g>
</svg>