<?xml version="1.0" encoding="UTF-8"?>
<svg width="20px" height="20px" viewBox="0 0 20 20" version="1.1" xmlns="http://www.w3.org/2000/svg" xmlns:xlink="http://www.w3.org/1999/xlink">
    <!-- Generator: Sketch 52.6 (67491) - http://www.bohemiancoding.com/sketch -->
    <title>icon-16-hour-exception-20@1x</title>
    <desc>Created with Sketch.</desc>
    <g id="Icon" stroke="none" stroke-width="1" fill="none" fill-rule="evenodd">
        <g id="Index" transform="translate(-400.000000, -360.000000)" fill="#262F36">
            <path d="M409,376.983598 C405.090984,376.726305 402,373.474121 402,369.5 C402,365.357864 405.357864,362 409.5,362 C413.642136,362 417,365.357864 417,369.5 C417,369.668014 416.994475,369.834738 416.983598,370 L415.981055,370 C415.993609,369.834979 416,369.668236 416,369.5 C416,365.910149 413.089851,363 409.5,363 C405.910149,363 403,365.910149 403,369.5 C403,372.921615 405.643776,375.725743 409,375.981055 L409,376.983598 Z M408.085353,369 C408.235995,368.573793 408.573793,368.235995 409,368.085353 L409,365 L410,365 L410,368.085353 C410.582596,368.291271 411,368.846891 411,369.5 C411,370.328427 410.328427,371 409.5,371 C408.846891,371 408.291271,370.582596 408.085353,370 L405,370 L405,369 L408.085353,369 Z M412.478027,377.055176 L411.421875,377.055176 L411.421875,374.163574 L411.432129,373.688477 L411.449219,373.168945 C411.273762,373.344402 411.151856,373.459472 411.083496,373.51416 L410.509277,373.975586 L410,373.339844 L411.609863,372.058105 L412.478027,372.058105 L412.478027,377.055176 Z M413.328125,374.932617 C413.328125,373.94368 413.537189,373.207685 413.955322,372.724609 C414.373456,372.241534 414.999508,372 415.833496,372 C416.118328,372 416.341633,372.01709 416.503418,372.05127 L416.503418,372.895508 C416.300617,372.849935 416.100099,372.827148 415.901855,372.827148 C415.539549,372.827148 415.243898,372.881835 415.014893,372.991211 C414.785888,373.100586 414.614421,373.262369 414.500488,373.476562 C414.386555,373.690756 414.319336,373.994952 414.298828,374.38916 L414.343262,374.38916 C414.568849,374.001788 414.930011,373.808105 415.426758,373.808105 C415.873375,373.808105 416.223143,373.948241 416.476074,374.228516 C416.729005,374.50879 416.855469,374.896156 416.855469,375.390625 C416.855469,375.923831 416.70508,376.345946 416.404297,376.656982 C416.103514,376.968019 415.686526,377.123535 415.15332,377.123535 C414.784178,377.123535 414.462322,377.038087 414.187744,376.867188 C413.913166,376.696288 413.701254,376.446779 413.552002,376.118652 C413.40275,375.790526 413.328125,375.395185 413.328125,374.932617 Z M415.132812,376.279297 C415.3584,376.279297 415.531575,376.203533 415.652344,376.052002 C415.773113,375.900471 415.833496,375.684572 415.833496,375.404297 C415.833496,375.160481 415.7771,374.968507 415.664307,374.828369 C415.551513,374.688232 415.381186,374.618164 415.15332,374.618164 C414.939127,374.618164 414.756267,374.687662 414.604736,374.82666 C414.453206,374.965658 414.377441,375.12744 414.377441,375.312012 C414.377441,375.583172 414.448648,375.812174 414.591064,375.999023 C414.733481,376.185873 414.914061,376.279297 415.132812,376.279297 Z" id="shape"></path>
        </g>
    </g>
</svg>