<?xml version="1.0" encoding="UTF-8"?>
<svg width="20px" height="20px" viewBox="0 0 20 20" version="1.1" xmlns="http://www.w3.org/2000/svg" xmlns:xlink="http://www.w3.org/1999/xlink">
    <!-- Generator: Sketch 54.1 (76490) - https://sketchapp.com -->
    <title>icon-20-o-devices</title>
    <desc>Created with Sketch.</desc>
    <g id="Icon" stroke="none" stroke-width="1" fill="none" fill-rule="evenodd">
        <g id="Index" transform="translate(-760.000000, -414.000000)" fill="#262F36">
            <g id="icon/20/devices" transform="translate(760.000000, 414.000000)">
                <path d="M6,3 C6,2.44771525 6.44771525,2 7,2 L10,2 C10.5522847,2 11,2.44771525 11,3 L13,3 C14.1045695,3 15,3.8954305 15,5 L15,6 L14,6 L14,5 C14,4.44771525 13.5522847,4 13,4 L4,4 C3.44771525,4 3,4.44771525 3,5 L3,13 C3,13.5522847 3.44771525,14 4,14 L7,14 L7,15 L4,15 C2.8954305,15 2,14.1045695 2,13 L2,5 C2,3.8954305 2.8954305,3 4,3 L6,3 Z M5,8 L7,8 L7,10 L5,10 L5,8 Z M10,8 C9.44771525,8 9,8.44771525 9,9 L9,14 C9,14.5522847 9.44771525,15 10,15 L15,15 C15.5522847,15 16,14.5522847 16,14 L16,9 C16,8.44771525 15.5522847,8 15,8 L10,8 Z M10,7 L15,7 C16.1045695,7 17,7.8954305 17,9 L17,14 C17,15.1045695 16.1045695,16 15,16 L10,16 C8.8954305,16 8,15.1045695 8,14 L8,9 C8,7.8954305 8.8954305,7 10,7 Z M11,8 L11,10 C11,10.5522847 11.4477153,11 12,11 L13,11 C13.5522847,11 14,10.5522847 14,10 L14,8 L15,8 L15,10 C15,11.1045695 14.1045695,12 13,12 L12,12 C10.8954305,12 10,11.1045695 10,10 L10,8 L11,8 Z M12.5,10.25 C12.0857864,10.25 11.75,9.91421356 11.75,9.5 C11.75,9.08578644 12.0857864,8.75 12.5,8.75 C12.9142136,8.75 13.25,9.08578644 13.25,9.5 C13.25,9.91421356 12.9142136,10.25 12.5,10.25 Z" id="Shape"></path>
            </g>
        </g>
    </g>
</svg>