<?xml version="1.0" encoding="UTF-8"?>
<svg width="20px" height="20px" viewBox="0 0 20 20" version="1.1" xmlns="http://www.w3.org/2000/svg" xmlns:xlink="http://www.w3.org/1999/xlink">
    <!-- Generator: Sketch 54.1 (76490) - https://sketchapp.com -->
    <title>icon-facility-filled-20@1x</title>
    <desc>Created with Sketch.</desc>
    <g id="Icon" stroke="none" stroke-width="1" fill="none" fill-rule="evenodd">
        <g id="Index" transform="translate(-520.000000, -1430.000000)" fill="#262F36">
            <path d="M522,1446 L522,1435.67703 C522,1435.26813 522.248951,1434.90042 522.628609,1434.74856 L529.128609,1432.14856 C529.36702,1432.05319 529.63298,1432.05319 529.871391,1432.14856 L536.371391,1434.74856 C536.751049,1434.90042 537,1435.26813 537,1435.67703 L537,1446 L538,1446 L538,1447 L521,1447 L521,1446 L522,1446 Z M533,1444 L526,1444 L526,1443 L533,1443 L533,1444 Z M533,1445 L533,1446 L534,1446 L534,1441 C534,1440.44772 533.552285,1440 533,1440 L526,1440 C525.447715,1440 525,1440.44772 525,1441 L525,1446 L526,1446 L526,1445 L533,1445 Z M533,1442 L526,1442 L526,1441 L533,1441 L533,1442 Z M525,1437 L525,1438 L528,1438 L528,1437 L525,1437 Z M531,1437 L531,1438 L534,1438 L534,1437 L531,1437 Z" id="Shape"></path>
        </g>
    </g>
</svg>