<?xml version="1.0" encoding="UTF-8"?>
<svg width="120px" height="120px" viewBox="0 0 120 120" version="1.1" xmlns="http://www.w3.org/2000/svg" xmlns:xlink="http://www.w3.org/1999/xlink">
    <!-- Generator: Sketch 52.6 (67491) - http://www.bohemiancoding.com/sketch -->
    <title>icon-driver-add-120</title>
    <desc>Created with Sketch.</desc>
    <g id="Icon" stroke="none" stroke-width="1" fill="none" fill-rule="evenodd">
        <g id="Index" transform="translate(-800.000000, -520.000000)" fill="#262F36">
            <path d="M898.098067,560.042809 C898.723567,559.798134 899.327164,559.509763 899.905105,559.181449 C903.159594,565.4069 905,572.488525 905,580 C905,604.852814 884.852814,625 860,625 C835.147186,625 815,604.852814 815,580 C815,555.147186 835.147186,535 860,535 C867.511475,535 874.5931,536.840406 880.818551,540.094895 C880.490237,540.672836 880.201866,541.276433 879.957191,541.901933 C873.993002,538.771235 867.203348,537 860,537 C836.251756,537 817,556.251756 817,580 C817,593.54947 823.266888,605.635229 833.060229,613.516844 C833.814431,604.26953 841.558271,597 851,597 L869,597 C878.441729,597 886.185569,604.26953 886.939771,613.516844 C896.733112,605.635229 903,593.54947 903,580 C903,572.796652 901.228765,566.006998 898.098067,560.042809 Z M835.000003,614.989794 C842.0448,620.032242 850.675822,623 860,623 C869.324178,623 877.9552,620.032242 884.999997,614.989794 C884.994483,606.157929 877.833154,599 869,599 L851,599 C842.166846,599 835.005517,606.157929 835.000003,614.989794 Z M860,591 C869.388841,591 877,583.388841 877,574 C877,564.611159 869.388841,557 860,557 C850.611159,557 843,564.611159 843,574 C843,583.388841 850.611159,591 860,591 Z M860,593 C849.50659,593 841,584.49341 841,574 C841,563.50659 849.50659,555 860,555 C870.49341,555 879,563.50659 879,574 C879,584.49341 870.49341,593 860,593 Z M893,559 C886.372583,559 881,553.627417 881,547 C881,540.372583 886.372583,535 893,535 C899.627417,535 905,540.372583 905,547 C905,553.627417 899.627417,559 893,559 Z M893,557 C898.522847,557 903,552.522847 903,547 C903,541.477153 898.522847,537 893,537 C887.477153,537 883,541.477153 883,547 C883,552.522847 887.477153,557 893,557 Z M892,548 L887,548 L887,546 L892,546 L892,541 L894,541 L894,546 L899,546 L899,548 L894,548 L894,553 L892,553 L892,548 Z" id="shape"></path>
        </g>
    </g>
</svg>