<?xml version="1.0" encoding="UTF-8"?>
<svg width="20px" height="20px" viewBox="0 0 20 20" version="1.1" xmlns="http://www.w3.org/2000/svg" xmlns:xlink="http://www.w3.org/1999/xlink">
    <!-- Generator: Sketch 52.6 (67491) - http://www.bohemiancoding.com/sketch -->
    <title>icon-app-android-filled-20</title>
    <desc>Created with Sketch.</desc>
    <g id="Icon" stroke="none" stroke-width="1" fill="none" fill-rule="evenodd">
        <g id="Index" transform="translate(-200.000000, -1280.000000)" fill="#262F36">
            <path d="M211.106119,1284.64 C211.236126,1284.64308 211.361451,1284.59176 211.451471,1284.49855 C211.541491,1284.40535 211.587913,1284.27887 211.579395,1284.15 C211.606403,1283.96759 211.523525,1283.78635 211.36745,1283.68651 C211.211375,1283.58667 211.010932,1283.58667 210.854857,1283.68651 C210.698782,1283.78635 210.615904,1283.96759 210.642912,1284.15 C210.631376,1284.27787 210.675388,1284.40455 210.763871,1284.49815 C210.852355,1284.59175 210.976884,1284.64337 211.106119,1284.64 Z M207.843533,1284.64 C207.972768,1284.64337 208.097297,1284.59175 208.18578,1284.49815 C208.274264,1284.40455 208.318275,1284.27787 208.30674,1284.15 C208.333748,1283.96759 208.250869,1283.78635 208.094794,1283.68651 C207.93872,1283.58667 207.738277,1283.58667 207.582202,1283.68651 C207.426127,1283.78635 207.343248,1283.96759 207.370257,1284.15 C207.361738,1284.27887 207.408161,1284.40535 207.498181,1284.49855 C207.588201,1284.59176 207.713526,1284.64308 207.843533,1284.64 Z M215.013165,1286 L215.063514,1286 C215.591948,1286.03682 216.001296,1286.47394 215.999997,1287 L215.999997,1291.55 C216.001296,1292.07606 215.591948,1292.51318 215.063514,1292.55 L215.013165,1292.55 C214.754811,1292.54507 214.509719,1292.43546 214.334766,1292.24661 C214.159813,1292.05776 214.070211,1291.80609 214.086752,1291.55 L214.086752,1286.92 C214.097433,1286.41636 214.506011,1286.01061 215.013165,1286 Z M203.865998,1286 L203.936486,1286 C204.19484,1286.00493 204.439933,1286.11454 204.614885,1286.30339 C204.789838,1286.49224 204.879441,1286.74391 204.862899,1287 L204.862899,1291.55 C204.879441,1291.80609 204.789838,1292.05776 204.614885,1292.24661 C204.439933,1292.43546 204.19484,1292.54507 203.936486,1292.55 C203.408052,1292.51318 202.998704,1292.07606 203.000003,1291.55 L203.000003,1286.92 C203.033547,1286.44867 203.394717,1286.06498 203.865998,1286 Z M205.406663,1292.4 C205.316036,1291.09 205.406663,1286.53 205.406663,1286.53 L213.593337,1286.53 L213.593337,1292.98 C213.53516,1293.5065 213.116538,1293.92223 212.586366,1293.98 L212.586366,1296 C212.587665,1296.52606 212.178316,1296.96318 211.649883,1297 C211.121449,1296.96318 210.712101,1296.52606 210.7134,1296 L210.7134,1294 L208.256391,1294 L208.256391,1296 C208.273004,1296.2578 208.182053,1296.51102 208.004904,1296.70019 C207.827756,1296.88935 207.580024,1296.99778 207.319908,1297 C206.791475,1296.96318 206.382126,1296.52606 206.383425,1296 L206.383425,1293.9 C205.788682,1293.60855 205.410615,1293.00861 205.406663,1292.35 L205.406663,1292.4 Z M207.470954,1282.44 C208.085015,1282.11194 208.778732,1281.95962 209.474826,1282 C210.177157,1281.9669 210.874796,1282.12971 211.488767,1282.47 L212.284274,1281 L212.697132,1281.24 L211.891556,1282.7 C212.948345,1283.47427 213.578328,1284.6959 213.593337,1286 C208.820295,1286 207.048026,1286 205.356315,1286 C205.398096,1284.70262 206.022443,1283.49192 207.058096,1282.7 L206.252519,1281.24 L206.665377,1281 L207.470954,1282.44 Z" id="shape"></path>
        </g>
    </g>
</svg>