<?xml version="1.0" encoding="UTF-8"?>
<svg width="20px" height="20px" viewBox="0 0 20 20" version="1.1" xmlns="http://www.w3.org/2000/svg" xmlns:xlink="http://www.w3.org/1999/xlink">
    <!-- Generator: Sketch 52.6 (67491) - http://www.bohemiancoding.com/sketch -->
    <title>Artboard Copy 3</title>
    <desc>Created with Sketch.</desc>
    <g id="Artboard-Copy-3" stroke="none" stroke-width="1" fill="none" fill-rule="evenodd">
        <g id="icon/20/scorecards-filled" fill="#262F36">
            <g id="shape">
                <path d="M14.8158058,8.91674372 C14.2321956,11.1121925 12.3246369,12.7680942 10,12.9775785 L10,16 L14,16 L14,17 L5,17 L5,16 L9,16 L9,12.9775785 C6.67536314,12.7680942 4.76780439,11.1121925 4.18419421,8.91674372 C2.36628256,8.54004384 1,6.92957812 1,5 C1,3.8954305 1.8954305,3 3,3 L4.26756439,3 C4.61337381,2.40219863 5.25971764,2 6,2 L13,2 C13.7402824,2 14.3866262,2.40219863 14.7324356,3 L16,3 C17.1045695,3 18,3.8954305 18,5 C18,6.92957812 16.6337174,8.54004384 14.8158058,8.91674372 Z M14.9900984,7.83277439 C16.1604601,7.42374671 17,6.30991588 17,5 C17,4.44771525 16.5522847,4 16,4 L15,4 L15,7.5 C15,7.61173431 14.9966681,7.72269042 14.9900984,7.83277439 Z M4.00990163,7.83277439 C4.00333186,7.72269042 4,7.61173431 4,7.5 L4,4 L3,4 C2.44771525,4 2,4.44771525 2,5 C2,6.30991588 2.83953991,7.42374671 4.00990163,7.83277439 Z"></path>
            </g>
        </g>
    </g>
</svg>