<?xml version="1.0" encoding="UTF-8"?>
<svg width="120px" height="120px" viewBox="0 0 120 120" version="1.1" xmlns="http://www.w3.org/2000/svg" xmlns:xlink="http://www.w3.org/1999/xlink">
    <!-- Generator: Sketch 54.1 (76490) - https://sketchapp.com -->
    <title>icon-assets-120</title>
    <desc>Created with Sketch.</desc>
    <g id="Icon" stroke="none" stroke-width="1" fill="none" fill-rule="evenodd">
        <g id="Index" transform="translate(-80.000000, -1120.000000)" fill="#262F36">
            <path d="M140,1225 C115.147186,1225 95,1204.85281 95,1180 C95,1155.14719 115.147186,1135 140,1135 C164.852814,1135 185,1155.14719 185,1180 C185,1204.85281 164.852814,1225 140,1225 Z M140,1223 C163.748244,1223 183,1203.74824 183,1180 C183,1156.25176 163.748244,1137 140,1137 C116.251756,1137 97,1156.25176 97,1180 C97,1203.74824 116.251756,1223 140,1223 Z M137.899982,1191 L146,1191 L146,1167 L115,1167 C113.895431,1167 113,1167.89543 113,1169 L113,1191 L116.100018,1191 C116.563288,1188.71776 118.581042,1187 121,1187 C123.418958,1187 125.436712,1188.71776 125.899982,1191 L128.100018,1191 C128.563288,1188.71776 130.581042,1187 133,1187 C135.418958,1187 137.436712,1188.71776 137.899982,1191 L137.899982,1191 Z M128.100018,1193 L125.899982,1193 C125.436712,1195.28224 123.418958,1197 121,1197 C118.581042,1197 116.563288,1195.28224 116.100018,1193 L113,1193 C111.895431,1193 111,1192.10457 111,1191 L111,1169 C111,1166.79086 112.790861,1165 115,1165 L146,1165 C147.104569,1165 148,1165.89543 148,1167 L148,1191 C148,1192.10457 147.104569,1193 146,1193 L137.899982,1193 C137.436712,1195.28224 135.418958,1197 133,1197 C130.581042,1197 128.563288,1195.28224 128.100018,1193 Z M155.100018,1193 L152,1193 C150.895431,1193 150,1192.10457 150,1191 L150,1175 C150,1173.89543 150.895431,1173 152,1173 L159.775814,1173 C160.876329,1173 161.928227,1173.45342 162.683867,1174.25351 L168.908053,1180.84382 C169.609322,1181.58634 170,1182.56898 170,1183.59031 L170,1191 C170,1192.10457 169.104569,1193 168,1193 L164.899982,1193 C164.436712,1195.28224 162.418958,1197 160,1197 C157.581042,1197 155.563288,1195.28224 155.100018,1193 Z M155.100018,1191 C155.563288,1188.71776 157.581042,1187 160,1187 C162.418958,1187 164.436712,1188.71776 164.899982,1191 L168,1191 L168,1183.59031 C168,1183.07965 167.804661,1182.58833 167.454026,1182.21707 L161.22984,1175.62675 C160.852021,1175.22671 160.326071,1175 159.775814,1175 L152,1175 L152,1191 L155.100018,1191 Z M121,1195 C122.656854,1195 124,1193.65685 124,1192 C124,1190.34315 122.656854,1189 121,1189 C119.343146,1189 118,1190.34315 118,1192 C118,1193.65685 119.343146,1195 121,1195 Z M133,1195 C134.656854,1195 136,1193.65685 136,1192 C136,1190.34315 134.656854,1189 133,1189 C131.343146,1189 130,1190.34315 130,1192 C130,1193.65685 131.343146,1195 133,1195 Z M160,1195 C161.656854,1195 163,1193.65685 163,1192 C163,1190.34315 161.656854,1189 160,1189 C158.343146,1189 157,1190.34315 157,1192 C157,1193.65685 158.343146,1195 160,1195 Z" id="Shape"></path>
        </g>
    </g>
</svg>