<?xml version="1.0" encoding="UTF-8"?>
<svg width="20px" height="20px" viewBox="0 0 20 20" version="1.1" xmlns="http://www.w3.org/2000/svg" xmlns:xlink="http://www.w3.org/1999/xlink">
    <!-- Generator: Sketch 52.6 (67491) - http://www.bohemiancoding.com/sketch -->
    <title>icon-coaching-uncoachable-20@1x</title>
    <desc>Created with Sketch.</desc>
    <g id="Icon" stroke="none" stroke-width="1" fill="none" fill-rule="evenodd">
        <g id="Index" transform="translate(-520.000000, -280.000000)" fill="#262F36">
            <path d="M522,283.5 L529.5,281.5 L537,283.5 L537,286.5 C537,289.5 536.333333,291.833333 535,293.5 C533.666667,295.166667 531.833333,296.5 529.5,297.5 C527.166667,296.5 525.333333,295.166667 524,293.5 C522.666667,291.833333 522,289.5 522,286.5 L522,283.5 Z M523,284.268278 L523,286.5 C523,289.289549 523.604298,291.404591 524.780869,292.875305 C525.931837,294.314016 527.500654,295.491572 529.5,296.4064 C531.499346,295.491572 533.068163,294.314016 534.219131,292.875305 C535.395702,291.404591 536,289.289549 536,286.5 L536,284.268278 L529.5,282.534945 L523,284.268278 Z M530.205534,288.998427 L532.326854,291.119747 L531.619747,291.826854 L529.498427,289.705534 L527.377107,291.826854 L526.67,291.119747 L528.79132,288.998427 L526.67,286.877107 L527.377107,286.17 L529.498427,288.29132 L531.619747,286.17 L532.326854,286.877107 L530.205534,288.998427 Z" id="shape"></path>
        </g>
    </g>
</svg>