<?xml version="1.0" encoding="UTF-8"?>
<svg width="20px" height="20px" viewBox="0 0 20 20" version="1.1" xmlns="http://www.w3.org/2000/svg" xmlns:xlink="http://www.w3.org/1999/xlink">
    <!-- Generator: Sketch 52.6 (67491) - http://www.bohemiancoding.com/sketch -->
    <title>icon-message-send-20@1x</title>
    <desc>Created with Sketch.</desc>
    <g id="Icon" stroke="none" stroke-width="1" fill="none" fill-rule="evenodd">
        <g id="Index" transform="translate(-1040.000000, -320.000000)" fill="#262F36">
            <path d="M1044.52709,329 L1049,329 L1049,330 L1044.52699,330 L1043.00555,334.829496 C1042.99724,334.855899 1042.9988,334.883624 1043.01031,334.909564 C1043.04313,334.983521 1043.14633,335.023374 1043.23676,334.985102 L1055.90901,329.621715 C1055.94736,329.605482 1055.97564,329.577862 1055.9897,329.546178 C1056.01699,329.484656 1055.98722,329.411098 1055.90901,329.377996 L1043.23676,324.01461 C1043.19712,323.997831 1043.15137,323.995361 1043.1095,324.007944 C1043.02497,324.033349 1042.98542,324.106305 1043.00555,324.170215 L1044.52709,329 Z M1043.62653,323.093696 L1056.29878,328.457083 C1056.88842,328.706643 1057.15929,329.375816 1056.90377,329.951724 C1056.78626,330.216589 1056.56996,330.427854 1056.29878,330.542629 L1043.62653,335.906015 C1043.03689,336.155575 1042.35175,335.891018 1042.09624,335.315111 C1041.98599,335.066626 1041.97022,334.787859 1042.05176,334.529023 L1043.63611,329.499856 L1042.05176,324.470688 C1041.86278,323.870789 1042.20749,323.23484 1042.82169,323.050256 C1043.0867,322.970614 1043.37212,322.986019 1043.62653,323.093696 Z" id="shape"></path>
        </g>
    </g>
</svg>