<?xml version="1.0" encoding="UTF-8"?>
<svg width="20px" height="20px" viewBox="0 0 20 20" version="1.1" xmlns="http://www.w3.org/2000/svg" xmlns:xlink="http://www.w3.org/1999/xlink">
    <!-- Generator: Sketch 52.6 (67491) - http://www.bohemiancoding.com/sketch -->
    <title>icon-printer-20@1x</title>
    <desc>Created with Sketch.</desc>
    <g id="Icon" stroke="none" stroke-width="1" fill="none" fill-rule="evenodd">
        <g id="Index" transform="translate(-600.000000, -320.000000)" fill="#262F36">
            <path d="M605,336 L603,336 C602.447715,336 602,335.552285 602,335 L602,328 C602,326.895431 602.895431,326 604,326 L605,326 L605,323 C605,322.447715 605.447715,322 606,322 L613,322 C613.552285,322 614,322.447715 614,323 L614,326 L615,326 C616.104569,326 617,326.895431 617,328 L617,335 C617,335.552285 616.552285,336 616,336 L614,336 L614,337 C614,337.552285 613.552285,338 613,338 L606,338 C605.447715,338 605,337.552285 605,337 L605,336 Z M606,334 L606,337 L613,337 L613,334 L606,334 Z M605,335 L605,333 L614,333 L614,335 L616,335 L616,328 C616,327.447715 615.552285,327 615,327 L604,327 C603.447715,327 603,327.447715 603,328 L603,335 L605,335 Z M606,326 L613,326 L613,323 L606,323 L606,326 Z M613,329 L614,329 L614,330 L613,330 L613,329 Z M610,329 L611,329 L611,330 L610,330 L610,329 Z" id="shape"></path>
        </g>
    </g>
</svg>