<?xml version="1.0" encoding="UTF-8"?>
<svg width="120px" height="120px" viewBox="0 0 120 120" version="1.1" xmlns="http://www.w3.org/2000/svg" xmlns:xlink="http://www.w3.org/1999/xlink">
    <!-- Generator: Sketch 52.6 (67491) - http://www.bohemiancoding.com/sketch -->
    <title>icon-overview-120</title>
    <desc>Created with Sketch.</desc>
    <g id="Icon" stroke="none" stroke-width="1" fill="none" fill-rule="evenodd">
        <g id="Index" transform="translate(-920.000000, -640.000000)" fill="#262F36">
            <path d="M979,717.126017 L979,694 L981,694 L981,717.126017 C982.725227,717.57006 984,719.136161 984,721 C984,723.209139 982.209139,725 980,725 C977.790861,725 976,723.209139 976,721 C976,719.136161 977.274773,717.57006 979,717.126017 Z M980,743 C1003.74824,743 1023,723.748244 1023,700 C1023,676.251756 1003.74824,657 980,657 C956.251756,657 937,676.251756 937,700 C937,723.748244 956.251756,743 980,743 Z M980,745 C955.147186,745 935,724.852814 935,700 C935,675.147186 955.147186,655 980,655 C1004.85281,655 1025,675.147186 1025,700 C1025,724.852814 1004.85281,745 980,745 Z M1003,700 C1003,687.297451 992.702549,677 980,677 C967.297451,677 957,687.297451 957,700 L955,700 C955,686.192881 966.192881,675 980,675 C993.807119,675 1005,686.192881 1005,700 L1003,700 Z M980,723 C981.104569,723 982,722.104569 982,721 C982,719.895431 981.104569,719 980,719 C978.895431,719 978,719.895431 978,721 C978,722.104569 978.895431,723 980,723 Z" id="shape"></path>
        </g>
    </g>
</svg>