<?xml version="1.0" encoding="UTF-8"?>
<svg width="20px" height="20px" viewBox="0 0 20 20" version="1.1" xmlns="http://www.w3.org/2000/svg" xmlns:xlink="http://www.w3.org/1999/xlink">
    <!-- Generator: Sketch 52.6 (67491) - http://www.bohemiancoding.com/sketch -->
    <title>icon-file-send-20@1x</title>
    <desc>Created with Sketch.</desc>
    <g id="Icon" stroke="none" stroke-width="1" fill="none" fill-rule="evenodd">
        <g id="Index" transform="translate(-840.000000, -320.000000)" fill="#262F36">
            <path d="M855,335 L856,335 C856,336.104569 855.104569,337 854,337 L845,337 C843.895431,337 843,336.104569 843,335 L843,324 C843,322.895431 843.895431,322 845,322 L852,322 L856,326 L856,328 L855,328 L855,327 L853,327 C851.895431,327 851,326.104569 851,325 L851,323 L845,323 C844.447715,323 844,323.447715 844,324 L844,335 C844,335.552285 844.447715,336 845,336 L854,336 C854.552285,336 855,335.552285 855,335 Z M854.585786,326 L852,323.414214 L852,325 C852,325.552285 852.447715,326 853,326 L854.585786,326 Z M854.542893,329.457107 L855.25,328.75 L858,331.5 L855.25,334.25 L854.542893,333.542893 L856.085786,332 L848,332.003301 L848,331 L856.085786,331 L854.542893,329.457107 Z" id="shape"></path>
        </g>
    </g>
</svg>