<?xml version="1.0" encoding="UTF-8"?>
<svg width="20px" height="20px" viewBox="0 0 20 20" version="1.1" xmlns="http://www.w3.org/2000/svg" xmlns:xlink="http://www.w3.org/1999/xlink">
    <!-- Generator: Sketch 52.6 (67491) - http://www.bohemiancoding.com/sketch -->
    <title>icon-vehicle-20@1x</title>
    <desc>Created with Sketch.</desc>
    <g id="Icon" stroke="none" stroke-width="1" fill="none" fill-rule="evenodd">
        <g id="Index" transform="translate(-360.000000, -240.000000)" fill="#262F36">
            <path d="M377,254 L377,250.828427 C377,250.563211 376.894643,250.308857 376.707107,250.12132 L374.87868,248.292893 C374.691143,248.105357 374.436789,248 374.171573,248 L372,248 L372,254 L373.085353,254 C373.291271,253.417404 373.846891,253 374.5,253 C375.153109,253 375.708729,253.417404 375.914647,254 L377,254 Z M378,250.828427 L378,254 C378,254.552285 377.552285,255 377,255 L375.914647,255 C375.708729,255.582596 375.153109,256 374.5,256 C373.846891,256 373.291271,255.582596 373.085353,255 L365.914647,255 C365.708729,255.582596 365.153109,256 364.5,256 C363.846891,256 363.291271,255.582596 363.085353,255 L362,255 C361.447715,255 361,254.552285 361,254 L361,246 C361,244.895431 361.895431,244 363,244 L371,244 C371.552285,244 372,244.447715 372,245 L372,247 L374.171573,247 C374.702006,247 375.210714,247.210714 375.585786,247.585786 L377.414214,249.414214 C377.789286,249.789286 378,250.297994 378,250.828427 Z M371,254 L371,245 L363,245 C362.447715,245 362,245.447715 362,246 L362,254 L363.085353,254 C363.291271,253.417404 363.846891,253 364.5,253 C365.153109,253 365.708729,253.417404 365.914647,254 L371,254 Z M364.5,255 C364.776142,255 365,254.776142 365,254.5 C365,254.223858 364.776142,254 364.5,254 C364.223858,254 364,254.223858 364,254.5 C364,254.776142 364.223858,255 364.5,255 Z M374.5,255 C374.776142,255 375,254.776142 375,254.5 C375,254.223858 374.776142,254 374.5,254 C374.223858,254 374,254.223858 374,254.5 C374,254.776142 374.223858,255 374.5,255 Z" id="Shape"></path>
        </g>
    </g>
</svg>