<?xml version="1.0" encoding="UTF-8"?>
<svg width="20px" height="20px" viewBox="0 0 20 20" version="1.1" xmlns="http://www.w3.org/2000/svg" xmlns:xlink="http://www.w3.org/1999/xlink">
    <!-- Generator: Sketch 52.6 (67491) - http://www.bohemiancoding.com/sketch -->
    <title>icon-stopwatch-filled-20</title>
    <desc>Created with Sketch.</desc>
    <g id="Icon" stroke="none" stroke-width="1" fill="none" fill-rule="evenodd">
        <g id="Index" transform="translate(-440.000000, -1240.000000)" fill="#262F36">
            <path d="M454.438022,1243.85487 L455.914214,1242.37868 L456.62132,1243.08579 L455.145129,1244.56198 C456.300069,1245.88123 457,1247.60887 457,1249.5 C457,1253.64214 453.642136,1257 449.5,1257 C445.357864,1257 442,1253.64214 442,1249.5 C442,1245.35786 445.357864,1242 449.5,1242 C451.391126,1242 453.118774,1242.69993 454.438022,1243.85487 Z M451,1240 L451,1241 L448,1241 L448,1240 L451,1240 Z M449.025126,1248.07495 C448.44253,1248.28086 448.025126,1248.83648 448.025126,1249.48959 C448.025126,1250.31802 448.696699,1250.98959 449.525126,1250.98959 C450.353553,1250.98959 451.025126,1250.31802 451.025126,1249.48959 C451.025126,1248.83648 450.607722,1248.28086 450.025126,1248.07495 L450.025126,1244.98959 L449.025126,1244.98959 L449.025126,1248.07495 Z" id="shape"></path>
        </g>
    </g>
</svg>