<?xml version="1.0" encoding="UTF-8"?>
<svg width="120px" height="120px" viewBox="0 0 120 120" version="1.1" xmlns="http://www.w3.org/2000/svg" xmlns:xlink="http://www.w3.org/1999/xlink">
    <!-- Generator: Sketch 52.6 (67491) - http://www.bohemiancoding.com/sketch -->
    <title>icon-record-120</title>
    <desc>Created with Sketch.</desc>
    <g id="Icon" stroke="none" stroke-width="1" fill="none" fill-rule="evenodd">
        <g id="Index" transform="translate(-800.000000, -760.000000)" fill="#262F36">
            <path d="M860,865 C835.147186,865 815,844.852814 815,820 C815,795.147186 835.147186,775 860,775 C884.852814,775 905,795.147186 905,820 C905,844.852814 884.852814,865 860,865 Z M860,863 C883.748244,863 903,843.748244 903,820 C903,796.251756 883.748244,777 860,777 C836.251756,777 817,796.251756 817,820 C817,843.748244 836.251756,863 860,863 Z M879.244436,827.177248 L861.244436,796.000334 L857.780334,798.000334 L875.780334,829.177248 L879.244436,827.177248 Z M877.043175,830.757548 L879.99682,832.480417 L879.981595,829.06105 L877.043175,830.757548 Z M856.780334,796.268283 L860.244436,794.268283 C861.201021,793.715998 862.424202,794.043749 862.976486,795.000334 L881.710922,827.449328 C881.884949,827.750752 881.977302,828.092372 881.978851,828.440423 L882.004593,834.221494 C882.007052,834.773774 881.561334,835.223478 881.009055,835.225937 C880.8305,835.226732 880.654988,835.179704 880.500751,835.089738 L875.507067,832.176909 C875.206422,832.001542 874.956746,831.750752 874.782719,831.449328 L856.048283,799.000334 C855.495998,798.043749 855.823749,796.820568 856.780334,796.268283 Z M838,838 L882,838 L882,840 L838,840 L838,838 Z" id="shape"></path>
        </g>
    </g>
</svg>