<?xml version="1.0" encoding="UTF-8"?>
<svg width="20px" height="20px" viewBox="0 0 20 20" version="1.1" xmlns="http://www.w3.org/2000/svg" xmlns:xlink="http://www.w3.org/1999/xlink">
    <!-- Generator: Sketch 52.6 (67491) - http://www.bohemiancoding.com/sketch -->
    <title>icon-app-ios-filled-20</title>
    <desc>Created with Sketch.</desc>
    <g id="Icon" stroke="none" stroke-width="1" fill="none" fill-rule="evenodd">
        <g id="Index" transform="translate(-240.000000, -1280.000000)" fill="#262F36">
            <path d="M254.41211,1291.19562 C253.949869,1290.53207 253.707513,1289.74625 253.717745,1288.94419 C253.712139,1288.19555 253.941261,1287.46311 254.374431,1286.84495 C254.701868,1286.40572 255.085327,1286.00893 255.515559,1285.66413 C255.218927,1285.28109 254.867233,1284.94173 254.47132,1284.6565 C253.844555,1284.21797 253.089587,1283.98794 252.318248,1284.00049 C251.736021,1284.02727 251.161871,1284.14419 250.617322,1284.34686 C250.158608,1284.53046 249.674087,1284.64546 249.180147,1284.68799 C248.700576,1284.64586 248.227459,1284.55078 247.769886,1284.40459 C247.195304,1284.22264 246.597383,1284.12017 245.993602,1284.1002 C244.854196,1284.09333 243.785484,1284.63791 243.140783,1285.55392 C242.349021,1286.65077 241.949872,1287.97136 242.005038,1289.31155 C242.050685,1291.09395 242.558041,1292.83612 243.479892,1294.37596 C244.48107,1296.12532 245.489425,1297 246.504957,1297 C246.966684,1296.97178 247.418313,1296.8559 247.834478,1296.65887 C248.283156,1296.45866 248.7678,1296.34633 249.260887,1296.32824 C249.780758,1296.34501 250.293211,1296.45347 250.77342,1296.64838 C251.22307,1296.82748 251.699132,1296.93555 252.183681,1296.96851 C253.037733,1296.96851 253.897167,1296.309 254.761984,1294.98998 C255.29543,1294.21008 255.712283,1293.36011 256,1292.46565 C255.336776,1292.23273 254.776045,1291.78425 254.41211,1291.19562 Z M250.894918,1283.12082 C251.257334,1282.73279 251.541441,1282.26903 251.729592,1281.75835 C251.893445,1281.33013 251.984424,1280.87391 251.998223,1280.41131 C252.000258,1280.37879 252.000258,1280.34615 251.998223,1280.31362 C251.998223,1280.27249 251.998223,1280.24165 251.998223,1280.21594 C252.000592,1280.17999 252.000592,1280.14391 251.998223,1280.10797 C251.998223,1280.05656 251.998223,1280.02057 251.974238,1280 C251.067449,1280.15356 250.251085,1280.67671 249.695674,1281.46015 C249.235949,1282.21509 248.994016,1283.09851 249.000112,1284 C249.314698,1283.97576 249.626355,1283.91894 249.930726,1283.83033 C250.297724,1283.67716 250.626255,1283.4342 250.890121,1283.12082 L250.894918,1283.12082 Z" id="shape"></path>
        </g>
    </g>
</svg>