<?xml version="1.0" encoding="UTF-8"?>
<svg width="20px" height="20px" viewBox="0 0 20 20" version="1.1" xmlns="http://www.w3.org/2000/svg" xmlns:xlink="http://www.w3.org/1999/xlink">
    <!-- Generator: Sketch 52.6 (67491) - http://www.bohemiancoding.com/sketch -->
    <title>icon-ifta-20@1x</title>
    <desc>Created with Sketch.</desc>
    <g id="Icon" stroke="none" stroke-width="1" fill="none" fill-rule="evenodd">
        <g id="Index" transform="translate(-520.000000, -240.000000)" fill="#262F36">
            <path d="M533,248 L525,248 L525,256 L533,256 L533,248 Z M533,247 L533,244 C533,243.447715 532.552285,243 532,243 L526,243 C525.447715,243 525,243.447715 525,244 L525,247 L533,247 Z M534,254 L534,256 L536,256 L536,257 L523,257 L523,256 L524,256 L524,244 C524,242.895431 524.895431,242 526,242 L532,242 C533.104569,242 534,242.895431 534,244 L534,253 L535,253 C535.552285,253 536,252.552285 536,252 L536,248.914647 C535.417404,248.708729 535,248.153109 535,247.5 C535,246.846891 535.417404,246.291271 536,246.085353 L536,245 C536,244.447715 535.552285,244 535,244 L535,243 C536.104569,243 537,243.895431 537,245 L537,246.085353 C537.582596,246.291271 538,246.846891 538,247.5 C538,248.153109 537.582596,248.708729 537,248.914647 L537,252 C537,253.104569 536.104569,254 535,254 L534,254 Z M527,250 L528,250 L528,251 L527,251 L527,250 Z M530,250 L531,250 L531,251 L530,251 L530,250 Z" id="shape"></path>
        </g>
    </g>
</svg>