<?xml version="1.0" encoding="UTF-8"?>
<svg width="20px" height="20px" viewBox="0 0 20 20" version="1.1" xmlns="http://www.w3.org/2000/svg" xmlns:xlink="http://www.w3.org/1999/xlink">
    <!-- Generator: Sketch 52.6 (67491) - http://www.bohemiancoding.com/sketch -->
    <title>icon-diagnostics-20@1x</title>
    <desc>Created with Sketch.</desc>
    <g id="Icon" stroke="none" stroke-width="1" fill="none" fill-rule="evenodd">
        <g id="Index" transform="translate(-760.000000, -240.000000)" fill="#262F36">
            <path d="M769.5,257 C765.357864,257 762,253.642136 762,249.5 C762,245.357864 765.357864,242 769.5,242 C773.642136,242 777,245.357864 777,249.5 C777,253.642136 773.642136,257 769.5,257 Z M769.5,256 C773.089851,256 776,253.089851 776,249.5 C776,245.910149 773.089851,243 769.5,243 C765.910149,243 763,245.910149 763,249.5 C763,253.089851 765.910149,256 769.5,256 Z M769,245 L770,245 L770,250 L769,250 L769,245 Z M769,252 L770,252 L770,253 L769,253 L769,252 Z" id="shape"></path>
        </g>
    </g>
</svg>