<?xml version="1.0" encoding="UTF-8"?>
<svg width="20px" height="20px" viewBox="0 0 20 20" version="1.1" xmlns="http://www.w3.org/2000/svg" xmlns:xlink="http://www.w3.org/1999/xlink">
    <!-- Generator: Sketch 52.6 (67491) - http://www.bohemiancoding.com/sketch -->
    <title>icon-coaching-locked-filled-20</title>
    <desc>Created with Sketch.</desc>
    <g id="Icon" stroke="none" stroke-width="1" fill="none" fill-rule="evenodd">
        <g id="Index" transform="translate(-80.000000, -1280.000000)" fill="#262F36">
            <path d="M82,1283.5 L89.5,1281.5 L97,1283.5 L97,1286.5 C97,1289.5 96.3333333,1291.83333 95,1293.5 C93.6666667,1295.16667 91.8333333,1296.5 89.5,1297.5 C87.1666667,1296.5 85.3333333,1295.16667 84,1293.5 C82.6666667,1291.83333 82,1289.5 82,1286.5 L82,1283.5 Z M87,1287 C86.4477153,1287 86,1287.44772 86,1288 L86,1292 C86,1292.55228 86.4477153,1293 87,1293 L92,1293 C92.5522847,1293 93,1292.55228 93,1292 L93,1288 C93,1287.44772 92.5522847,1287 92,1287 L92,1286.5 C92,1285.11929 90.8807119,1284 89.5,1284 C88.1192881,1284 87,1285.11929 87,1286.5 L87,1287 Z M88,1287 L88,1286.5 C88,1285.67157 88.6715729,1285 89.5,1285 C90.3284271,1285 91,1285.67157 91,1286.5 L91,1287 L88,1287 Z M87,1288 L92,1288 L92,1292 L87,1292 L87,1288 Z" id="shape"></path>
        </g>
    </g>
</svg>