<?xml version="1.0" encoding="UTF-8"?>
<svg width="20px" height="20px" viewBox="0 0 20 20" version="1.1" xmlns="http://www.w3.org/2000/svg" xmlns:xlink="http://www.w3.org/1999/xlink">
    <!-- Generator: Sketch 52.6 (67491) - http://www.bohemiancoding.com/sketch -->
    <title>icon-geofencing-20@1x</title>
    <desc>Created with Sketch.</desc>
    <g id="Icon" stroke="none" stroke-width="1" fill="none" fill-rule="evenodd">
        <g id="Index" transform="translate(-680.000000, -240.000000)" fill="#262F36">
            <path d="M691.62132,243.843146 L697.278175,249.5 L691.62132,255.156854 L690.914214,254.449747 L692.328427,253.035534 L689.5,250.207107 L687.37868,252.328427 L686.671573,251.62132 L688.792893,249.5 L686.671573,247.37868 L687.37868,246.671573 L689.5,248.792893 L692.328427,245.964466 L690.914214,244.550253 L691.62132,243.843146 Z M695.863961,249.5 L693.035534,246.671573 L690.207107,249.5 L693.035534,252.328427 L695.863961,249.5 Z M688.853247,243.782792 L683.782792,248.853247 C683.977646,249.261141 683.977646,249.738859 683.782792,250.146753 L688.853247,255.217208 C689.410811,254.950856 690.098842,255.04859 690.56066,255.510408 C691.146447,256.096194 691.146447,257.045942 690.56066,257.631728 C689.974874,258.217514 689.025126,258.217514 688.43934,257.631728 C687.977522,257.16991 687.879788,256.481878 688.14614,255.924315 L683.075685,250.85386 C682.518122,251.120212 681.83009,251.022478 681.368272,250.56066 C680.782486,249.974874 680.782486,249.025126 681.368272,248.43934 C681.83009,247.977522 682.518122,247.879788 683.075685,248.14614 L688.14614,243.075685 C687.879788,242.518122 687.977522,241.83009 688.43934,241.368272 C689.025126,240.782486 689.974874,240.782486 690.56066,241.368272 C691.146447,241.954058 691.146447,242.903806 690.56066,243.489592 C690.098842,243.95141 689.410811,244.049144 688.853247,243.782792 Z" id="shape"></path>
        </g>
    </g>
</svg>