<?xml version="1.0" encoding="UTF-8"?>
<svg width="20px" height="20px" viewBox="0 0 20 20" version="1.1" xmlns="http://www.w3.org/2000/svg" xmlns:xlink="http://www.w3.org/1999/xlink">
    <!-- Generator: Sketch 52.6 (67491) - http://www.bohemiancoding.com/sketch -->
    <title>icon-co-ordinates-20@1x</title>
    <desc>Created with Sketch.</desc>
    <g id="Icon" stroke="none" stroke-width="1" fill="none" fill-rule="evenodd">
        <g id="Index" transform="translate(-360.000000, -320.000000)" fill="#262F36">
            <path d="M363.018945,330 L361,330 L361,329 L363.018945,329 C363.261704,325.808797 365.808797,323.261704 369,323.018945 L369,321 L370,321 L370,323.018945 C373.191203,323.261704 375.738296,325.808797 375.981055,329 L378,329 L378,330 L375.981055,330 C375.738296,333.191203 373.191203,335.738296 370,335.981055 L370,338 L369,338 L369,335.981055 C365.808797,335.738296 363.261704,333.191203 363.018945,330 Z M364.022422,330 C364.260196,332.638569 366.361431,334.739804 369,334.977578 L369,333 L370,333 L370,334.977578 C372.638569,334.739804 374.739804,332.638569 374.977578,330 L373,330 L373,329 L374.977578,329 C374.739804,326.361431 372.638569,324.260196 370,324.022422 L370,326 L369,326 L369,324.022422 C366.361431,324.260196 364.260196,326.361431 364.022422,329 L366,329 L366,330 L364.022422,330 Z" id="shape"></path>
        </g>
    </g>
</svg>