<?xml version="1.0" encoding="UTF-8"?>
<svg width="120px" height="120px" viewBox="0 0 120 120" version="1.1" xmlns="http://www.w3.org/2000/svg" xmlns:xlink="http://www.w3.org/1999/xlink">
    <!-- Generator: Sketch 52.6 (67491) - http://www.bohemiancoding.com/sketch -->
    <title>icon-driver-120</title>
    <desc>Created with Sketch.</desc>
    <g id="Icon" stroke="none" stroke-width="1" fill="none" fill-rule="evenodd">
        <g id="Index" transform="translate(-680.000000, -520.000000)" fill="#262F36">
            <path d="M715.000003,614.989794 C722.0448,620.032242 730.675822,623 740,623 C749.324178,623 757.9552,620.032242 764.999997,614.989794 C764.994483,606.157929 757.833154,599 749,599 L731,599 C722.166846,599 715.005517,606.157929 715.000003,614.989794 Z M713.060229,613.516844 C713.814431,604.26953 721.558271,597 731,597 L749,597 C758.441729,597 766.185569,604.26953 766.939771,613.516844 C776.733112,605.635229 783,593.54947 783,580 C783,556.251756 763.748244,537 740,537 C716.251756,537 697,556.251756 697,580 C697,593.54947 703.266888,605.635229 713.060229,613.516844 Z M740,625 C715.147186,625 695,604.852814 695,580 C695,555.147186 715.147186,535 740,535 C764.852814,535 785,555.147186 785,580 C785,604.852814 764.852814,625 740,625 Z M740,591 C749.388841,591 757,583.388841 757,574 C757,564.611159 749.388841,557 740,557 C730.611159,557 723,564.611159 723,574 C723,583.388841 730.611159,591 740,591 Z M740,593 C729.50659,593 721,584.49341 721,574 C721,563.50659 729.50659,555 740,555 C750.49341,555 759,563.50659 759,574 C759,584.49341 750.49341,593 740,593 Z" id="shape"></path>
        </g>
    </g>
</svg>