<?xml version="1.0" encoding="UTF-8"?>
<svg width="20px" height="20px" viewBox="0 0 20 20" version="1.1" xmlns="http://www.w3.org/2000/svg" xmlns:xlink="http://www.w3.org/1999/xlink">
    <!-- Generator: Sketch 52.6 (67491) - http://www.bohemiancoding.com/sketch -->
    <title>Artboard</title>
    <desc>Created with Sketch.</desc>
    <g id="Artboard" stroke="none" stroke-width="1" fill="none" fill-rule="evenodd">
        <g id="icon/20/overview" fill="#262F36">
            <g id="shape">
                <path d="M9.5,17 C5.35786438,17 2,13.6421356 2,9.5 C2,5.35786438 5.35786438,2 9.5,2 C13.6421356,2 17,5.35786438 17,9.5 C17,13.6421356 13.6421356,17 9.5,17 Z M9.5,16 C13.0898509,16 16,13.0898509 16,9.5 C16,5.91014913 13.0898509,3 9.5,3 C5.91014913,3 3,5.91014913 3,9.5 C3,13.0898509 5.91014913,16 9.5,16 Z M5,9.5 C5,7.01471863 7.01471863,5 9.5,5 C11.9852814,5 14,7.01471863 14,9.5 L13,9.5 C13,7.56700338 11.4329966,6 9.5,6 C7.56700338,6 6,7.56700338 6,9.5 L5,9.5 Z M9,11.0853529 L9,8 L10,8 L10,11.0853529 C10.5825962,11.2912711 11,11.8468906 11,12.5 C11,13.3284271 10.3284271,14 9.5,14 C8.67157288,14 8,13.3284271 8,12.5 C8,11.8468906 8.41740381,11.2912711 9,11.0853529 Z"></path>
            </g>
        </g>
    </g>
</svg>