<?xml version="1.0" encoding="UTF-8"?>
<svg width="120px" height="120px" viewBox="0 0 120 120" version="1.1" xmlns="http://www.w3.org/2000/svg" xmlns:xlink="http://www.w3.org/1999/xlink">
    <!-- Generator: Sketch 52.6 (67491) - http://www.bohemiancoding.com/sketch -->
    <title>icon-request-pending-120</title>
    <desc>Created with Sketch.</desc>
    <g id="Icon" stroke="none" stroke-width="1" fill="none" fill-rule="evenodd">
        <g id="Index" transform="translate(-320.000000, -640.000000)" fill="#262F36">
            <path d="M380,745 C355.147186,745 335,724.852814 335,700 C335,675.147186 355.147186,655 380,655 C404.852814,655 425,675.147186 425,700 C425,724.852814 404.852814,745 380,745 Z M380,743 C403.748244,743 423,723.748244 423,700 C423,676.251756 403.748244,657 380,657 C356.251756,657 337,676.251756 337,700 C337,723.748244 356.251756,743 380,743 Z M383.873983,701 C383.42994,702.725227 381.863839,704 380,704 C377.790861,704 376,702.209139 376,700 C376,698.136161 377.274773,696.57006 379,696.126017 L379,673 L381,673 L381,696.126017 C382.405607,696.487796 383.512204,697.594393 383.873983,699 L403,699 L403,701 L383.873983,701 Z M380,702 C381.104569,702 382,701.104569 382,700 C382,698.895431 381.104569,698 380,698 C378.895431,698 378,698.895431 378,700 C378,701.104569 378.895431,702 380,702 Z" id="shape"></path>
        </g>
    </g>
</svg>