<?xml version="1.0" encoding="UTF-8"?>
<svg width="20px" height="20px" viewBox="0 0 20 20" version="1.1" xmlns="http://www.w3.org/2000/svg" xmlns:xlink="http://www.w3.org/1999/xlink">
    <!-- Generator: Sketch 52.6 (67491) - http://www.bohemiancoding.com/sketch -->
    <title>icon-coaching-uncoachable-filled-20</title>
    <desc>Created with Sketch.</desc>
    <g id="Icon" stroke="none" stroke-width="1" fill="none" fill-rule="evenodd">
        <g id="Index" transform="translate(-1000.000000, -1240.000000)" fill="#262F36">
            <path d="M1002,1243.5 L1009.5,1241.5 L1017,1243.5 L1017,1246.5 C1017,1249.5 1016.33333,1251.83333 1015,1253.5 C1013.66667,1255.16667 1011.83333,1256.5 1009.5,1257.5 C1007.16667,1256.5 1005.33333,1255.16667 1004,1253.5 C1002.66667,1251.83333 1002,1249.5 1002,1246.5 L1002,1243.5 Z M1010.20553,1248.99843 L1012.32685,1246.87711 L1011.61975,1246.17 L1009.49843,1248.29132 L1007.37711,1246.17 L1006.67,1246.87711 L1008.79132,1248.99843 L1006.67,1251.11975 L1007.37711,1251.82685 L1009.49843,1249.70553 L1011.61975,1251.82685 L1012.32685,1251.11975 L1010.20553,1248.99843 Z" id="shape"></path>
        </g>
    </g>
</svg>