<?xml version="1.0" encoding="UTF-8"?>
<svg width="120px" height="120px" viewBox="0 0 120 120" version="1.1" xmlns="http://www.w3.org/2000/svg" xmlns:xlink="http://www.w3.org/1999/xlink">
    <!-- Generator: Sketch 52.6 (67491) - http://www.bohemiancoding.com/sketch -->
    <title>icon-sucess-wait-120</title>
    <desc>Created with Sketch.</desc>
    <g id="Icon" stroke="none" stroke-width="1" fill="none" fill-rule="evenodd">
        <g id="Index" transform="translate(-200.000000, -520.000000)" fill="#262F36">
            <path d="M298.098067,560.042809 C298.723567,559.798134 299.327164,559.509763 299.905105,559.181449 C303.159594,565.4069 305,572.488525 305,580 C305,604.852814 284.852814,625 260,625 C235.147186,625 215,604.852814 215,580 C215,555.147186 235.147186,535 260,535 C267.511475,535 274.5931,536.840406 280.818551,540.094895 C280.490237,540.672836 280.201866,541.276433 279.957191,541.901933 C273.993002,538.771235 267.203348,537 260,537 C236.251756,537 217,556.251756 217,580 C217,603.748244 236.251756,623 260,623 C283.748244,623 303,603.748244 303,580 C303,572.796652 301.228765,566.006998 298.098067,560.042809 Z M252.221825,594.506097 L281.92031,564.807612 L283.334524,566.221825 L253.636039,595.92031 C252.85499,596.701359 251.58866,596.701359 250.807612,595.92031 L236.665476,581.778175 L238.07969,580.363961 L252.221825,594.506097 Z M293,557 C298.522847,557 303,552.522847 303,547 C303,541.477153 298.522847,537 293,537 C287.477153,537 283,541.477153 283,547 C283,552.522847 287.477153,557 293,557 Z M293,559 C286.372583,559 281,553.627417 281,547 C281,540.372583 286.372583,535 293,535 C299.627417,535 305,540.372583 305,547 C305,553.627417 299.627417,559 293,559 Z M294,546 L299,546 L299,548 L292,548 L292,540 L294,540 L294,546 Z" id="shape"></path>
        </g>
    </g>
</svg>