<?xml version="1.0" encoding="UTF-8"?>
<svg width="20px" height="20px" viewBox="0 0 20 20" version="1.1" xmlns="http://www.w3.org/2000/svg" xmlns:xlink="http://www.w3.org/1999/xlink">
    <!-- Generator: Sketch 52.6 (67491) - http://www.bohemiancoding.com/sketch -->
    <title>icon-scorecards-filled-20</title>
    <desc>Created with Sketch.</desc>
    <g id="Icon" stroke="none" stroke-width="1" fill="none" fill-rule="evenodd">
        <g id="Index" transform="translate(-200.000000, -1240.000000)" fill="#262F36">
            <path d="M214.815806,1248.91674 C214.232196,1251.11219 212.324637,1252.76809 210,1252.97758 L210,1256 L214,1256 L214,1257 L205,1257 L205,1256 L209,1256 L209,1252.97758 C206.675363,1252.76809 204.767804,1251.11219 204.184194,1248.91674 C202.366283,1248.54004 201,1246.92958 201,1245 C201,1243.89543 201.895431,1243 203,1243 L204.267564,1243 C204.613374,1242.4022 205.259718,1242 206,1242 L213,1242 C213.740282,1242 214.386626,1242.4022 214.732436,1243 L216,1243 C217.104569,1243 218,1243.89543 218,1245 C218,1246.92958 216.633717,1248.54004 214.815806,1248.91674 Z M214.990098,1247.83277 C216.16046,1247.42375 217,1246.30992 217,1245 C217,1244.44772 216.552285,1244 216,1244 L215,1244 L215,1247.5 C215,1247.61173 214.996668,1247.72269 214.990098,1247.83277 Z M204.009902,1247.83277 C204.003332,1247.72269 204,1247.61173 204,1247.5 L204,1244 L203,1244 C202.447715,1244 202,1244.44772 202,1245 C202,1246.30992 202.83954,1247.42375 204.009902,1247.83277 Z" id="shape"></path>
        </g>
    </g>
</svg>