<?xml version="1.0" encoding="UTF-8"?>
<svg width="20px" height="20px" viewBox="0 0 20 20" version="1.1" xmlns="http://www.w3.org/2000/svg" xmlns:xlink="http://www.w3.org/1999/xlink">
    <!-- Generator: Sketch 52.6 (67491) - http://www.bohemiancoding.com/sketch -->
    <title>icon-reports-filled-20</title>
    <desc>Created with Sketch.</desc>
    <g id="Icon" stroke="none" stroke-width="1" fill="none" fill-rule="evenodd">
        <g id="Index" transform="translate(-360.000000, -1280.000000)" fill="#262F36">
            <path d="M364,1291 L365,1291 L365,1297 L364,1297 L364,1291 Z M374,1283.72792 L370.071068,1287.65685 L367.949747,1285.53553 L363.707107,1289.77817 L363,1289.07107 L367.949747,1284.12132 L370.071068,1286.24264 L373.313708,1283 L371,1283 L371,1282 L375,1282 L375,1285.99994 L374,1286 L374,1283.72792 Z M369,1289 L370,1289 L370,1297 L369,1297 L369,1289 Z M374,1288 L375,1288 L375,1297 L374,1297 L374,1288 Z" id="shape"></path>
        </g>
    </g>
</svg>