<?xml version="1.0" encoding="UTF-8"?>
<svg width="120px" height="120px" viewBox="0 0 120 120" version="1.1" xmlns="http://www.w3.org/2000/svg" xmlns:xlink="http://www.w3.org/1999/xlink">
    <!-- Generator: Sketch 52.6 (67491) - http://www.bohemiancoding.com/sketch -->
    <title>icon-scorecards-120</title>
    <desc>Created with Sketch.</desc>
    <g id="Icon" stroke="none" stroke-width="1" fill="none" fill-rule="evenodd">
        <g id="Index" transform="translate(-800.000000, -880.000000)" fill="#262F36">
            <path d="M860,983 C883.748244,983 903,963.748244 903,940 C903,916.251756 883.748244,897 860,897 C836.251756,897 817,916.251756 817,940 C817,963.748244 836.251756,983 860,983 Z M860,985 C835.147186,985 815,964.852814 815,940 C815,915.147186 835.147186,895 860,895 C884.852814,895 905,915.147186 905,940 C905,964.852814 884.852814,985 860,985 Z M861,948.969258 L861,959 L871,959 C872.104569,959 873,959.895431 873,961 L873,963 C873,964.104569 872.104569,965 871,965 L849,965 C847.895431,965 847,964.104569 847,963 L847,961 C847,959.895431 847.895431,959 849,959 L859,959 L859,948.969258 C851.792654,948.524804 845.876342,943.308894 844.371033,936.441499 C839.51747,934.903467 836,930.362508 836,925 C836,921.686292 838.686292,919 842,919 L844,919 C844,917.895431 844.895431,917 846,917 L874,917 C875.104569,917 876,917.895431 876,919 L878,919 C881.313708,919 884,921.686292 884,925 C884,930.362508 880.48253,934.903467 875.628967,936.441499 C874.123658,943.308894 868.207346,948.524804 861,948.969258 Z M844,921 L842,921 C839.790861,921 838,922.790861 838,925 C838,929.072601 840.453975,932.643116 844.043466,934.1884 C844.014658,933.796029 844,933.399726 844,933 L844,921 Z M875.956534,934.1884 C879.546025,932.643116 882,929.072601 882,925 C882,922.790861 880.209139,921 878,921 L876,921 L876,933 C876,933.399726 875.985342,933.796029 875.956534,934.1884 Z M849,961 L849,963 L871,963 L871,961 L849,961 Z M874,933 L874,919 L846,919 L846,933 C846,940.731986 852.268014,947 860,947 C867.731986,947 874,940.731986 874,933 Z" id="shape"></path>
        </g>
    </g>
</svg>