<?xml version="1.0" encoding="UTF-8"?>
<svg width="20px" height="20px" viewBox="0 0 20 20" version="1.1" xmlns="http://www.w3.org/2000/svg" xmlns:xlink="http://www.w3.org/1999/xlink">
    <!-- Generator: Sketch 52.6 (67491) - http://www.bohemiancoding.com/sketch -->
    <title>icon-eld-event-20@1x</title>
    <desc>Created with Sketch.</desc>
    <g id="Icon" stroke="none" stroke-width="1" fill="none" fill-rule="evenodd">
        <g id="Index" transform="translate(-200.000000, -360.000000)" fill="#262F36">
            <path d="M209.50004,362 C213.642055,362 217,365.357792 217,369.5 C217,373.6421 213.642055,377 209.50004,377 C205.357821,377 202.000081,373.6421 202.000081,369.5 C202.000081,365.357792 205.357821,362 209.50004,362 Z M209.50004,363 C205.91012,363 203.000081,365.910087 203.000081,369.5 C203.000081,373.08982 205.91012,376 209.50004,376 C213.089784,376 216,373.08982 216,369.5 C216,365.910087 213.089784,363 209.50004,363 Z M207.414214,371 L208.703553,372.28934 L207.996447,372.996447 L205,370 L214,370 L214,371 L207.414214,371 Z M211.592893,368 L210.3,366.707107 L211.007107,366 L214,369 L205,369 L205,368 L211.592893,368 Z" id="shape"></path>
        </g>
    </g>
</svg>