<?xml version="1.0" encoding="UTF-8"?>
<svg width="120px" height="120px" viewBox="0 0 120 120" version="1.1" xmlns="http://www.w3.org/2000/svg" xmlns:xlink="http://www.w3.org/1999/xlink">
    <!-- Generator: Sketch 52.6 (67491) - http://www.bohemiancoding.com/sketch -->
    <title>icon-location-120</title>
    <desc>Created with Sketch.</desc>
    <g id="Icon" stroke="none" stroke-width="1" fill="none" fill-rule="evenodd">
        <g id="Index" transform="translate(-80.000000, -760.000000)" fill="#262F36">
            <path d="M140,865 C115.147186,865 95,844.852814 95,820 C95,795.147186 115.147186,775 140,775 C164.852814,775 185,795.147186 185,820 C185,844.852814 164.852814,865 140,865 Z M140,863 C163.748244,863 183,843.748244 183,820 C183,796.251756 163.748244,777 140,777 C116.251756,777 97,796.251756 97,820 C97,843.748244 116.251756,863 140,863 Z M140,821 C143.313708,821 146,818.313708 146,815 C146,811.686292 143.313708,809 140,809 C136.686292,809 134,811.686292 134,815 C134,818.313708 136.686292,821 140,821 Z M140,823 C135.581722,823 132,819.418278 132,815 C132,810.581722 135.581722,807 140,807 C144.418278,807 148,810.581722 148,815 C148,819.418278 144.418278,823 140,823 Z M149.52012,834.154654 C155.610916,827.454778 158,822.65499 158,814.882353 C158,805.008852 149.943758,797 140,797 C130.056242,797 122,805.008852 122,814.882353 C122,822.570164 124.345489,827.238798 130.496197,834.172824 C133.337415,837.375884 136.501193,840.710862 139.987365,844.177215 C143.42402,840.705922 146.601641,837.364981 149.52012,834.154654 Z M140,847 C135.91912,843 132.252453,839.166667 129,835.5 C124.12132,830 120,824.5 120,814.882353 C120,803.901633 128.954305,795 140,795 C151.045695,795 160,803.901633 160,814.882353 C160,824.5 156,830 151,835.5 C147.666667,839.166667 144,843 140,847 Z" id="shape"></path>
        </g>
    </g>
</svg>