<?xml version="1.0" encoding="UTF-8"?>
<svg width="20px" height="20px" viewBox="0 0 20 20" version="1.1" xmlns="http://www.w3.org/2000/svg" xmlns:xlink="http://www.w3.org/1999/xlink">
    <!-- Generator: Sketch 52.6 (67491) - http://www.bohemiancoding.com/sketch -->
    <title>icon-geofencing-filled-20</title>
    <desc>Created with Sketch.</desc>
    <g id="Icon" stroke="none" stroke-width="1" fill="none" fill-rule="evenodd">
        <g id="Index" transform="translate(-680.000000, -1240.000000)" fill="#262F36">
            <path d="M688.853247,1243.78279 L683.782792,1248.85325 C683.977646,1249.26114 683.977646,1249.73886 683.782792,1250.14675 L688.853247,1255.21721 C689.410811,1254.95086 690.098842,1255.04859 690.56066,1255.51041 C691.146447,1256.09619 691.146447,1257.04594 690.56066,1257.63173 C689.974874,1258.21751 689.025126,1258.21751 688.43934,1257.63173 C687.977522,1257.16991 687.879788,1256.48188 688.14614,1255.92431 L683.075685,1250.85386 C682.518122,1251.12021 681.83009,1251.02248 681.368272,1250.56066 C680.782486,1249.97487 680.782486,1249.02513 681.368272,1248.43934 C681.83009,1247.97752 682.518122,1247.87979 683.075685,1248.14614 L688.14614,1243.07569 C687.879788,1242.51812 687.977522,1241.83009 688.43934,1241.36827 C689.025126,1240.78249 689.974874,1240.78249 690.56066,1241.36827 C691.146447,1241.95406 691.146447,1242.90381 690.56066,1243.48959 C690.098842,1243.95141 689.410811,1244.04914 688.853247,1243.78279 Z M692.328427,1253.03553 L689.5,1250.20711 L687.37868,1252.32843 L686.671573,1251.62132 L688.792893,1249.5 L686.671573,1247.37868 L687.37868,1246.67157 L689.5,1248.79289 L692.328427,1245.96447 L690.914214,1244.55025 L691.62132,1243.84315 L697.278175,1249.5 L691.62132,1255.15685 L690.914214,1254.44975 L692.328427,1253.03553 Z" id="shape"></path>
        </g>
    </g>
</svg>