<?xml version="1.0" encoding="UTF-8"?>
<svg width="120px" height="120px" viewBox="0 0 120 120" version="1.1" xmlns="http://www.w3.org/2000/svg" xmlns:xlink="http://www.w3.org/1999/xlink">
    <!-- Generator: Sketch 52.6 (67491) - http://www.bohemiancoding.com/sketch -->
    <title>icon-error-120</title>
    <desc>Created with Sketch.</desc>
    <g id="Symbol" stroke="none" stroke-width="1" fill="none" fill-rule="evenodd">
        <g id="icon/120/error" fill="#262F36">
            <g id="shape">
                <path d="M60,103 C83.7482442,103 103,83.7482442 103,60 C103,36.2517558 83.7482442,17 60,17 C36.2517558,17 17,36.2517558 17,60 C17,83.7482442 36.2517558,103 60,103 Z M60,105 C35.1471863,105 15,84.8528137 15,60 C15,35.1471863 35.1471863,15 60,15 C84.8528137,15 105,35.1471863 105,60 C105,84.8528137 84.8528137,105 60,105 Z M60,58.5857864 L76.9705627,41.6152237 L78.3847763,43.0294373 L61.4142136,60 L78.3847763,76.9705627 L76.9705627,78.3847763 L60,61.4142136 L43.0294373,78.3847763 L41.6152237,76.9705627 L58.5857864,60 L41.6152237,43.0294373 L43.0294373,41.6152237 L60,58.5857864 Z"></path>
            </g>
        </g>
    </g>
</svg>