<?xml version="1.0" encoding="UTF-8"?>
<svg width="20px" height="20px" viewBox="0 0 20 20" version="1.1" xmlns="http://www.w3.org/2000/svg" xmlns:xlink="http://www.w3.org/1999/xlink">
    <!-- Generator: Sketch 52.6 (67491) - http://www.bohemiancoding.com/sketch -->
    <title>icon-cross-20@1x</title>
    <desc>Created with Sketch.</desc>
    <g id="Icon" stroke="none" stroke-width="1" fill="none" fill-rule="evenodd">
        <g id="Index" transform="translate(-320.000000, -280.000000)" fill="#262F36">
            <path d="M329.50004,282 C333.642055,282 337,285.357792 337,289.5 C337,293.6421 333.642055,297 329.50004,297 C325.357821,297 322.000081,293.6421 322.000081,289.5 C322.000081,285.357792 325.357821,282 329.50004,282 Z M329.50004,283 C333.089784,283 336,285.910087 336,289.5 C336,293.08982 333.089784,296 329.50004,296 C325.91012,296 323.000081,293.08982 323.000081,289.5 C323.000081,285.910087 325.91012,283 329.50004,283 Z M329.5,288.792893 L332.328427,285.964466 L333.035534,286.671573 L330.207107,289.5 L333.035534,292.328427 L332.328427,293.035534 L329.5,290.207107 L326.671573,293.035534 L325.964466,292.328427 L328.792893,289.5 L325.964466,286.671573 L326.671573,285.964466 L329.5,288.792893 Z" id="shape"></path>
        </g>
    </g>
</svg>