<?xml version="1.0" encoding="UTF-8"?>
<svg width="20px" height="20px" viewBox="0 0 20 20" version="1.1" xmlns="http://www.w3.org/2000/svg" xmlns:xlink="http://www.w3.org/1999/xlink">
    <!-- Generator: Sketch 52.6 (67491) - http://www.bohemiancoding.com/sketch -->
    <title>icon-messages-20@1x</title>
    <desc>Created with Sketch.</desc>
    <g id="Icon" stroke="none" stroke-width="1" fill="none" fill-rule="evenodd">
        <g id="Index" transform="translate(-320.000000, -240.000000)" fill="#262F36">
            <path d="M326,256.131483 L327.697224,255 L335,255 C335.552285,255 336,254.552285 336,254 L336,249 C336,248.447715 335.552285,248 335,248 L327,248 C326.447715,248 326,248.447715 326,249 L326,256.131483 Z M327,247 L335,247 C336.104569,247 337,247.895431 337,249 L337,254 C337,255.104569 336.104569,256 335,256 L328,256 L325,258 L325,249 C325,247.895431 325.895431,247 327,247 Z M334,246 L333,246 L333,244 C333,243.447715 332.552285,243 332,243 L324,243 C323.447715,243 323,243.447715 323,244 L323,251.131483 L324,250.464816 L324,251.666667 L322,253 L322,244 C322,242.895431 322.895431,242 324,242 L332,242 C333.104569,242 334,242.895431 334,244 L334,246 Z M329,251 L330,251 L330,252 L329,252 L329,251 Z M332,251 L333,251 L333,252 L332,252 L332,251 Z" id="shape"></path>
        </g>
    </g>
</svg>