<?xml version="1.0" encoding="UTF-8"?>
<svg width="120px" height="120px" viewBox="0 0 120 120" version="1.1" xmlns="http://www.w3.org/2000/svg" xmlns:xlink="http://www.w3.org/1999/xlink">
    <!-- Generator: Sketch 54.1 (76490) - https://sketchapp.com -->
    <title>icon-dashcam-error-120</title>
    <desc>Created with Sketch.</desc>
    <g id="Icon" stroke="none" stroke-width="1" fill="none" fill-rule="evenodd">
        <g id="Index" transform="translate(-200.000000, -1120.000000)" fill="#262F36">
            <path d="M280.818551,1140.09489 C280.490237,1140.67284 280.201866,1141.27643 279.957191,1141.90193 C273.993002,1138.77123 267.203348,1137 260,1137 C236.251756,1137 217,1156.25176 217,1180 C217,1203.74824 236.251756,1223 260,1223 C283.748244,1223 303,1203.74824 303,1180 C303,1172.79665 301.228765,1166.007 298.098067,1160.04281 C298.723567,1159.79813 299.327164,1159.50976 299.905105,1159.18145 C303.159594,1165.4069 305,1172.48852 305,1180 C305,1204.85281 284.852814,1225 260,1225 C235.147186,1225 215,1204.85281 215,1180 C215,1155.14719 235.147186,1135 260,1135 C267.511475,1135 274.5931,1136.84041 280.818551,1140.09489 L280.818551,1140.09489 Z M246,1162 C243.790861,1162 242,1163.79086 242,1166 L242,1194 C242,1196.20914 243.790861,1198 246,1198 L274,1198 C276.209139,1198 278,1196.20914 278,1194 L278,1166 C278,1163.79086 276.209139,1162 274,1162 L246,1162 Z M246,1160 L274,1160 C277.313708,1160 280,1162.68629 280,1166 L280,1194 C280,1197.31371 277.313708,1200 274,1200 L246,1200 C242.686292,1200 240,1197.31371 240,1194 L240,1166 C240,1162.68629 242.686292,1160 246,1160 Z M260,1187 C263.865993,1187 267,1183.86599 267,1180 C267,1176.13401 263.865993,1173 260,1173 C256.134007,1173 253,1176.13401 253,1180 C253,1183.86599 256.134007,1187 260,1187 Z M260,1189 C255.029437,1189 251,1184.97056 251,1180 C251,1175.02944 255.029437,1171 260,1171 C264.970563,1171 269,1175.02944 269,1180 C269,1184.97056 264.970563,1189 260,1189 Z M260,1184 C257.790861,1184 256,1182.20914 256,1180 C256,1177.79086 257.790861,1176 260,1176 C262.209139,1176 264,1177.79086 264,1180 C264,1182.20914 262.209139,1184 260,1184 Z M260,1182 C261.104569,1182 262,1181.10457 262,1180 C262,1178.89543 261.104569,1178 260,1178 C258.895431,1178 258,1178.89543 258,1180 C258,1181.10457 258.895431,1182 260,1182 Z M293,1159 C286.372583,1159 281,1153.62742 281,1147 C281,1140.37258 286.372583,1135 293,1135 C299.627417,1135 305,1140.37258 305,1147 C305,1153.62742 299.627417,1159 293,1159 Z M293,1157 C298.522847,1157 303,1152.52285 303,1147 C303,1141.47715 298.522847,1137 293,1137 C287.477153,1137 283,1141.47715 283,1147 C283,1152.52285 287.477153,1157 293,1157 Z M292,1151 L294,1151 L294,1153 L292,1153 L292,1151 Z M292,1141 L294,1141 L294,1149 L292,1149 L292,1141 Z" id="Shape"></path>
        </g>
    </g>
</svg>