<?xml version="1.0" encoding="UTF-8"?>
<svg width="20px" height="20px" viewBox="0 0 20 20" version="1.1" xmlns="http://www.w3.org/2000/svg" xmlns:xlink="http://www.w3.org/1999/xlink">
    <!-- Generator: Sketch 52.6 (67491) - http://www.bohemiancoding.com/sketch -->
    <title>icon-receipt-20@1x</title>
    <desc>Created with Sketch.</desc>
    <g id="Icon" stroke="none" stroke-width="1" fill="none" fill-rule="evenodd">
        <g id="Index" transform="translate(-440.000000, -280.000000)" fill="#262F36">
            <path d="M451.581604,296 C451.905909,295.366144 452.339668,295 453,295 C453.633442,295 454.058388,295.336931 454.378224,295.923902 C454.740871,295.773845 454.996045,295.416589 454.996152,294.99965 L455,283.999744 C455,283.581212 454.743197,283.222917 454.379548,283.073665 C454.059562,283.662138 453.634317,284 453,284 C452.339668,284 451.905909,283.633856 451.581604,283 L450.918396,283 C450.594091,283.633856 450.160332,284 449.5,284 C448.839668,284 448.405909,283.633856 448.081604,283 L447.418396,283 C447.094091,283.633856 446.660332,284 446,284 C445.365941,284 444.940785,283.662413 444.620843,283.074383 C444.256568,283.223758 444,283.581916 444,284 L444,295 C444,295.418084 444.256568,295.776242 444.620843,295.925617 C444.940785,295.337587 445.365941,295 446,295 C446.660332,295 447.094091,295.366144 447.418396,296 L448.081604,296 C448.405909,295.366144 448.839668,295 449.5,295 C450.160332,295 450.594091,295.366144 450.918396,296 L451.581604,296 Z M450.25,297 C450.026142,296.333333 449.776142,296 449.5,296 C449.223858,296 448.973858,296.333333 448.75,297 L446.75,297 C446.526142,296.333333 446.276142,296 446,296 C445.723858,296 445.473858,296.333333 445.25,297 L445,297 C443.895431,297 443,296.104569 443,295 L443,284 C443,282.895431 443.895431,282 445,282 L445.25,282 C445.473858,282.666667 445.723858,283 446,283 C446.276142,283 446.526142,282.666667 446.75,282 L448.75,282 C448.973858,282.666667 449.223858,283 449.5,283 C449.776142,283 450.026142,282.666667 450.25,282 L452.25,282 C452.473858,282.666667 452.723858,283 453,283 C453.276142,283 453.526142,282.666667 453.75,282 L454,281.999487 C455.104569,281.999487 456,282.894918 456,283.999487 L455.996152,295 C455.995869,296.104369 455.100522,296.999487 453.996152,296.999487 L453.75,297 C453.526142,296.333333 453.276142,296 453,296 C452.723858,296 452.473858,296.333333 452.25,297 L450.25,297 Z M446,286 L453,286 L453,287 L446,287 L446,286 Z M446,289 L453,289 L453,290 L446,290 L446,289 Z M446,292 L453,292 L453,293 L446,293 L446,292 Z" id="shape"></path>
        </g>
    </g>
</svg>