<?xml version="1.0" encoding="UTF-8"?>
<svg width="20px" height="20px" viewBox="0 0 20 20" version="1.1" xmlns="http://www.w3.org/2000/svg" xmlns:xlink="http://www.w3.org/1999/xlink">
    <!-- Generator: Sketch 52.6 (67491) - http://www.bohemiancoding.com/sketch -->
    <title>icon-printer-filled-20</title>
    <desc>Created with Sketch.</desc>
    <g id="Icon" stroke="none" stroke-width="1" fill="none" fill-rule="evenodd">
        <g id="Index" transform="translate(-280.000000, -1280.000000)" fill="#262F36">
            <path d="M295,1296 L295,1295 C295,1294.44772 294.552285,1294 294,1294 L285,1294 C284.447715,1294 284,1294.44772 284,1295 L284,1296 L283,1296 C282.447715,1296 282,1295.55228 282,1295 L282,1288 C282,1286.89543 282.895431,1286 284,1286 L295,1286 C296.104569,1286 297,1286.89543 297,1288 L297,1295 C297,1295.55228 296.552285,1296 296,1296 L295,1296 Z M285,1295 L294,1295 L294,1297 C294,1297.55228 293.552285,1298 293,1298 L286,1298 C285.447715,1298 285,1297.55228 285,1297 L285,1295 Z M286,1282 L293,1282 C293.552285,1282 294,1282.44772 294,1283 L294,1285 L285,1285 L285,1283 C285,1282.44772 285.447715,1282 286,1282 Z M293,1289 L293,1290 L294,1290 L294,1289 L293,1289 Z M290,1289 L290,1290 L291,1290 L291,1289 L290,1289 Z" id="shape"></path>
        </g>
    </g>
</svg>