<?xml version="1.0" encoding="UTF-8"?>
<svg width="16px" height="16px" viewBox="0 0 16 16" version="1.1" xmlns="http://www.w3.org/2000/svg" xmlns:xlink="http://www.w3.org/1999/xlink">
    <!-- Generator: Sketch 52.6 (67491) - http://www.bohemiancoding.com/sketch -->
    <title>icon-i-16</title>
    <desc>Created with Sketch.</desc>
    <g id="Icon" stroke="none" stroke-width="1" fill="none" fill-rule="evenodd">
        <g id="Index" transform="translate(-440.000000, -160.000000)" fill="#262F36">
            <path d="M447.4,164.151953 C447.4,163.914322 447.461848,163.729591 447.585547,163.597754 C447.709245,163.465917 447.886652,163.4 448.117773,163.4 C448.348894,163.4 448.527115,163.467545 448.652441,163.602637 C448.777768,163.737729 448.84043,163.920832 448.84043,164.151953 C448.84043,164.386329 448.778581,164.567805 448.654883,164.696387 C448.531184,164.824968 448.35215,164.889258 448.117773,164.889258 C447.639255,164.889258 447.4,164.643492 447.4,164.151953 Z M447,167.282812 L446.646447,166.429259 C447.4,165.782812 448.5,165.782812 448.947214,166.559206 C449.267445,167.115149 449.104369,167.761829 448.468165,169.458374 C447.979369,170.761829 447.958861,171.434279 448,171.782813 C448.035191,172.080955 448.368524,172.080955 449,171.782812 L449.353553,172.136366 C448.866299,172.62362 448.370886,172.854743 447.939504,172.782812 C447.588618,172.724304 447.280096,172.461039 447.052786,172.006419 C446.747579,171.396004 446.895631,170.803796 447.531835,169.107251 C448.020631,167.803796 448.041139,167.631346 448,167.282812 C447.964809,166.98467 447.631476,166.98467 447,167.282812 Z" id="shape"></path>
        </g>
    </g>
</svg>