<?xml version="1.0" encoding="UTF-8"?>
<svg width="20px" height="20px" viewBox="0 0 20 20" version="1.1" xmlns="http://www.w3.org/2000/svg" xmlns:xlink="http://www.w3.org/1999/xlink">
    <!-- Generator: Sketch 52.6 (67491) - http://www.bohemiancoding.com/sketch -->
    <title>icon-groups-filled-20</title>
    <desc>Created with Sketch.</desc>
    <g id="Icon" stroke="none" stroke-width="1" fill="none" fill-rule="evenodd">
        <g id="Index" transform="translate(-560.000000, -1240.000000)" fill="#262F36">
            <path d="M572,1256 L561,1256 L561,1255 C561,1253.34315 562.343146,1252 564,1252 L569,1252 C570.656854,1252 572,1253.34315 572,1255 L572,1256 Z M566.5,1251 C564.567003,1251 563,1249.433 563,1247.5 C563,1245.567 564.567003,1244 566.5,1244 C568.432997,1244 570,1245.567 570,1247.5 C570,1249.433 568.432997,1251 566.5,1251 Z M570.743941,1249 L575,1249 C576.656854,1249 578,1250.34315 578,1252 L578,1253 L572.464871,1253 C571.822557,1251.88963 570.661819,1251.11668 569.313631,1251.01211 C569.9611,1250.49274 570.461878,1249.79803 570.743941,1249 Z M570.997144,1247.66183 C570.999043,1247.60812 571,1247.55417 571,1247.5 C571,1245.96975 570.236189,1244.61791 569.06902,1243.80491 C569.391411,1242.20489 570.804996,1241 572.5,1241 C574.432997,1241 576,1242.567 576,1244.5 C576,1246.433 574.432997,1248 572.5,1248 C571.962077,1248 571.452498,1247.87865 570.997144,1247.66183 Z" id="shape"></path>
        </g>
    </g>
</svg>