<?xml version="1.0" encoding="UTF-8"?>
<svg width="20px" height="20px" viewBox="0 0 20 20" version="1.1" xmlns="http://www.w3.org/2000/svg" xmlns:xlink="http://www.w3.org/1999/xlink">
    <!-- Generator: Sketch 54.1 (76490) - https://sketchapp.com -->
    <title>icon-20-o-assets</title>
    <desc>Created with Sketch.</desc>
    <g id="Icon" stroke="none" stroke-width="1" fill="none" fill-rule="evenodd">
        <g id="Index" transform="translate(-840.000000, -414.000000)" fill="#262F36">
            <g id="icon/20/assets" transform="translate(840.000000, 414.000000)">
                <path d="M3.08535285,13 C3.29127106,12.4174038 3.84689059,12 4.5,12 C5.15310941,12 5.70872894,12.4174038 5.91464715,13 L9,13 L9,6 L3,6 C2.44771525,6 2,6.44771525 2,7 L2,13 L3.08535285,13 L3.08535285,13 Z M5.91464715,14 C5.70872894,14.5825962 5.15310941,15 4.5,15 C3.84689059,15 3.29127106,14.5825962 3.08535285,14 L2,14 C1.44771525,14 1,13.5522847 1,13 L1,7 C1,5.8954305 1.8954305,5 3,5 L9,5 C9.55228475,5 10,5.44771525 10,6 L10,13 C10,13.5522847 9.55228475,14 9,14 L5.91464715,14 L5.91464715,14 Z M15.9146471,13 L17,13 L17,10.8284271 C17,10.5632106 16.8946432,10.3088567 16.7071068,10.1213203 L14.8786797,8.29289322 C14.6911433,8.10535684 14.4367894,8 14.1715729,8 L12,8 L12,13 L13.0853529,13 C13.2912711,12.4174038 13.8468906,12 14.5,12 C15.1531094,12 15.7087289,12.4174038 15.9146471,13 L15.9146471,13 Z M15.9146471,14 C15.7087289,14.5825962 15.1531094,15 14.5,15 C13.8468906,15 13.2912711,14.5825962 13.0853529,14 L12,14 C11.4477153,14 11,13.5522847 11,13 L11,8 C11,7.44771525 11.4477153,7 12,7 L14.1715729,7 C14.7020059,7 15.2107137,7.21071368 15.5857864,7.58578644 L17.4142136,9.41421356 C17.7892863,9.78928632 18,10.2979941 18,10.8284271 L18,13 C18,13.5522847 17.5522847,14 17,14 L15.9146471,14 L15.9146471,14 Z M4.5,14 C4.77614237,14 5,13.7761424 5,13.5 C5,13.2238576 4.77614237,13 4.5,13 C4.22385763,13 4,13.2238576 4,13.5 C4,13.7761424 4.22385763,14 4.5,14 Z M14.5,14 C14.7761424,14 15,13.7761424 15,13.5 C15,13.2238576 14.7761424,13 14.5,13 C14.2238576,13 14,13.2238576 14,13.5 C14,13.7761424 14.2238576,14 14.5,14 Z" id="Shape"></path>
            </g>
        </g>
    </g>
</svg>