<?xml version="1.0" encoding="UTF-8"?>
<svg width="120px" height="120px" viewBox="0 0 120 120" version="1.1" xmlns="http://www.w3.org/2000/svg" xmlns:xlink="http://www.w3.org/1999/xlink">
    <!-- Generator: Sketch 52.6 (67491) - http://www.bohemiancoding.com/sketch -->
    <title>icon-phone-120</title>
    <desc>Created with Sketch.</desc>
    <g id="Icon" stroke="none" stroke-width="1" fill="none" fill-rule="evenodd">
        <g id="Index" transform="translate(-320.000000, -880.000000)" fill="#262F36">
            <path d="M380,983 C403.748244,983 423,963.748244 423,940 C423,916.251756 403.748244,897 380,897 C356.251756,897 337,916.251756 337,940 C337,963.748244 356.251756,983 380,983 Z M380,985 C355.147186,985 335,964.852814 335,940 C335,915.147186 355.147186,895 380,895 C404.852814,895 425,915.147186 425,940 C425,964.852814 404.852814,985 380,985 Z M370,918 C367.790861,918 366,919.790861 366,922 L366,958 C366,960.209139 367.790861,962 370,962 L390,962 C392.209139,962 394,960.209139 394,958 L394,922 C394,919.790861 392.209139,918 390,918 L370,918 Z M370,916 L390,916 C393.313708,916 396,918.686292 396,922 L396,958 C396,961.313708 393.313708,964 390,964 L370,964 C366.686292,964 364,961.313708 364,958 L364,922 C364,918.686292 366.686292,916 370,916 Z M374,958 L386,958 L386,960 L374,960 L374,958 Z M377,920 L383,920 L383,922 L377,922 L377,920 Z M374,922 C373.447715,922 373,921.552285 373,921 C373,920.447715 373.447715,920 374,920 C374.552285,920 375,920.447715 375,921 C375,921.552285 374.552285,922 374,922 Z" id="shape"></path>
        </g>
    </g>
</svg>