<?xml version="1.0" encoding="UTF-8"?>
<svg width="120px" height="120px" viewBox="0 0 120 120" version="1.1" xmlns="http://www.w3.org/2000/svg" xmlns:xlink="http://www.w3.org/1999/xlink">
    <!-- Generator: Sketch 52.6 (67491) - http://www.bohemiancoding.com/sketch -->
    <title>icon-archive-120</title>
    <desc>Created with Sketch.</desc>
    <g id="Icon" stroke="none" stroke-width="1" fill="none" fill-rule="evenodd">
        <g id="Index" transform="translate(-560.000000, -640.000000)" fill="#262F36">
            <path d="M600,718 L600,692 C598.895431,692 598,691.104569 598,690 L598,682 C598,680.895431 598.895431,680 600,680 L640,680 C641.104569,680 642,680.895431 642,682 L642,690 C642,691.104569 641.104569,692 640,692 L640,718 C640,719.104569 639.104569,720 638,720 L602,720 C600.895431,720 600,719.104569 600,718 Z M638,718 L638,692 L602,692 L602,718 L638,718 Z M620,745 C595.147186,745 575,724.852814 575,700 C575,675.147186 595.147186,655 620,655 C644.852814,655 665,675.147186 665,700 C665,724.852814 644.852814,745 620,745 Z M620,743 C643.748244,743 663,723.748244 663,700 C663,676.251756 643.748244,657 620,657 C596.251756,657 577,676.251756 577,700 C577,723.748244 596.251756,743 620,743 Z M600,682 L600,690 L640,690 L640,682 L600,682 Z M614,698 C613.447715,698 613,698.447715 613,699 C613,699.552285 613.447715,700 614,700 L626,700 C626.552285,700 627,699.552285 627,699 C627,698.447715 626.552285,698 626,698 L614,698 Z M614,696 L626,696 C627.656854,696 629,697.343146 629,699 C629,700.656854 627.656854,702 626,702 L614,702 C612.343146,702 611,700.656854 611,699 C611,697.343146 612.343146,696 614,696 Z" id="Shape"></path>
        </g>
    </g>
</svg>