<?xml version="1.0" encoding="UTF-8"?>
<svg width="20px" height="20px" viewBox="0 0 20 20" version="1.1" xmlns="http://www.w3.org/2000/svg" xmlns:xlink="http://www.w3.org/1999/xlink">
    <!-- Generator: Sketch 52.6 (67491) - http://www.bohemiancoding.com/sketch -->
    <title>icon-inspection-report-filled-20</title>
    <desc>Created with Sketch.</desc>
    <g id="Icon" stroke="none" stroke-width="1" fill="none" fill-rule="evenodd">
        <g id="Index" transform="translate(-400.000000, -1240.000000)" fill="#262F36">
            <path d="M410.202631,1246.67605 C409.7637,1245.44271 410.037865,1244.01239 411.025126,1243.02513 C411.717627,1242.33263 412.62812,1241.99098 413.535715,1242.00018 L414.207107,1242.67157 L413.146447,1243.73223 C412.56066,1244.31802 412.56066,1245.26777 413.146447,1245.85355 C413.732233,1246.43934 414.681981,1246.43934 415.267767,1245.85355 L416.328427,1244.79289 L416.999819,1245.46429 C417.009023,1246.37188 416.667375,1247.28237 415.974874,1247.97487 C414.987613,1248.96213 413.557291,1249.2363 412.323951,1248.79737 L408.797369,1252.32395 C409.2363,1253.55729 408.962135,1254.98761 407.974874,1255.97487 C407.282373,1256.66737 406.37188,1257.00902 405.464285,1256.99982 L404.792893,1256.32843 L405.853553,1255.26777 C406.43934,1254.68198 406.43934,1253.73223 405.853553,1253.14645 C405.267767,1252.56066 404.318019,1252.56066 403.732233,1253.14645 L402.671573,1254.20711 L402.000181,1253.53571 C401.990977,1252.62812 402.332625,1251.71763 403.025126,1251.02513 C404.012387,1250.03787 405.442709,1249.7637 406.676049,1250.20263 L410.202631,1246.67605 Z" id="shape"></path>
        </g>
    </g>
</svg>