<?xml version="1.0" encoding="UTF-8"?>
<svg width="20px" height="20px" viewBox="0 0 20 20" version="1.1" xmlns="http://www.w3.org/2000/svg" xmlns:xlink="http://www.w3.org/1999/xlink">
    <!-- Generator: Sketch 52.6 (67491) - http://www.bohemiancoding.com/sketch -->
    <title>icon-map-20@1x</title>
    <desc>Created with Sketch.</desc>
    <g id="Icon" stroke="none" stroke-width="1" fill="none" fill-rule="evenodd">
        <g id="Index" transform="translate(-520.000000, -360.000000)" fill="#262F36">
            <path d="M531.5,375.722967 L531.5,364.803983 C531.291238,364.7687 531.085318,364.71116 530.885828,364.631364 L527.5,363.277033 L527.5,374.196017 C527.708762,374.2313 527.914682,374.28884 528.114172,374.368636 L531.5,375.722967 Z M532.5,375.722967 L535.371391,374.574411 C535.751049,374.422547 536,374.054839 536,373.645934 L536,364.692582 C536,364.587885 535.980022,364.484149 535.941139,364.38694 C535.772337,363.964936 535.293395,363.759675 534.871391,363.928477 L533.114172,364.631364 C532.914682,364.71116 532.708762,364.7687 532.5,364.803983 L532.5,375.722967 Z M526.5,374.196017 L526.5,363.277033 L523.628609,364.425589 C523.248951,364.577453 523,364.945161 523,365.354066 L523,374.307418 C523,374.412115 523.019978,374.515851 523.058861,374.61306 C523.227663,375.035064 523.706605,375.240325 524.128609,375.071523 L525.885828,374.368636 C526.085318,374.28884 526.291238,374.2313 526.5,374.196017 Z M523.257219,363.497113 L526.257219,362.297113 C526.734041,362.106384 527.265959,362.106384 527.742781,362.297113 L531.257219,363.702887 C531.734041,363.893616 532.265959,363.893616 532.742781,363.702887 L534.5,363 C535.434787,362.626085 536.4957,363.080762 536.869615,364.015549 C536.955747,364.230879 537,364.460666 537,364.692582 L537,373.645934 C537,374.463743 536.502098,375.199161 535.742781,375.502887 L532.742781,376.702887 C532.265959,376.893616 531.734041,376.893616 531.257219,376.702887 L527.742781,375.297113 C527.265959,375.106384 526.734041,375.106384 526.257219,375.297113 L524.5,376 C523.565213,376.373915 522.5043,375.919238 522.130385,374.984451 C522.044253,374.769121 522,374.539334 522,374.307418 L522,365.354066 C522,364.536257 522.497902,363.800839 523.257219,363.497113 Z" id="shape"></path>
        </g>
    </g>
</svg>