<?xml version="1.0" encoding="UTF-8"?>
<svg width="24px" height="24px" viewBox="0 0 24 24" version="1.1" xmlns="http://www.w3.org/2000/svg" xmlns:xlink="http://www.w3.org/1999/xlink">
    <!-- Generator: Sketch 52.6 (67491) - http://www.bohemiancoding.com/sketch -->
    <title>icon-referral-24</title>
    <desc>Created with Sketch.</desc>
    <g id="Icon" stroke="none" stroke-width="1" fill="none" fill-rule="evenodd">
        <g id="Index" transform="translate(-280.000000, -440.000000)" fill="#262F36">
            <path d="M285,445 L284.666057,445 C284.043558,444.152409 283.852423,442.971366 284.5,442 C285.5,440.5 287.291456,440.755922 288.267767,441.732233 C288.717196,442.181662 289.369994,442.840108 290.226162,443.70757 C290.491012,443.282722 290.962489,443 291.5,443 C292.037511,443 292.508988,443.282722 292.773838,443.70757 C293.630006,442.840108 294.282804,442.181662 294.732233,441.732233 C295.708544,440.755922 297.5,440.5 298.5,442 C299.147577,442.971366 298.956442,444.152409 298.333943,445 L298,445 C299.104569,445 300,445.895431 300,447 L300,449 C300,449.740282 299.597801,450.386626 299,450.732436 L299,458 C299,459.104569 298.104569,460 297,460 L286,460 C284.895431,460 284,459.104569 284,458 L284,450.732436 C283.402199,450.386626 283,449.740282 283,449 L283,447 C283,445.895431 283.895431,445 285,445 Z M286.182959,445 L290.039995,445 C290.050115,444.991389 290.060302,444.982677 290.070556,444.973863 C288.937763,443.824651 288.100929,442.979609 287.56066,442.43934 C286.871259,441.749939 285.867132,441.752078 285.33205,442.5547 C284.793422,443.362643 285.269058,444.599514 286.182959,445 Z M292.960005,445 L296.817041,445 C297.730942,444.599514 298.206578,443.362643 297.66795,442.5547 C297.132868,441.752078 296.128741,441.749939 295.43934,442.43934 C294.899071,442.979609 294.062237,443.824651 292.929444,444.973863 C292.939698,444.982677 292.949885,444.991389 292.960005,445 Z M291,451 L285,451 L285,458 C285,458.552285 285.447715,459 286,459 L297,459 C297.552285,459 298,458.552285 298,458 L298,451 L292,451 L292,459 L291,459 L291,451 Z M291,450 L291,446 L292,446 L292,450 L298,450 C298.552285,450 299,449.552285 299,449 L299,447 C299,446.447715 298.552285,446 298,446 L285,446 C284.447715,446 284,446.447715 284,447 L284,449 C284,449.552285 284.447715,450 285,450 L291,450 Z M291.5,445 C291.776142,445 292,444.776142 292,444.5 C292,444.223858 291.776142,444 291.5,444 C291.223858,444 291,444.223858 291,444.5 C291,444.776142 291.223858,445 291.5,445 Z" id="shape"></path>
        </g>
    </g>
</svg>