<?xml version="1.0" encoding="UTF-8"?>
<svg width="120px" height="120px" viewBox="0 0 120 120" version="1.1" xmlns="http://www.w3.org/2000/svg" xmlns:xlink="http://www.w3.org/1999/xlink">
    <!-- Generator: Sketch 52.6 (67491) - http://www.bohemiancoding.com/sketch -->
    <title>icon-log-suggestion-pending-120</title>
    <desc>Created with Sketch.</desc>
    <g id="Icon" stroke="none" stroke-width="1" fill="none" fill-rule="evenodd">
        <g id="Index" transform="translate(-440.000000, -640.000000)" fill="#262F36">
            <path d="M503.873983,701 C503.42994,702.725227 501.863839,704 500,704 C497.790861,704 496,702.209139 496,700 C496,698.136161 497.274773,696.57006 499,696.126017 L499,673 L501,673 L501,696.126017 C502.405607,696.487796 503.512204,697.594393 503.873983,699 L523,699 L523,701 L503.873983,701 Z M499,655.010892 L499,657.011399 C475.713663,657.542797 457,676.585993 457,700 C457,723.748244 476.251756,743 500,743 C523.414007,743 542.457203,724.286337 542.988601,701 L544.989108,701 C544.457309,725.391011 524.518617,745 500,745 C475.147186,745 455,724.852814 455,700 C455,675.481383 474.608989,655.542691 499,655.010892 Z M501,655.010892 C504.328535,655.083464 507.568015,655.517448 510.680758,656.275164 L510.162857,658.207997 C507.215551,657.493803 504.149602,657.083274 501,657.011399 L501,655.010892 Z M510.70935,656.282134 C514.569606,657.224505 518.234672,658.664832 521.632625,660.531194 L520.6322,662.263982 C517.947631,660.793072 515.088985,659.600294 512.095035,658.724418 L512.612783,656.792157 L510.70935,656.282134 Z M521.751953,660.596972 L523.175463,661.418835 C522.706461,661.136503 522.23189,660.862481 521.751953,660.596972 Z M523.363745,661.532807 C526.158663,663.233989 528.753559,665.2312 531.10489,667.480897 L529.690313,668.895474 C527.462646,666.768475 525.006838,664.878371 522.36332,663.265594 L523.363745,661.532807 Z M532.519103,668.89511 C534.7688,671.246441 536.766011,673.841337 538.467193,676.636255 L536.734406,677.63668 C535.121629,674.993162 533.231525,672.537354 531.104526,670.309687 L532.519103,668.89511 Z M538.581165,676.824537 L539.403028,678.248047 C539.137519,677.76811 538.863497,677.293539 538.581165,676.824537 Z M539.468806,678.367375 C541.335168,681.765328 542.775495,685.430394 543.717866,689.29065 L543.207843,687.387217 L541.275582,687.904965 C540.399706,684.911015 539.206928,682.052369 537.736018,679.3678 L539.468806,678.367375 Z M543.724836,689.319242 C544.482552,692.431985 544.916536,695.671465 544.989108,699 L542.988601,699 C542.916726,695.850398 542.506197,692.784449 541.792003,689.837143 L543.724836,689.319242 Z M500,702 C501.104569,702 502,701.104569 502,700 C502,698.895431 501.104569,698 500,698 C498.895431,698 498,698.895431 498,700 C498,701.104569 498.895431,702 500,702 Z" id="shape"></path>
        </g>
    </g>
</svg>