<?xml version="1.0" encoding="UTF-8"?>
<svg width="20px" height="20px" viewBox="0 0 20 20" version="1.1" xmlns="http://www.w3.org/2000/svg" xmlns:xlink="http://www.w3.org/1999/xlink">
    <!-- Generator: Sketch 52.6 (67491) - http://www.bohemiancoding.com/sketch -->
    <title>icon-location-disabled-20@1x</title>
    <desc>Created with Sketch.</desc>
    <g id="Icon" stroke="none" stroke-width="1" fill="none" fill-rule="evenodd">
        <g id="Index" transform="translate(-80.000000, -280.000000)" fill="#262F36">
            <path d="M84.9550084,293.337885 C83.8740837,291.969455 83,290.171769 83,287.5 C83,283.910149 85.9101491,281 89.5,281 C91.624619,281 93.5111555,282.019353 94.6972219,283.595671 L97.9852814,280.307612 L98.6923882,281.014719 L81.0147186,298.692388 L80.3076118,297.985281 L84.9550084,293.337885 Z M93.9817422,284.311151 C92.9845946,282.912235 91.3488292,282 89.5,282 C86.4624339,282 84,284.462434 84,287.5 C84,289.629229 84.5452606,291.173253 85.6680207,292.624873 L88.5006369,289.792256 C87.6173444,289.406623 87,288.525406 87,287.5 C87,286.119288 88.1192881,285 89.5,285 C90.525406,285 91.4066235,285.617344 91.7922563,286.500637 L93.9817422,284.311151 Z M89.3054008,288.987492 L90.9874925,287.305401 C90.8920849,286.568907 90.2624802,286 89.5,286 C88.6715729,286 88,286.671573 88,287.5 C88,288.26248 88.5689075,288.892085 89.3054008,288.987492 Z M86.3106602,294.81066 L87.017767,294.103553 L89.5,296.585786 L92.2928932,293.792893 C94.1196763,291.96611 95,290.205463 95,287.5 C95,287.074078 94.9515857,286.659464 94.8599602,286.26136 L95.6704213,285.450899 C95.8842422,286.0951 96,286.784031 96,287.5 C96,291 94.5,293 93,294.5 L89.5,298 L86.3106602,294.81066 Z" id="shape"></path>
        </g>
    </g>
</svg>