<?xml version="1.0" encoding="UTF-8"?>
<svg width="120px" height="120px" viewBox="0 0 120 120" version="1.1" xmlns="http://www.w3.org/2000/svg" xmlns:xlink="http://www.w3.org/1999/xlink">
    <!-- Generator: Sketch 52.6 (67491) - http://www.bohemiancoding.com/sketch -->
    <title>icon-group-120</title>
    <desc>Created with Sketch.</desc>
    <g id="Icon" stroke="none" stroke-width="1" fill="none" fill-rule="evenodd">
        <g id="Index" transform="translate(-920.000000, -520.000000)" fill="#262F36">
            <path d="M1023,580 C1023,556.251756 1003.74824,537 980,537 C956.251756,537 937,556.251756 937,580 C937,589.634345 940.168486,598.528651 945.520268,605.697729 C948.013943,603.401971 951.343247,602 955,602 L975,602 C982.731986,602 989,608.268014 989,616 L989,622.056657 C1000.87134,619.528567 1010.92978,612.101388 1016.95828,601.992174 C1016.4464,595.83637 1011.288,591 1005,591 L980,591 L981,589 L1005,589 C1011.41858,589 1016.82831,593.319424 1018.48096,599.210058 C1021.37279,593.428481 1023,586.904267 1023,580 Z M946.758186,607.278004 C954.644404,616.877173 966.60717,623 980,623 C982.383604,623 984.721911,622.806056 987,622.433088 L987,616 C987,609.372583 981.627417,604 975,604 L955,604 C951.808427,604 948.907863,605.24596 946.758186,607.278004 Z M980,625 C955.147186,625 935,604.852814 935,580 C935,555.147186 955.147186,535 980,535 C1004.85281,535 1025,555.147186 1025,580 C1025,604.852814 1004.85281,625 980,625 Z M965,596 C972.179702,596 978,590.179702 978,583 C978,575.820298 972.179702,570 965,570 C957.820298,570 952,575.820298 952,583 C952,590.179702 957.820298,596 965,596 Z M965,598 C956.715729,598 950,591.284271 950,583 C950,574.715729 956.715729,568 965,568 C973.284271,568 980,574.715729 980,583 C980,591.284271 973.284271,598 965,598 Z M995,583 C1002.1797,583 1008,577.179702 1008,570 C1008,562.820298 1002.1797,557 995,557 C987.820298,557 982,562.820298 982,570 C982,577.179702 987.820298,583 995,583 Z M995,585 C986.715729,585 980,578.284271 980,570 C980,561.715729 986.715729,555 995,555 C1003.28427,555 1010,561.715729 1010,570 C1010,578.284271 1003.28427,585 995,585 Z" id="shape"></path>
        </g>
    </g>
</svg>