<?xml version="1.0" encoding="UTF-8"?>
<svg width="120px" height="120px" viewBox="0 0 120 120" version="1.1" xmlns="http://www.w3.org/2000/svg" xmlns:xlink="http://www.w3.org/1999/xlink">
    <!-- Generator: Sketch 52.6 (67491) - http://www.bohemiancoding.com/sketch -->
    <title>icon-file-upload-120</title>
    <desc>Created with Sketch.</desc>
    <g id="Icon" stroke="none" stroke-width="1" fill="none" fill-rule="evenodd">
        <g id="Index" transform="translate(-800.000000, -640.000000)" fill="#262F36">
            <path d="M880.818551,660.094895 C880.490237,660.672836 880.201866,661.276433 879.957191,661.901933 C873.993002,658.771235 867.203348,657 860,657 C836.251756,657 817,676.251756 817,700 C817,723.748244 836.251756,743 860,743 C883.748244,743 903,723.748244 903,700 C903,692.796652 901.228765,686.006998 898.098067,680.042809 C898.723567,679.798134 899.327164,679.509763 899.905105,679.181449 C903.159594,685.4069 905,692.488525 905,700 C905,724.852814 884.852814,745 860,745 C835.147186,745 815,724.852814 815,700 C815,675.147186 835.147186,655 860,655 C867.511475,655 874.5931,656.840406 880.818551,660.094895 Z M893,679 C886.372583,679 881,673.627417 881,667 C881,660.372583 886.372583,655 893,655 C899.627417,655 905,660.372583 905,667 C905,673.627417 899.627417,679 893,679 Z M893,677 C898.522847,677 903,672.522847 903,667 C903,661.477153 898.522847,657 893,657 C887.477153,657 883,661.477153 883,667 C883,672.522847 887.477153,677 893,677 Z M894,664.828427 L894,673 L892,673 L892,664.828427 L888.414214,668.414214 L887,667 L893,661 L899,667 L897.585786,668.414214 L894,664.828427 Z M845,680 L845,720 L875,720 L875,690 L867,690 C865.895431,690 865,689.104569 865,688 L865,680 L845,680 Z M874.171573,688 L867,680.828427 L867,688 L874.171573,688 Z M845,678 L867,678 L877,688 L877,720 C877,721.104569 876.104569,722 875,722 L845,722 C843.895431,722 843,721.104569 843,720 L843,680 C843,678.895431 843.895431,678 845,678 Z M851,688 L861,688 L861,690 L851,690 L851,688 Z M851,710 L869,710 L869,712 L851,712 L851,710 Z M851,699 L869,699 L869,701 L851,701 L851,699 Z" id="shape"></path>
        </g>
    </g>
</svg>