<?xml version="1.0" encoding="UTF-8"?>
<svg width="20px" height="20px" viewBox="0 0 20 20" version="1.1" xmlns="http://www.w3.org/2000/svg" xmlns:xlink="http://www.w3.org/1999/xlink">
    <!-- Generator: Sketch 52.6 (67491) - http://www.bohemiancoding.com/sketch -->
    <title>icon-stopwatch-20@1x</title>
    <desc>Created with Sketch.</desc>
    <g id="Icon" stroke="none" stroke-width="1" fill="none" fill-rule="evenodd">
        <g id="Index" transform="translate(-440.000000, -240.000000)" fill="#262F36">
            <path d="M454.438022,243.854871 L455.914214,242.37868 L456.62132,243.085786 L455.145129,244.561978 C456.300069,245.881226 457,247.608874 457,249.5 C457,253.642136 453.642136,257 449.5,257 C445.357864,257 442,253.642136 442,249.5 C442,245.357864 445.357864,242 449.5,242 C451.391126,242 453.118774,242.699931 454.438022,243.854871 Z M449.5,256 C453.089851,256 456,253.089851 456,249.5 C456,245.910149 453.089851,243 449.5,243 C445.910149,243 443,245.910149 443,249.5 C443,253.089851 445.910149,256 449.5,256 Z M451,240 L451,241 L448,241 L448,240 L451,240 Z M449.025126,248.074945 L449.025126,244.989592 L450.025126,244.989592 L450.025126,248.074945 C450.607722,248.280863 451.025126,248.836483 451.025126,249.489592 C451.025126,250.318019 450.353553,250.989592 449.525126,250.989592 C448.696699,250.989592 448.025126,250.318019 448.025126,249.489592 C448.025126,248.836483 448.44253,248.280863 449.025126,248.074945 Z" id="shape"></path>
        </g>
    </g>
</svg>