<?xml version="1.0" encoding="UTF-8"?>
<svg width="24px" height="24px" viewBox="0 0 24 24" version="1.1" xmlns="http://www.w3.org/2000/svg" xmlns:xlink="http://www.w3.org/1999/xlink">
    <!-- Generator: Sketch 52.6 (67491) - http://www.bohemiancoding.com/sketch -->
    <title>icon-avatar-filled-24</title>
    <desc>Created with Sketch.</desc>
    <g id="Icon" stroke="none" stroke-width="1" fill="none" fill-rule="evenodd">
        <g id="Index" transform="translate(-80.000000, -521.000000)" fill="#262F36">
            <path d="M91.4999902,523 C96.7466783,523 100.999979,527.253301 100.999979,532.500011 C100.999979,537.746699 96.7466783,542 91.4999902,542 C86.253302,542 82.0000012,537.746699 82.0000012,532.500011 C82.0000012,527.253301 86.253302,523 91.4999902,523 Z M96.8614399,539.096127 C97.1401154,538.869339 97.404144,538.625245 97.6518878,538.365482 C97.0268851,536.97122 95.6268629,536 94,536 L89,536 C87.3731371,536 85.9731149,536.97122 85.3481122,538.365482 C85.595856,538.625245 85.8598846,538.869339 86.1385601,539.096127 C86.5220331,537.880995 87.6581328,537 89,537 L94,537 C95.3418672,537 96.4779669,537.880995 96.8614399,539.096127 Z M91.5,535 C93.9852814,535 96,532.985281 96,530.5 C96,528.014719 93.9852814,526 91.5,526 C89.0147186,526 87,528.014719 87,530.5 C87,532.985281 89.0147186,535 91.5,535 Z M91.5,534 C89.5670034,534 88,532.432997 88,530.5 C88,528.567003 89.5670034,527 91.5,527 C93.4329966,527 95,528.567003 95,530.5 C95,532.432997 93.4329966,534 91.5,534 Z" id="shape"></path>
        </g>
    </g>
</svg>