<?xml version="1.0" encoding="UTF-8"?>
<svg width="20px" height="20px" viewBox="0 0 20 20" version="1.1" xmlns="http://www.w3.org/2000/svg" xmlns:xlink="http://www.w3.org/1999/xlink">
    <!-- Generator: Sketch 52.6 (67491) - http://www.bohemiancoding.com/sketch -->
    <title>icon-time-20@1x</title>
    <desc>Created with Sketch.</desc>
    <g id="Icon" stroke="none" stroke-width="1" fill="none" fill-rule="evenodd">
        <g id="Index" transform="translate(-840.000000, -280.000000)" fill="#262F36">
            <path d="M849.5,297 C845.357864,297 842,293.642136 842,289.5 C842,285.357864 845.357864,282 849.5,282 C853.642136,282 857,285.357864 857,289.5 C857,293.642136 853.642136,297 849.5,297 Z M849.5,296 C853.089851,296 856,293.089851 856,289.5 C856,285.910149 853.089851,283 849.5,283 C845.910149,283 843,285.910149 843,289.5 C843,293.089851 845.910149,296 849.5,296 Z M850.914647,289 L854,289 L854,290 L850.914647,290 C850.708729,290.582596 850.153109,291 849.5,291 C848.671573,291 848,290.328427 848,289.5 C848,288.846891 848.417404,288.291271 849,288.085353 L849,285 L850,285 L850,288.085353 C850.426207,288.235995 850.764005,288.573793 850.914647,289 Z" id="shape"></path>
        </g>
    </g>
</svg>