<?xml version="1.0" encoding="UTF-8"?>
<svg width="20px" height="20px" viewBox="0 0 20 20" version="1.1" xmlns="http://www.w3.org/2000/svg" xmlns:xlink="http://www.w3.org/1999/xlink">
    <!-- Generator: Sketch 52.6 (67491) - http://www.bohemiancoding.com/sketch -->
    <title>icon-odometer-20@1x</title>
    <desc>Created with Sketch.</desc>
    <g id="Icon" stroke="none" stroke-width="1" fill="none" fill-rule="evenodd">
        <g id="Index" transform="translate(-1000.000000, -320.000000)" fill="#262F36">
            <path d="M1004,334 L1015,334 C1015.55228,334 1016,333.633688 1016,333.181818 L1016,325.818182 C1016,325.366312 1015.55228,325 1015,325 L1004,325 C1003.44772,325 1003,325.366312 1003,325.818182 L1003,333.181818 C1003,333.633688 1003.44772,334 1004,334 Z M1004,335 C1002.89543,335 1002,334.242328 1002,333.307692 L1002,325.692308 C1002,324.757672 1002.89543,324 1004,324 L1015,324 C1016.10457,324 1017,324.757672 1017,325.692308 L1017,333.307692 C1017,334.242328 1016.10457,335 1015,335 L1004,335 Z M1009,325 L1010,325 L1010,334 L1009,334 L1009,325 Z M1006,328 C1005.44772,328 1005,328.447715 1005,329 L1005,330 C1005,330.552285 1005.44772,331 1006,331 C1006.55228,331 1007,330.552285 1007,330 L1007,329 C1007,328.447715 1006.55228,328 1006,328 Z M1006,327 C1007.10457,327 1008,327.895431 1008,329 L1008,330 C1008,331.104569 1007.10457,332 1006,332 C1004.89543,332 1004,331.104569 1004,330 L1004,329 C1004,327.895431 1004.89543,327 1006,327 Z M1013,328 C1012.44772,328 1012,328.447715 1012,329 L1012,330 C1012,330.552285 1012.44772,331 1013,331 C1013.55228,331 1014,330.552285 1014,330 L1014,329 C1014,328.447715 1013.55228,328 1013,328 Z M1013,327 C1014.10457,327 1015,327.895431 1015,329 L1015,330 C1015,331.104569 1014.10457,332 1013,332 C1011.89543,332 1011,331.104569 1011,330 L1011,329 C1011,327.895431 1011.89543,327 1013,327 Z" id="shape"></path>
        </g>
    </g>
</svg>