<?xml version="1.0" encoding="UTF-8"?>
<svg width="20px" height="20px" viewBox="0 0 20 20" version="1.1" xmlns="http://www.w3.org/2000/svg" xmlns:xlink="http://www.w3.org/1999/xlink">
    <!-- Generator: Sketch 54.1 (76490) - https://sketchapp.com -->
    <title>icon-trailer-20-filled</title>
    <desc>Created with Sketch.</desc>
    <g id="Icon" stroke="none" stroke-width="1" fill="none" fill-rule="evenodd">
        <g id="Index" transform="translate(-440.000000, -1430.000000)" fill="#262F36">
            <path d="M442,1444 C441.447715,1444 441,1443.55228 441,1443 L441,1437 C441,1435.89543 441.895431,1435 443,1435 L457,1435 C457.552285,1435 458,1435.44772 458,1436 L458,1443 C458,1443.55228 457.552285,1444 457,1444 L451,1444 L451,1443.5 C451,1442.11929 449.880712,1441 448.5,1441 L444.5,1441 C443.119288,1441 442,1442.11929 442,1443.5 L442,1444 L442,1444 Z M448.5,1445 C447.671573,1445 447,1444.32843 447,1443.5 C447,1442.67157 447.671573,1442 448.5,1442 C449.328427,1442 450,1442.67157 450,1443.5 C450,1444.32843 449.328427,1445 448.5,1445 Z M444.5,1445 C443.671573,1445 443,1444.32843 443,1443.5 C443,1442.67157 443.671573,1442 444.5,1442 C445.328427,1442 446,1442.67157 446,1443.5 C446,1444.32843 445.328427,1445 444.5,1445 Z" id="Shape"></path>
        </g>
    </g>
</svg>