<?xml version="1.0" encoding="UTF-8"?>
<svg width="20px" height="20px" viewBox="0 0 20 20" version="1.1" xmlns="http://www.w3.org/2000/svg" xmlns:xlink="http://www.w3.org/1999/xlink">
    <!-- Generator: Sketch 54.1 (76490) - https://sketchapp.com -->
    <title>icon-20-o-visible-to-self</title>
    <desc>Created with Sketch.</desc>
    <g id="Icon" stroke="none" stroke-width="1" fill="none" fill-rule="evenodd">
        <g id="Index" transform="translate(-1040.000000, -414.000000)" fill="#262F36">
            <g id="icon/20/visible-to-self" transform="translate(1040.000000, 414.000000)">
                <path d="M12,5.372789 L12,6.42367569 C11.1980016,6.14796671 10.3355616,6 9.44474974,6 C6.88618234,6 4.5621143,7.22072026 3.23194603,9.1813963 C3.18044088,9.25731521 3.11429317,9.36399295 3.03545493,9.49918345 C3.12401638,9.65080778 3.19811311,9.76962077 3.25546673,9.85304316 C4.59012031,11.794333 6.90189622,13 9.44474974,13 C11.9228091,13 14.1814168,11.8549932 15.5301173,10 L16.7196173,10 L16.717087,10.0043556 C16.617251,10.1752204 16.5309125,10.3136275 16.4580713,10.4195768 C14.9775102,12.5730931 12.3896525,14 9.44474974,14 C6.49984694,14 3.91198925,12.5730931 2.43142814,10.4195768 C2.35847883,10.3134701 2.27199197,10.1748091 2.17196754,10.003594 C1.9900862,9.69218008 1.98993692,9.30695559 2.17161239,8.99542153 C2.26102491,8.84209844 2.33862521,8.71695087 2.4044133,8.61997883 C3.88037856,6.44439715 6.48185336,5 9.44474974,5 C10.3361489,5 11.1948347,5.13073689 12,5.372789 Z M9.5,12 C8.11928813,12 7,10.8807119 7,9.5 C7,8.11928813 8.11928813,7 9.5,7 C10.8807119,7 12,8.11928813 12,9.5 C12,10.8807119 10.8807119,12 9.5,12 Z M9.5,11 C10.3284271,11 11,10.3284271 11,9.5 C11,8.67157288 10.3284271,8 9.5,8 C8.67157288,8 8,8.67157288 8,9.5 C8,10.3284271 8.67157288,11 9.5,11 Z M16,5 L16,4.5 C16,4.22385763 15.7761424,4 15.5,4 C15.2238576,4 15,4.22385763 15,4.5 L15,5 L16,5 Z M14,5 L14,4.5 C14,3.67157288 14.6715729,3 15.5,3 C16.3284271,3 17,3.67157288 17,4.5 L17,5 C17.5522847,5 18,5.44771525 18,6 L18,8 C18,8.55228475 17.5522847,9 17,9 L14,9 C13.4477153,9 13,8.55228475 13,8 L13,6 C13,5.44771525 13.4477153,5 14,5 Z M14,6 L14,8 L17,8 L17,6 L14,6 Z" id="Shape"></path>
            </g>
        </g>
    </g>
</svg>