<?xml version="1.0" encoding="UTF-8"?>
<svg width="20px" height="20px" viewBox="0 0 20 20" version="1.1" xmlns="http://www.w3.org/2000/svg" xmlns:xlink="http://www.w3.org/1999/xlink">
    <!-- Generator: Sketch 52.6 (67491) - http://www.bohemiancoding.com/sketch -->
    <title>icon-tag-20@1x</title>
    <desc>Created with Sketch.</desc>
    <g id="Icon" stroke="none" stroke-width="1" fill="none" fill-rule="evenodd">
        <g id="Index" transform="translate(-400.000000, -320.000000)" fill="#262F36">
            <path d="M410.318784,322 L414.989488,322 C416.094057,322 416.989488,322.895431 416.989488,324 L416.989488,328.671566 C416.989488,329.202003 416.778771,329.710714 416.403694,330.085788 L409.404993,337.087176 C408.62394,337.86822 407.35761,337.868213 406.576566,337.08716 L401.914397,332.413055 C401.13511,331.632235 401.135214,330.367869 401.91463,329.587177 L408.903414,322.586944 C409.27858,322.211163 409.787784,322 410.318784,322 Z M410.318784,323 C410.053284,323 409.798682,323.105582 409.611099,323.293472 L402.622315,330.293704 C402.232607,330.68405 402.232555,331.316234 402.622408,331.706853 L407.282985,336.379366 C407.674198,336.770584 408.307363,336.770587 408.69775,336.380205 L415.696591,329.378677 C415.88413,329.19114 415.989488,328.936785 415.989488,328.671566 L415.989488,324 C415.989488,323.447715 415.541773,323 414.989488,323 L410.318784,323 Z M413,327 C412.447715,327 412,326.552285 412,326 C412,325.447715 412.447715,325 413,325 C413.552285,325 414,325.447715 414,326 C414,326.552285 413.552285,327 413,327 Z" id="shape"></path>
        </g>
    </g>
</svg>