<?xml version="1.0" encoding="UTF-8"?>
<svg width="20px" height="20px" viewBox="0 0 20 20" version="1.1" xmlns="http://www.w3.org/2000/svg" xmlns:xlink="http://www.w3.org/1999/xlink">
    <!-- Generator: Sketch 52.6 (67491) - http://www.bohemiancoding.com/sketch -->
    <title>icon-rotate-20@1x</title>
    <desc>Created with Sketch.</desc>
    <g id="Icon" stroke="none" stroke-width="1" fill="none" fill-rule="evenodd">
        <g id="Index" transform="translate(-1080.000000, -240.000000)" fill="#262F36">
            <path d="M1089.90199,244.012227 C1093.30461,244.219833 1096,247.045145 1096,250.5 C1096,254.089851 1093.08985,257 1089.5,257 L1089.5,256 C1092.53757,256 1095,253.537566 1095,250.5 C1095,247.607426 1092.76703,245.236389 1089.93084,245.016626 L1091.56066,246.646447 L1090.85355,247.353553 L1088,244.5 L1090.85355,241.646447 L1091.56066,242.353553 L1089.90199,244.012227 Z M1087,246.914214 L1083.41421,250.5 L1087,254.085786 L1090.58579,250.5 L1087,246.914214 Z M1087,245.5 L1092,250.5 L1087,255.5 L1082,250.5 L1087,245.5 Z" id="shape"></path>
        </g>
    </g>
</svg>