<?xml version="1.0" encoding="UTF-8"?>
<svg width="24px" height="24px" viewBox="0 0 24 24" version="1.1" xmlns="http://www.w3.org/2000/svg" xmlns:xlink="http://www.w3.org/1999/xlink">
    <!-- Generator: Sketch 52.6 (67491) - http://www.bohemiancoding.com/sketch -->
    <title>icon-overlay-cross-24</title>
    <desc>Created with Sketch.</desc>
    <g id="Icon" stroke="none" stroke-width="1" fill="none" fill-rule="evenodd">
        <g id="Index" transform="translate(-280.000000, -1760.000000)" fill="#262F36">
            <g id="icon/overlay/cross" transform="translate(280.000000, 1760.000000)">
                <path d="M12,21 C7.02943725,21 3,16.9705627 3,12 C3,7.02943725 7.02943725,3 12,3 C16.9705627,3 21,7.02943725 21,12 C21,16.9705627 16.9705627,21 12,21 Z M12,19 C15.8659932,19 19,15.8659932 19,12 C19,8.13400675 15.8659932,5 12,5 C8.13400675,5 5,8.13400675 5,12 C5,15.8659932 8.13400675,19 12,19 Z M12,10.5857864 L14.8284271,7.75735931 L16.2426407,9.17157288 L13.4142136,12 L16.2426407,14.8284271 L14.8284271,16.2426407 L12,13.4142136 L9.17157288,16.2426407 L7.75735931,14.8284271 L10.5857864,12 L7.75735931,9.17157288 L9.17157288,7.75735931 L12,10.5857864 Z" id="shape"></path>
            </g>
        </g>
    </g>
</svg>