<?xml version="1.0" encoding="UTF-8"?>
<svg width="20px" height="20px" viewBox="0 0 20 20" version="1.1" xmlns="http://www.w3.org/2000/svg" xmlns:xlink="http://www.w3.org/1999/xlink">
    <!-- Generator: Sketch 52.6 (67491) - http://www.bohemiancoding.com/sketch -->
    <title>icon-lock-20@1x</title>
    <desc>Created with Sketch.</desc>
    <g id="Icon" stroke="none" stroke-width="1" fill="none" fill-rule="evenodd">
        <g id="Index" transform="translate(-520.000000, -320.000000)" fill="#262F36">
            <path d="M525,327 L525,326.5 C525,324.014719 527.014719,322 529.5,322 C531.985281,322 534,324.014719 534,326.5 L534,327 C535.104569,327 536,327.895431 536,329 L536,335 C536,336.104569 535.104569,337 534,337 L525,337 C523.895431,337 523,336.104569 523,335 L523,329 C523,327.895431 523.895431,327 525,327 Z M526,327 L533,327 L533,326.5 C533,324.567003 531.432997,323 529.5,323 C527.567003,323 526,324.567003 526,326.5 L526,327 Z M525,328 C524.447715,328 524,328.447715 524,329 L524,335 C524,335.552285 524.447715,336 525,336 L534,336 C534.552285,336 535,335.552285 535,335 L535,329 C535,328.447715 534.552285,328 534,328 L525,328 Z" id="shape"></path>
        </g>
    </g>
</svg>