<?xml version="1.0" encoding="UTF-8"?>
<svg width="120px" height="120px" viewBox="0 0 120 120" version="1.1" xmlns="http://www.w3.org/2000/svg" xmlns:xlink="http://www.w3.org/1999/xlink">
    <!-- Generator: Sketch 52.6 (67491) - http://www.bohemiancoding.com/sketch -->
    <title>icon-file-120</title>
    <desc>Created with Sketch.</desc>
    <g id="Icon" stroke="none" stroke-width="1" fill="none" fill-rule="evenodd">
        <g id="Index" transform="translate(-680.000000, -640.000000)" fill="#262F36">
            <path d="M740,743 C763.748244,743 783,723.748244 783,700 C783,676.251756 763.748244,657 740,657 C716.251756,657 697,676.251756 697,700 C697,723.748244 716.251756,743 740,743 Z M740,745 C715.147186,745 695,724.852814 695,700 C695,675.147186 715.147186,655 740,655 C764.852814,655 785,675.147186 785,700 C785,724.852814 764.852814,745 740,745 Z M725,680 L725,720 L755,720 L755,690 L747,690 C745.895431,690 745,689.104569 745,688 L745,680 L725,680 Z M754.171573,688 L747,680.828427 L747,688 L754.171573,688 Z M725,678 L747,678 L757,688 L757,720 C757,721.104569 756.104569,722 755,722 L725,722 C723.895431,722 723,721.104569 723,720 L723,680 C723,678.895431 723.895431,678 725,678 Z M731,688 L741,688 L741,690 L731,690 L731,688 Z M731,710 L749,710 L749,712 L731,712 L731,710 Z M731,699 L749,699 L749,701 L731,701 L731,699 Z" id="shape"></path>
        </g>
    </g>
</svg>