<?xml version="1.0" encoding="UTF-8"?>
<svg width="120px" height="120px" viewBox="0 0 120 120" version="1.1" xmlns="http://www.w3.org/2000/svg" xmlns:xlink="http://www.w3.org/1999/xlink">
    <!-- Generator: Sketch 52.6 (67491) - http://www.bohemiancoding.com/sketch -->
    <title>icon-geofencing-120</title>
    <desc>Created with Sketch.</desc>
    <g id="Icon" stroke="none" stroke-width="1" fill="none" fill-rule="evenodd">
        <g id="Index" transform="translate(-560.000000, -1000.000000)" fill="#262F36">
            <path d="M620,1105 C595.147186,1105 575,1084.85281 575,1060 C575,1035.14719 595.147186,1015 620,1015 C644.852814,1015 665,1035.14719 665,1060 C665,1084.85281 644.852814,1105 620,1105 Z M620,1103 C643.748244,1103 663,1083.74824 663,1060 C663,1036.25176 643.748244,1017 620,1017 C596.251756,1017 577,1036.25176 577,1060 C577,1083.74824 596.251756,1103 620,1103 Z M623.808282,1081.36329 L631.87868,1073.29289 L620,1061.41421 L609.535534,1071.87868 L608.12132,1070.46447 L618.585786,1060 L608.12132,1049.53553 L609.535534,1048.12132 L620,1058.58579 L631.87868,1046.70711 L623.808282,1038.63671 C624.32664,1038.21047 624.772266,1037.699 625.123734,1037.12373 L646.585786,1058.58579 C647.366835,1059.36684 647.366835,1060.63316 646.585786,1061.41421 L625.123734,1082.87627 C624.772266,1082.301 624.32664,1081.78953 623.808282,1081.36329 Z M633.292893,1071.87868 L645.171573,1060 L633.292893,1048.12132 L621.414214,1060 L633.292893,1071.87868 Z M616.353505,1084.3535 L595.646495,1063.6465 C595.144351,1063.87358 594.586938,1064 594,1064 C591.790861,1064 590,1062.20914 590,1060 C590,1057.79086 591.790861,1056 594,1056 C594.586938,1056 595.144351,1056.12642 595.646495,1056.3535 L616.353505,1035.6465 C616.126416,1035.14435 616,1034.58694 616,1034 C616,1031.79086 617.790861,1030 620,1030 C622.209139,1030 624,1031.79086 624,1034 C624,1036.20914 622.209139,1038 620,1038 C619.106731,1038 618.28185,1037.70719 617.616102,1037.21232 L597.212325,1057.6161 C597.707194,1058.28185 598,1059.10673 598,1060 C598,1060.89327 597.707194,1061.71815 597.212325,1062.3839 L617.616102,1082.78768 C618.28185,1082.29281 619.106731,1082 620,1082 C622.209139,1082 624,1083.79086 624,1086 C624,1088.20914 622.209139,1090 620,1090 C617.790861,1090 616,1088.20914 616,1086 C616,1085.41306 616.126416,1084.85565 616.353505,1084.3535 Z M620,1036 C621.104569,1036 622,1035.10457 622,1034 C622,1032.89543 621.104569,1032 620,1032 C618.895431,1032 618,1032.89543 618,1034 C618,1035.10457 618.895431,1036 620,1036 Z M594,1062 C595.104569,1062 596,1061.10457 596,1060 C596,1058.89543 595.104569,1058 594,1058 C592.895431,1058 592,1058.89543 592,1060 C592,1061.10457 592.895431,1062 594,1062 Z M620,1088 C621.104569,1088 622,1087.10457 622,1086 C622,1084.89543 621.104569,1084 620,1084 C618.895431,1084 618,1084.89543 618,1086 C618,1087.10457 618.895431,1088 620,1088 Z" id="shape"></path>
        </g>
    </g>
</svg>