<?xml version="1.0" encoding="UTF-8"?>
<svg width="20px" height="20px" viewBox="0 0 20 20" version="1.1" xmlns="http://www.w3.org/2000/svg" xmlns:xlink="http://www.w3.org/1999/xlink">
    <!-- Generator: Sketch 54.1 (76490) - https://sketchapp.com -->
    <title>icon-assets-20-filled@1x</title>
    <desc>Created with Sketch.</desc>
    <g id="Icon" stroke="none" stroke-width="1" fill="none" fill-rule="evenodd">
        <g id="Index" transform="translate(-480.000000, -1430.000000)" fill="#262F36">
            <path d="M487,1444 L487,1443.5 C487,1442.11929 485.880712,1441 484.5,1441 C483.119288,1441 482,1442.11929 482,1443.5 L482,1444 C481.447715,1444 481,1443.55228 481,1443 L481,1437 C481,1435.89543 481.895431,1435 483,1435 L489,1435 C489.552285,1435 490,1435.44772 490,1436 L490,1443 C490,1443.55228 489.552285,1444 489,1444 L487,1444 L487,1444 Z M484.5,1445 C483.671573,1445 483,1444.32843 483,1443.5 C483,1442.67157 483.671573,1442 484.5,1442 C485.328427,1442 486,1442.67157 486,1443.5 C486,1444.32843 485.328427,1445 484.5,1445 Z M497,1444 L497,1443.5 C497,1442.11929 495.880712,1441 494.5,1441 C493.119288,1441 492,1442.11929 492,1443.5 L492,1444 C491.447715,1444 491,1443.55228 491,1443 L491,1438 C491,1437.44772 491.447715,1437 492,1437 L494.171573,1437 C494.702006,1437 495.210714,1437.21071 495.585786,1437.58579 L497.414214,1439.41421 C497.789286,1439.78929 498,1440.29799 498,1440.82843 L498,1443 C498,1443.55228 497.552285,1444 497,1444 L497,1444 Z M494.5,1445 C493.671573,1445 493,1444.32843 493,1443.5 C493,1442.67157 493.671573,1442 494.5,1442 C495.328427,1442 496,1442.67157 496,1443.5 C496,1444.32843 495.328427,1445 494.5,1445 Z" id="Shape"></path>
        </g>
    </g>
</svg>