<?xml version="1.0" encoding="UTF-8"?>
<svg width="120px" height="120px" viewBox="0 0 120 120" version="1.1" xmlns="http://www.w3.org/2000/svg" xmlns:xlink="http://www.w3.org/1999/xlink">
    <!-- Generator: Sketch 52.6 (67491) - http://www.bohemiancoding.com/sketch -->
    <title>icon-scorecards-new-120</title>
    <desc>Created with Sketch.</desc>
    <g id="Icon" stroke="none" stroke-width="1" fill="none" fill-rule="evenodd">
        <g id="Index" transform="translate(-320.000000, -1000.000000)" fill="#262F36">
            <path d="M417.644241,1039.20117 L420.718288,1040.8173 C423.46446,1046.63628 425,1053.13882 425,1060 C425,1084.85281 404.852814,1105 380,1105 C355.147186,1105 335,1084.85281 335,1060 C335,1035.14719 355.147186,1015 380,1015 C387.478902,1015 394.531673,1016.82448 400.737513,1020.05264 L397.180566,1020.56949 C391.918516,1018.27351 386.10798,1017 380,1017 C356.251756,1017 337,1036.25176 337,1060 C337,1083.74824 356.251756,1103 380,1103 C403.748244,1103 423,1083.74824 423,1060 C423,1052.45557 421.057054,1045.36493 417.644241,1039.20117 Z M381,1068.96926 L381,1079 L391,1079 C392.104569,1079 393,1079.89543 393,1081 L393,1083 C393,1084.10457 392.104569,1085 391,1085 L369,1085 C367.895431,1085 367,1084.10457 367,1083 L367,1081 C367,1079.89543 367.895431,1079 369,1079 L379,1079 L379,1068.96926 C371.792654,1068.5248 365.876342,1063.30889 364.371033,1056.4415 C359.51747,1054.90347 356,1050.36251 356,1045 C356,1041.68629 358.686292,1039 362,1039 L364,1039 C364,1037.89543 364.895431,1037 366,1037 L394,1037 C395.104569,1037 396,1037.89543 396,1039 L398,1039 C401.313708,1039 404,1041.68629 404,1045 C404,1050.36251 400.48253,1054.90347 395.628967,1056.4415 C394.123658,1063.30889 388.207346,1068.5248 381,1068.96926 Z M364,1041 L362,1041 C359.790861,1041 358,1042.79086 358,1045 C358,1049.0726 360.453975,1052.64312 364.043466,1054.1884 C364.014658,1053.79603 364,1053.39973 364,1053 L364,1041 Z M395.956534,1054.1884 C399.546025,1052.64312 402,1049.0726 402,1045 C402,1042.79086 400.209139,1041 398,1041 L396,1041 L396,1053 C396,1053.39973 395.985342,1053.79603 395.956534,1054.1884 Z M369,1081 L369,1083 L391,1083 L391,1081 L369,1081 Z M394,1053 L394,1039 L366,1039 L366,1053 C366,1060.73199 372.268014,1067 380,1067 C387.731986,1067 394,1060.73199 394,1053 Z M418.170594,1029.70753 C418.053755,1029.02631 418.279607,1028.33121 418.774547,1027.84876 L422.967925,1023.76122 L417.172819,1022.91915 C416.488828,1022.81976 415.89754,1022.39016 415.59165,1021.77036 L413,1016.5191 L410.40835,1021.77036 C410.10246,1022.39016 409.511172,1022.81976 408.827181,1022.91915 L403.032075,1023.76122 L407.225453,1027.84876 C407.720393,1028.33121 407.946245,1029.02631 407.829406,1029.70753 L406.839483,1035.47922 L412.022784,1032.7542 C412.634564,1032.43257 413.365436,1032.43257 413.977216,1032.7542 L419.160517,1035.47922 L418.170594,1029.70753 Z M405.976693,1038.19237 C405.487849,1038.44937 404.883222,1038.26143 404.626221,1037.77258 C404.523882,1037.57792 404.488567,1037.35495 404.525744,1037.13819 L405.858189,1029.36944 C405.863753,1029.337 405.852998,1029.3039 405.829429,1029.28093 L400.185102,1023.77907 C399.789618,1023.39357 399.781526,1022.76046 400.167027,1022.36497 C400.320536,1022.20749 400.521678,1022.105 400.739315,1022.07338 L408.539584,1020.93993 C408.572155,1020.9352 408.600311,1020.91474 408.614878,1020.88523 L412.103264,1013.81699 C412.347686,1013.32173 412.947312,1013.11839 413.442566,1013.36282 C413.639778,1013.46015 413.799406,1013.61977 413.896736,1013.81699 L417.385122,1020.88523 C417.399689,1020.91474 417.427845,1020.9352 417.460416,1020.93993 L425.260685,1022.07338 C425.80723,1022.1528 426.185911,1022.66024 426.106494,1023.20678 C426.074869,1023.42442 425.972382,1023.62556 425.814898,1023.77907 L420.170571,1029.28093 C420.147002,1029.3039 420.136247,1029.337 420.141811,1029.36944 L421.474256,1037.13819 C421.567617,1037.68253 421.202029,1038.19949 420.657693,1038.29285 C420.440935,1038.33002 420.217967,1038.29471 420.023307,1038.19237 L413.046534,1034.52446 C413.017402,1034.50915 412.982598,1034.50915 412.953466,1034.52446 L405.976693,1038.19237 Z" id="shape"></path>
        </g>
    </g>
</svg>