<?xml version="1.0" encoding="utf-8"?>
<!-- Generator: Adobe Illustrator 23.0.2, SVG Export Plug-In . SVG Version: 6.00 Build 0)  -->
<svg version="1.1" xmlns="http://www.w3.org/2000/svg" xmlns:xlink="http://www.w3.org/1999/xlink" x="0px" y="0px"
	 viewBox="0 0 720 480" style="enable-background:new 0 0 720 480;" xml:space="preserve">
<style type="text/css">
	.st0{opacity:0.2;enable-background:new    ;}
	.st1{opacity:0.102;}
	.st2{fill:#ABB7C2;}
	.st3{fill:#BEC8D1;}
	.st4{fill:#DBE1E7;}
	.st5{fill:#FFFFFF;}
	.st6{opacity:0.4;}
	.st7{fill:#607587;}
	.st8{opacity:0.2;}
	.st9{fill:#EDEDED;}
	.st10{fill:#25496F;}
	.st11{fill:#3D79B9;}
	.st12{fill:#4E6273;}
	.st13{opacity:0.9882;}
	.st14{fill:#3A4651;}
	.st15{fill:#2D68A7;}
</style>
<g id="Rectangle_2_copy_1_" class="st0">
	<g id="Rectangle_2_copy">
		<g>
			<path d="M212.2,0c26.1,24.8,45.8,53.6,48.2,91.4c3.5,54.8,2.6,107.6,44.9,145.9c31.3,28.4,73.8,34.7,125.5,22.3
				c37.1-8.9,51.5-2.7,72.5,1c21,3.7,41.5-13.4,41.5-13.4l4.6,7.9c0,0-4.5,1.9-6.8,3.6c-8.6,6.3-17.1,19.2-17.5,32.2
				c-0.4,16.5,7.1,39.2-1.2,64.4c-19.9,60.1,23.9,89.4,76.5,93.4c76,5.8,118.7-28.5,118.7-28.5L720,0H212.2z"/>
		</g>
	</g>
</g>
<g id="Group_2_copy_1_">
	<g id="Shape_5" class="st1">
		<g>
			<path d="M684.1,301.1c-1.3-9.9-110.6-73.6-110.6-73.6l-11.8-1.1l-5.5-75.8l-19.9-11.1c0,0-21.5-1.9-21.8,5.6
				c-0.6,16.4-0.1,37.8,0.9,42c1,4.2,23.1,18.1,26.6,21.3c3.5,3.2,3.3,5.4,3.3,9.7c0,4.3,0.6,20.3,0.6,20.3l-6.9-0.5
				c0,0-6.1,2.5-6,5.7c0.1,3.2,12.2,22.1,14.1,25.4c3.6,6.3,9.6,1.3,15.9-2.4c9.8-5.8,19.8-11.2,35.5,4.4
				c15.7,15.6,40.4,44.6,53.5,46C665.3,318.5,685.5,310.9,684.1,301.1z"/>
		</g>
	</g>
	<g id="Rectangle_12">
		<g>
			
				<rect x="606.5" y="211.4" transform="matrix(0.8594 -0.5113 0.5113 0.8594 -23.8277 343.0782)" class="st2" width="10.9" height="6.9"/>
		</g>
	</g>
	<g id="Shape_3">
		<g>
			<path class="st3" d="M689.1,290.2c-9.9-9.6-30.1-29.3-45.7-44.6c0,0,0,0,0,0c-0.6-0.7-7-7.4-8.9-12.9c-0.9-2.5-0.4-4.4,0.3-5.5
				c0.6-1,1.1-1.6,0.5-2.5c-0.8-1.4-2.4-4-3.5-5.8c-1-1.8-1.8-2-3.5-1c-1.8,1.1-4.5,2.7-7.3,4.3c-0.4,0.2-1.7,0.9-2.7,1
				c-1.3,0-2.7-1.2-5.5-3.5c-2.1-1.8-5.4-4.8-7.5-6.9c-2.4-2.4-2.2-2.4-6.3,0.1c-1.2,0.7-2.5,1.5-4,2.4c-2.5,1.5-5.5,3.2-8.4,5
				c-4.4,2.6-7.8-2.8-4.8-6.1c2.8-3.1,5.5-1.9,7.7-2.1c2.2-0.2-3.4-4.9-5.6-5.3s-6.3,4.9-9.2,8.9c-2,2.8-3.6,5.1-4.6,6.7l-0.2-17.9
				l-15.1,0.2l0.4,27.3l-14.4,8.6l12.3,20.7l21.2-12.6c0,0,4.5-1.4,10.6-2.9c4.4-1.1,10,3,15.8,8.3c8.5,8.5,33.2,32.9,51,49.6
				c13.6,12.8,23.4,12.9,35.8,1.4C692.1,300.3,696.9,297.8,689.1,290.2z"/>
		</g>
	</g>
	<g id="Shape_4">
		<g>
			<path class="st4" d="M689.1,290.2c-9.9-9.6-30.1-29.3-45.7-44.6c0,0,0,0,0,0c-0.6-0.7-7-7.4-8.9-12.9c-0.9-2.5-0.4-4.4,0.3-5.5
				c0.6-1,1.1-1.6,0.5-2.5c-0.8-1.4-2.4-4-3.5-5.8c-1-1.8-1.8-2-3.5-1c-1.8,1.1-4.5,2.7-7.3,4.3c-0.4,0.2-1.7,0.9-2.7,1
				c-1.3,0-2.7-1.2-5.5-3.5c-2.1-1.8-5.4-4.8-7.5-6.9c-2-2-2.2-2.4-4.9-0.8l14.3,13.2c0,0,0.7,0.7,2.9-0.4
				c2.2-1.1,10.3-5.9,11.5-6.2c1.2-0.3,3.3,4.2,4.2,5.7c0.8,1.6-8,7.1-1.5,15.7c6.6,8.6,46.2,46,50.6,49.8
				c4.3,3.6,10.3,8.1,8.8,11.6C693.8,298.5,694.7,295.6,689.1,290.2z"/>
		</g>
	</g>
	<g id="Shape_2_copy">
		<g>
			<ellipse transform="matrix(0.7136 -0.7006 0.7006 0.7136 -3.0018 469.7133)" class="st2" cx="572.9" cy="238.5" rx="7" ry="7"/>
		</g>
	</g>
	<g id="Polygon_1">
		<g>
			<polygon class="st2" points="602.9,227.9 601,224.8 597.8,223 594.1,223 590.9,224.9 589.1,228.1 589.1,231.8 591,235 
				594.3,236.8 598,236.7 601.1,234.9 602.9,231.6 			"/>
		</g>
	</g>
	<g id="Polygon_1_copy">
		<g>
			<polygon class="st4" points="602.1,228.2 600.4,225.4 597.6,223.8 594.3,223.8 591.5,225.5 589.9,228.3 589.9,231.6 591.6,234.4 
				594.5,236 597.7,236 600.5,234.3 602.1,231.4 			"/>
		</g>
	</g>
	<g id="Shape_2">
		<g>
			<path class="st4" d="M584.7,251.4c-2.7-4.8-5.7-9.6-5.7-9.6l-0.4-0.7c0.8-1.8,0.8-3.9-0.3-5.7c-1.8-3-5.6-3.9-8.5-2.2
				c-3,1.8-3.9,5.6-2.2,8.5c1.1,1.9,3.1,3,5.1,3c0.1,0.1,0.1,0.2,0.2,0.4c1,2,0.5,2.8,3.4,7.6s6.4,7.2,7.8,11.1
				c1.1,3.1,1.1,6,0.9,8.7c-0.2,2-0.9,4.2-0.2,4.8c1.9,1.6,3.6-4.3,4.5-7C591.6,262.7,587.2,255.7,584.7,251.4z"/>
		</g>
	</g>
	<g id="Rectangle_11">
		<g>
			
				<rect x="555.7" y="233" transform="matrix(0.8594 -0.5113 0.5113 0.8594 -47.078 318.8601)" class="st2" width="1.1" height="24.1"/>
		</g>
	</g>
	<g id="Rectangle_6_copy">
		<g>
			<path class="st3" d="M563.5,258.2l-15.2-25.5c-0.3-0.5-1-0.7-1.5-0.4l-7.3,4.3c-0.5,0.3-0.7,1-0.4,1.5l15.2,25.5
				c0.3,0.5,1,0.7,1.5,0.4l7.3-4.3C563.6,259.3,563.8,258.7,563.5,258.2z"/>
		</g>
	</g>
	<g id="Rounded_Rectangle_2">
		<g>
			<path class="st2" d="M547.6,234c-0.2-0.4-0.7-0.5-1.1-0.3L541,237c-0.4,0.2-0.5,0.7-0.3,1.1c0.2,0.4,0.7,0.5,1.1,0.3l5.5-3.3
				C547.7,234.9,547.8,234.4,547.6,234z"/>
		</g>
	</g>
	<g id="Rounded_Rectangle_2_copy">
		<g>
			<path class="st5" d="M547.6,234l-6.8,4.1c0.2,0.4,0.7,0.5,1.1,0.3l5.5-3.3C547.7,234.9,547.8,234.4,547.6,234z"/>
		</g>
	</g>
	<g id="Rounded_Rectangle_2_1_">
		<g>
			<path class="st2" d="M550.3,238.6c-0.2-0.4-0.7-0.5-1.1-0.3l-5.5,3.3c-0.4,0.2-0.5,0.7-0.3,1.1c0.2,0.4,0.7,0.5,1.1,0.3l5.5-3.3
				C550.4,239.4,550.5,239,550.3,238.6z"/>
		</g>
	</g>
	<g id="Rounded_Rectangle_2_2_">
		<g>
			<path class="st2" d="M553.3,243.6c-0.2-0.4-0.7-0.5-1.1-0.3l-5.5,3.3c-0.4,0.2-0.5,0.7-0.3,1.1c0.2,0.4,0.7,0.5,1.1,0.3l5.5-3.3
				C553.4,244.5,553.5,244,553.3,243.6z"/>
		</g>
	</g>
	<g id="Rounded_Rectangle_2_3_">
		<g>
			<path class="st2" d="M556.5,249.1c-0.2-0.4-0.7-0.5-1.1-0.3L550,252c-0.4,0.2-0.5,0.7-0.3,1.1c0.2,0.4,0.7,0.5,1.1,0.3l5.5-3.3
				C556.6,249.9,556.7,249.4,556.5,249.1z"/>
		</g>
	</g>
	<g id="Rounded_Rectangle_2_4_">
		<g>
			<path class="st2" d="M559.5,254.1c-0.2-0.4-0.7-0.5-1.1-0.3l-5.5,3.3c-0.4,0.2-0.5,0.7-0.3,1.1c0.2,0.4,0.7,0.5,1.1,0.3l5.5-3.3
				C559.6,254.9,559.7,254.5,559.5,254.1z"/>
		</g>
	</g>
	<g id="Rounded_Rectangle_2_5_">
		<g>
			<path class="st2" d="M561.9,258.2c-0.2-0.4-0.7-0.5-1.1-0.3l-5.5,3.3c-0.4,0.2-0.5,0.7-0.3,1.1c0.2,0.4,0.7,0.5,1.1,0.3l5.5-3.3
				C562,259,562.2,258.6,561.9,258.2z"/>
		</g>
	</g>
	<g id="Rectangle_6_copy_1_">
		<g>
			<path class="st3" d="M625.5,211.4l-4.1-6.8c-0.3-0.5-1-0.7-1.5-0.4l-7.7,4.6c-0.5,0.3-0.7,1-0.4,1.5l4.1,6.8
				c0.3,0.5,1,0.7,1.5,0.4l7.7-4.6C625.6,212.6,625.8,211.9,625.5,211.4z"/>
		</g>
	</g>
	<g id="Rounded_Rectangle_2_6_">
		<g>
			<path class="st2" d="M620.9,204.9c-0.1-0.3-0.5-0.3-0.7-0.2l-7.7,4.6c-0.3,0.1-0.3,0.5-0.2,0.7s0.5,0.3,0.7,0.2l7.7-4.6
				C621,205.4,621.1,205.1,620.9,204.9z"/>
		</g>
	</g>
	<g id="Rounded_Rectangle_2_copy_1_">
		<g>
			<path class="st5" d="M620.9,204.9l-8.7,5.2c0.1,0.3,0.7,0.2,1.1-0.1l6.9-4.1C620.8,205.6,621.1,205.1,620.9,204.9z"/>
		</g>
	</g>
	<g id="Rounded_Rectangle_2_7_">
		<g>
			<path class="st2" d="M621.8,206.2c-0.1-0.3-0.5-0.3-0.7-0.2l-7.7,4.6c-0.3,0.1-0.3,0.5-0.2,0.7c0.1,0.3,0.5,0.3,0.7,0.2l7.7-4.6
				C621.8,206.8,621.9,206.5,621.8,206.2z"/>
		</g>
	</g>
	<g id="Rounded_Rectangle_2_8_">
		<g>
			<path class="st2" d="M622.6,207.6c-0.1-0.3-0.5-0.3-0.7-0.2l-7.7,4.6c-0.3,0.1-0.3,0.5-0.2,0.7c0.1,0.3,0.5,0.3,0.7,0.2l7.7-4.6
				C622.6,208.2,622.7,207.9,622.6,207.6z"/>
		</g>
	</g>
	<g id="Rounded_Rectangle_2_9_">
		<g>
			<path class="st2" d="M623.4,209c-0.1-0.3-0.5-0.3-0.7-0.2l-7.7,4.6c-0.3,0.1-0.3,0.5-0.2,0.7c0.1,0.3,0.5,0.3,0.7,0.2l7.7-4.6
				C623.4,209.6,623.5,209.2,623.4,209z"/>
		</g>
	</g>
	<g id="Rounded_Rectangle_2_10_">
		<g>
			<path class="st2" d="M624.2,210.3c-0.1-0.3-0.5-0.3-0.7-0.2l-7.7,4.6c-0.3,0.1-0.3,0.5-0.2,0.7c0.1,0.3,0.5,0.3,0.7,0.2l7.7-4.6
				C624.3,210.9,624.3,210.6,624.2,210.3z"/>
		</g>
	</g>
	<g id="Rounded_Rectangle_2_11_">
		<g>
			<path class="st2" d="M625,211.7c-0.1-0.3-0.5-0.3-0.7-0.2l-7.7,4.6c-0.3,0.1-0.3,0.5-0.2,0.7c0.1,0.3,0.5,0.3,0.7,0.2l7.7-4.6
				C625.1,212.3,625.2,212,625,211.7z"/>
		</g>
	</g>
	<g id="Rounded_Rectangle_1">
		<g>
			<path class="st5" d="M589.6,178.7l-0.5-41.4l-0.1-4l0-2.1c-0.1-5.9-4.9-10.5-10.7-10.5l-34.5,0.5c-5.9,0.1-10.5,4.9-10.5,10.7
				l0,2.1l0.1,4l0.5,41.4l17.9,13l0.2,13.3l20.2-0.3l-0.2-13.3L589.6,178.7z"/>
		</g>
	</g>
	<g id="Rectangle_10" class="st6">
		<g>
			
				<rect x="551.9" y="192.4" transform="matrix(0.9999 -1.309108e-02 1.309108e-02 0.9999 -2.5581 7.2702)" class="st7" width="4.2" height="13.3"/>
		</g>
	</g>
	<g id="Rectangle_9">
		<g>
			<polygon class="st3" points="533.9,179.4 551.8,192.4 572,192.2 589.6,178.7 			"/>
		</g>
	</g>
	<g id="Shape_1" class="st8">
		<g>
			<polygon class="st7" points="547.8,179.2 533.9,179.4 551.8,192.4 556.2,192.4 			"/>
		</g>
	</g>
	<g id="Rounded_Rectangle_1_copy" class="st8">
		<g>
			<path class="st3" d="M546.9,121.2l-3.2,0c-5.9,0.1-10.5,4.9-10.5,10.7l0.6,47.5l13.8-0.2L546.9,121.2z"/>
		</g>
	</g>
</g>
<g id="Group_1_1_">
	<g id="Rectangle_1" class="st1">
		<g>
			<path d="M327.8,117.1l-10.3,10.3c-20.2,20.2-20.2,53.1,0,73.3c20.2,20.2,53.1,20.2,73.3,0l10.9-10.9v-72.7H327.8z"/>
		</g>
	</g>
	<g id="Rectangle_3">
		<g>
			<path class="st7" d="M382.7,71C347,71,318,100,318,135.7c0,35.6,28.8,64.5,64.3,64.7v0h1V71C383.1,71,382.9,71,382.7,71z
				 M382.3,199.2c-35-0.1-63.4-28.6-63.4-63.6c0-35,28.3-63.5,63.4-63.6V199.2z"/>
		</g>
	</g>
	<g id="Ellipse_3">
		<g>
			<path class="st5" d="M382.8,71c-2,0-3.6,1.6-3.6,3.6s1.6,3.6,3.6,3.6c2,0,3.6-1.6,3.6-3.6S384.8,71,382.8,71z"/>
		</g>
	</g>
	<g id="Ellipse_3_copy">
		<g>
			<path class="st7" d="M382.8,193.2c-2,0-3.6,1.6-3.6,3.6s1.6,3.6,3.6,3.6c2,0,3.6-1.6,3.6-3.6S384.8,193.2,382.8,193.2z"/>
		</g>
	</g>
	<g id="Ellipse_1_copy_5">
		<g>
			<circle class="st3" cx="382.7" cy="135.7" r="61.1"/>
		</g>
	</g>
	<g id="Ellipse_1">
		<g>
			
				<ellipse transform="matrix(0.9571 -0.2898 0.2898 0.9571 -22.9391 116.758)" class="st9" cx="382.8" cy="135.8" rx="55.2" ry="55.2"/>
		</g>
	</g>
	<g id="Ellipse_1_copy_2">
		<g>
			
				<ellipse transform="matrix(0.7071 -0.7071 0.7071 0.7071 16.1158 310.3471)" class="st10" cx="382.7" cy="135.7" rx="51.7" ry="51.7"/>
		</g>
	</g>
	<g id="Ellipse_1_copy_3">
		<g>
			<path class="st11" d="M373.3,93.4c-11.9,0-22.9,4-31.6,10.8c-6.8,8.7-10.8,19.7-10.8,31.6c0,28.6,23.2,51.7,51.7,51.7
				c11.9,0,22.9-4,31.6-10.8c6.8-8.7,10.8-19.7,10.8-31.6C425,116.5,401.9,93.4,373.3,93.4z"/>
		</g>
	</g>
	<g id="Shape_6">
		<g>
			<path class="st5" d="M353.5,160.6c-3.3-4.6-6.4-9.6-7.9-11.8c-2.8-4.2-6-2.1-4.6,2.9c0.9,3.1,2.4,6.6,6.5,11.8
				c5.2,6.5,12.6,9.5,12.2,6.5C359.6,168.5,356.5,164.7,353.5,160.6z"/>
		</g>
	</g>
</g>
<g id="Group_1_copy_3_1_">
	<g id="Rectangle_1_1_" class="st1">
		<g>
			<path d="M471.9,77.2l-5.1,5.1c-10.1,10.1-10.1,26.5,0,36.7s26.5,10.1,36.7,0l5.4-5.4V77.2H471.9z"/>
		</g>
	</g>
	<g id="Ellipse_1_copy_5_1_">
		<g>
			
				<ellipse transform="matrix(0.974 -0.2264 0.2264 0.974 -6.0132 115.758)" class="st3" cx="501.7" cy="84.1" rx="30.5" ry="30.5"/>
		</g>
	</g>
	<g id="Ellipse_1_1_">
		<g>
			
				<ellipse transform="matrix(0.3218 -0.9468 0.9468 0.3218 260.5568 532.1273)" class="st9" cx="501.7" cy="84.2" rx="27.6" ry="27.6"/>
		</g>
	</g>
	<g id="Ellipse_1_copy_2_1_">
		<g>
			
				<ellipse transform="matrix(0.3827 -0.9239 0.9239 0.3827 232.0033 515.4575)" class="st12" cx="501.7" cy="84.1" rx="25.8" ry="25.8"/>
		</g>
	</g>
	<g id="Ellipse_1_copy_3_1_">
		<g>
			<path class="st7" d="M501.7,58.3c-5.9,0-11.4,2-15.8,5.4c-3.4,4.4-5.4,9.8-5.4,15.8c0,14.2,11.6,25.8,25.8,25.8
				c5.9,0,11.4-2,15.8-5.4c3.4-4.4,5.4-9.8,5.4-15.8C527.5,69.9,516,58.3,501.7,58.3z"/>
		</g>
	</g>
	<g id="Ellipse_1_copy_6">
		<g>
			
				<ellipse transform="matrix(1 -9.207333e-03 9.207333e-03 1 -0.7521 4.6242)" class="st3" cx="501.8" cy="84" rx="13.9" ry="13.9"/>
		</g>
	</g>
	<g id="Ellipse_1_copy">
		<g>
			
				<ellipse transform="matrix(1.857934e-03 -1 1 1.857934e-03 416.878 585.7286)" class="st9" cx="501.8" cy="84" rx="12.6" ry="12.6"/>
		</g>
	</g>
	<g id="Ellipse_1_copy_7">
		<g>
			
				<ellipse transform="matrix(0.9999 -1.592728e-02 1.592728e-02 0.9999 -1.2742 8.0036)" class="st3" cx="501.8" cy="84" rx="7.2" ry="7.2"/>
		</g>
	</g>
	<g id="Ellipse_1_copy_4">
		<g>
			<path class="st9" d="M505.1,78.7c-2.9-1.8-6.8-0.9-8.6,2c-1.8,2.9-0.9,6.8,2,8.6c2.9,1.8,6.8,0.9,8.6-2
				C509,84.4,508.1,80.5,505.1,78.7z"/>
		</g>
	</g>
	<g id="Rectangle_1_copy" class="st13">
		<g>
			<path class="st3" d="M497.6,81.8l-0.9,0.9c-1.8,1.8-1.8,4.6,0,6.4c1.8,1.8,4.6,1.8,6.4,0l0.9-1v-6.4H497.6z"/>
		</g>
	</g>
	<g id="Ellipse_1_copy_9">
		<g>
			<path class="st14" d="M504.1,80.3c-2-1.3-4.7-0.6-6,1.4c-1.3,2-0.6,4.7,1.4,6c2,1.3,4.7,0.6,6-1.4
				C506.8,84.3,506.1,81.6,504.1,80.3z"/>
		</g>
	</g>
</g>
<g id="Group_1_copy_5_1_">
	<g id="Rectangle_1_2_" class="st1">
		<g>
			<path d="M720,179.4h-30.9l-5.1,5.1c-10.1,10.1-10.1,26.5,0,36.7c9.9,9.9,25.9,10.1,36.1,0.6V179.4z"/>
		</g>
	</g>
	<g id="Ellipse_1_copy_5_2_">
		<g>
			<path class="st3" d="M720,155.8c-10.6-0.4-21,4.8-27,14.4c-8.9,14.3-4.5,33.2,9.8,42.1c5.4,3.3,11.4,4.8,17.2,4.6V155.8z"/>
		</g>
	</g>
	<g id="Ellipse_1_2_">
		<g>
			<path class="st9" d="M720,158.8c-9.6-0.4-19.1,4.3-24.5,13c-8.1,12.9-4.1,30,8.8,38c4.9,3,10.3,4.4,15.7,4.2V158.8z"/>
		</g>
	</g>
	<g id="Ellipse_1_copy_2_2_">
		<g>
			<path class="st15" d="M720,160.6c-0.4,0-0.7,0-1.1,0c-14.2,0-25.8,11.6-25.8,25.8s11.6,25.8,25.8,25.8c0.4,0,0.7,0,1.1,0V160.6z"
				/>
		</g>
	</g>
	<g id="Ellipse_1_copy_3_2_">
		<g>
			<path class="st11" d="M720,160.6c-0.4,0-0.7,0-1.1,0c-5.9,0-11.4,2-15.8,5.4c-3.4,4.4-5.4,9.8-5.4,15.8c0,13,9.7,23.8,22.2,25.5
				V160.6z"/>
		</g>
	</g>
	<g id="Ellipse_1_copy_6_1_">
		<g>
			<path class="st3" d="M720,172.4c-5-0.3-10,2-12.8,6.5c-4.1,6.5-2.1,15.1,4.5,19.2c2.6,1.6,5.5,2.3,8.3,2.1V172.4z"/>
		</g>
	</g>
	<g id="Ellipse_1_copy_1_">
		<g>
			<path class="st9" d="M720,173.7c-4.5-0.3-9.1,1.8-11.6,5.9c-3.7,5.9-1.9,13.7,4,17.3c2.4,1.5,5,2.1,7.6,1.9V173.7z"/>
		</g>
	</g>
	<g id="Ellipse_1_copy_7_1_">
		<g>
			<path class="st3" d="M720,179.1c-2.7-0.4-5.5,0.8-7.1,3.3c-2.1,3.4-1.1,7.8,2.3,9.9c1.5,0.9,3.2,1.2,4.8,1V179.1z"/>
		</g>
	</g>
	<g id="Ellipse_1_copy_4_1_">
		<g>
			<path class="st9" d="M720,180.1c-2.4-0.4-4.9,0.7-6.3,2.9c-1.8,2.9-0.9,6.8,2,8.6c1.3,0.8,2.8,1.1,4.3,0.9V180.1z"/>
		</g>
	</g>
	<g id="Rectangle_1_copy_1_" class="st13">
		<g>
			<path class="st3" d="M720,184.1h-5.2l-0.9,0.9c-1.8,1.8-1.8,4.6,0,6.4c1.7,1.7,4.4,1.7,6.1,0.2V184.1z"/>
		</g>
	</g>
	<g id="Ellipse_1_copy_9_1_">
		<g>
			<path class="st14" d="M720,182c-1.7-0.4-3.6,0.3-4.6,1.9c-1.3,2-0.6,4.7,1.4,6c1,0.6,2.2,0.8,3.2,0.5V182z"/>
		</g>
	</g>
</g>
<g id="Group_1_copy_4_1_">
	<g id="Rectangle_1_3_" class="st1">
		<g>
			<path d="M350.2,2L345,7.2c-10.3,10.3-10.3,27.1,0,37.4c10.3,10.3,27.1,10.3,37.4,0l5.6-5.6V2H350.2z"/>
		</g>
	</g>
	<g id="Rectangle_3_1_">
		<g>
			<path class="st7" d="M405,29.7c-10.1,14.8-30.2,18.6-45,8.6c-12.7-8.6-17.3-24.6-12.2-38.3h-0.5c-5.1,13.9-0.4,30,12.5,38.7
				c15,10.2,35.5,6.3,45.7-8.6l0,0l0.1-0.2l0.2-0.3l0,0l-0.5-0.3L362,0h-0.9L405,29.7z"/>
		</g>
	</g>
	<g id="Ellipse_3_1_">
	</g>
	<g id="Ellipse_3_copy_1_">
		<g>
			<path class="st5" d="M405.1,27.3c-0.8-0.6-2-0.4-2.6,0.5c-0.6,0.8-0.4,2,0.5,2.6c0.8,0.6,2,0.4,2.6-0.5S406,27.9,405.1,27.3z"/>
		</g>
	</g>
	<g id="Ellipse_1_copy_5_3_">
		<g>
			<path class="st3" d="M360.8,37.2c14.3,9.7,33.6,5.9,43.3-8.3c6-8.8,6.8-19.7,3.2-28.9h-58C344,13.3,348.4,28.9,360.8,37.2z"/>
		</g>
	</g>
	<g id="Ellipse_1_3_">
		<g>
			<path class="st9" d="M362.5,34.7c12.9,8.7,30.4,5.4,39.1-7.5c5.7-8.3,6.2-18.6,2.4-27.2h-51.5C347.1,12.2,351.1,26.9,362.5,34.7z
				"/>
		</g>
	</g>
	<g id="Ellipse_1_copy_2_3_">
		<g>
			<path class="st14" d="M351.8,11.5c0,14.6,11.8,26.4,26.4,26.4s26.4-11.8,26.4-26.4c0-4.1-0.9-8-2.6-11.5h-47.6
				C352.8,3.5,351.8,7.4,351.8,11.5z"/>
		</g>
	</g>
	<g id="Ellipse_1_copy_3_3_">
		<g>
			<path class="st7" d="M351.8,11.5c0,14.6,11.8,26.4,26.4,26.4c6.1,0,11.7-2.1,16.1-5.5c3.4-4.5,5.5-10.1,5.5-16.1
				c0-6.1-2.1-11.8-5.6-16.3h-39.8C352.8,3.5,351.8,7.4,351.8,11.5z"/>
		</g>
	</g>
</g>
<g id="Group_4_copy_1_">
	<g id="Rectangle_5_copy" class="st1">
		<g>
			<path d="M668.7,67.6l-8.9-3.4L631.5,0h-21l31.8,71.9l0,0l0,0l-3.4,8.9l12.8,29l6.1-2.7l17.6-7.8l11.6-13.2L668.7,67.6z
				 M495.3,0.5L495.3,0.5L495.3,0.5L494.1,0h-31l-2.9,16l7.8,17.6l2.7,6.1l29-12.8L503,18l40.8-18h-47.5L495.3,0.5z"/>
		</g>
	</g>
	<g id="Rectangle_4_copy">
		<g>
			<polygon class="st3" points="525.4,0 505.4,0 508.6,7.4 			"/>
		</g>
	</g>
	<g id="Rectangle_4_copy_2">
	</g>
	<g id="Rectangle_4">
		<g>
			<polygon class="st3" points="476.2,29.1 505.2,16.3 508.6,7.4 505.4,0 463.4,0 			"/>
		</g>
	</g>
	<g id="Rectangle_5">
		<g>
			<polygon class="st5" points="477.9,0 463.4,0 465.7,5.4 			"/>
		</g>
	</g>
	<g id="Rectangle_5_copy_1_">
		<g>
			<polygon class="st7" points="473.5,22.9 476.2,29.1 505.2,16.3 508.6,7.4 			"/>
		</g>
	</g>
	<g id="Rectangle_4_1_">
	</g>
	<g id="Rectangle_5_1_">
	</g>
	<g id="Rectangle_5_copy_2_">
	</g>
	<g id="Rectangle_4_copy_1_">
		<g>
			<polygon class="st3" points="647.9,61.3 665.5,53.6 641.8,0 620.8,0 			"/>
		</g>
	</g>
	<g id="Rectangle_4_copy_2_1_">
		<g>
			<polygon class="st5" points="656.7,57.4 665.5,53.6 641.8,0 631.3,0 			"/>
		</g>
	</g>
	<g id="Rectangle_4_2_">
	</g>
	<g id="Rectangle_5_2_">
	</g>
	<g id="Rectangle_5_copy_3_">
	</g>
	<g id="Rectangle_4_3_">
		<g>
			<polygon class="st3" points="674.3,57 665.4,53.6 647.9,61.3 644.5,70.2 657.3,99.2 687.1,86 			"/>
		</g>
	</g>
	<g id="Rectangle_5_3_">
		<g>
			<polygon class="st5" points="674.3,57 665.5,53.6 681,88.7 687.1,86 			"/>
		</g>
	</g>
	<g id="Rectangle_5_copy_4_">
		<g>
			<polygon class="st7" points="647.9,61.3 644.5,70.2 657.3,99.2 663.4,96.4 			"/>
		</g>
	</g>
</g>
</svg>
