<?xml version="1.0" encoding="UTF-8"?>
<svg width="490px" height="80px" viewBox="0 0 490 80" version="1.1" xmlns="http://www.w3.org/2000/svg" xmlns:xlink="http://www.w3.org/1999/xlink">
    <!-- Generator: Sketch 52.5 (67469) - http://www.bohemiancoding.com/sketch -->
    <title>Group 2</title>
    <desc>Created with Sketch.</desc>
    <g id="Logo" stroke="none" stroke-width="1" fill="none" fill-rule="evenodd">
        <g transform="translate(-80.000000, -160.000000)" id="branding/logo-copy">
            <g transform="translate(80.000000, 160.000000)">
                <g id="Group">
                    <g id="Group-6">
                        <g id="Group-5">
                            <g id="Group-4">
                                <g id="Group-3">
                                    <g id="Group-2">
                                        <g id="Keep" transform="translate(0.000000, 0.000000)">
                                            <path d="M5.71772828,80 L136.666667,80 C136.666667,40.0002331 136.395787,7.97140132e-14 136.395787,7.97140132e-14 L5.62823259,7.97140132e-14 C3.68612836,7.97140132e-14 2.04984093,1.57531892 1.80671896,3.67419011 C0.703098372,13.2053591 -1.68026266,40.4902184 1.88855726,76.2498179 C2.10104969,78.3822561 3.74930178,80 5.71772828,80" id="Dark" fill="#585858"></path>
                                            <polygon id="Fill-4" fill="#FFFFFF" points="25.3643647 44.7339503 23.3106789 49.000564 23.3106789 63.3343733 16.6666667 63.3343733 16.6666667 16.6666667 23.3106789 16.6666667 23.3106789 37.0003393 32.0083769 16.6666667 38.6523891 16.6666667 29.4110536 37.4671558 38.6523891 63.3343733 31.8273316 63.3343733"></polygon>
                                            <polygon id="Fill-6" fill="#FFFFFF" points="53.3111804 36.3337432 62.4316518 36.3337432 62.4316518 43.0007007 53.3111804 43.0007007 53.3111804 56.6674158 64.7872471 56.6674158 64.7872471 63.3343733 46.6666667 63.3343733 46.6666667 16.6666667 64.7872471 16.6666667 64.7872471 23.3336242 53.3111804 23.3336242"></polygon>
                                            <polygon id="Fill-8" fill="#FFFFFF" points="79.9773455 36.3337432 89.097817 36.3337432 89.097817 43.0007007 79.9773455 43.0007007 79.9773455 56.6674158 91.4534122 56.6674158 91.4534122 63.3343733 73.3333333 63.3343733 73.3333333 16.6666667 91.4534122 16.6666667 91.4534122 23.3336242 79.9773455 23.3336242"></polygon>
                                            <path d="M106.644012,23.3336242 L106.644012,39.1336461 L109.784973,39.1336461 C111.899342,39.1336461 113.046798,38.1337519 113.046798,34.7335139 L113.046798,27.7332583 C113.046798,24.3335184 111.899342,23.3336242 109.784973,23.3336242 L106.644012,23.3336242 Z M109.784973,16.6666667 C116.489166,16.6666667 119.69081,20.6662434 119.69081,28.200573 L119.69081,34.2666973 C119.69081,41.8000306 116.489166,45.8006037 109.784973,45.8006037 L106.644012,45.8006037 L106.644012,63.3343733 L100,63.3343733 L100,16.6666667 L109.784973,16.6666667 Z" id="Fill-10" fill="#FFFFFF"></path>
                                        </g>
                                        <g id="Group-7" transform="translate(140.000000, 0.000000)" fill="#4A88C2">
                                            <g id="Group-8">
                                                <polygon id="Fill-12" points="-3.55271368e-15 80 46.6666667 80 46.6666667 0 -3.55271368e-15 0"></polygon>
                                                <polygon id="Fill-15" points="50 80 96.6666667 80 96.6666667 0 50 0"></polygon>
                                                <polygon id="Fill-17" points="100 80 146.666667 80 146.666667 0 100 0"></polygon>
                                                <polygon id="Fill-19" points="150 80 196.666667 80 196.666667 0 150 0"></polygon>
                                                <polygon id="Fill-21" points="200 80 246.666667 80 246.666667 0 200 0"></polygon>
                                                <polygon id="Fill-23" points="250 80 296.666667 80 296.666667 0 250 0"></polygon>
                                                <path d="M343.970704,80 L300.104474,80 C299.869408,40.0002331 300.104474,0 300.104474,0 L344.065001,0 C346.112919,0 347.838693,1.57531892 348.094965,3.67419011 C349.258113,13.2053591 351.771652,40.4902184 348.008789,76.2498179 C347.784551,78.3822561 346.046144,80 343.970704,80" id="Fill-25"></path>
                                            </g>
                                        </g>
                                        <g id="Letters" transform="translate(153.000000, 17.000000)" fill="#FFFFFF">
                                            <polygon id="Fill-14" points="0 0 20 0 20 6.66680901 13.2353228 6.66680901 13.2353228 46.6666667 6.76467715 46.6666667 6.76467715 6.66680901 0 6.66680901"></polygon>
                                            <path d="M56.4327855,6.66680901 L56.4327855,21.0002989 L58.9475345,21.0002989 C61.3452621,21.0002989 62.8073029,19.8001537 62.8073029,16.0667008 L62.8073029,11.4668916 C62.8073029,8.06722749 61.8128627,6.66680901 59.5321566,6.66680901 L56.4327855,6.66680901 Z M63.4506786,46.6666667 C63.391925,46.333376 63.2749035,46.0668432 63.2166355,45.8003103 C63.0408604,45.2662482 62.9243245,44.5334074 62.9243245,43.2670026 C62.8655709,42.6666809 62.8655709,41.8665841 62.8655709,40.93347 L62.8655709,33.6005779 C62.8655709,29.2668033 61.6375731,27.6666097 58.6552235,27.6666097 L56.4327855,27.6666097 L56.4327855,46.6666667 L50,46.6666667 L50,0 L59.7079317,0 C66.4330282,0 69.2400884,3.5336778 69.2400884,10.7335525 L69.2400884,14.3997495 C69.2400884,19.2003302 67.8363155,22.3334614 65.029741,23.8663991 C68.3044017,25.4003331 69.2983564,28.9330145 69.2983564,33.800353 L69.2983564,41.0002277 C69.2983564,43.3337604 69.3571099,44.866698 70,46.6666667 L63.4506786,46.6666667 Z" id="Fill-16"></path>
                                            <path d="M106.666667,-2.94508071e-28 L106.666667,35.5435164 C106.666667,38.9000379 108.374004,40.0190424 110.152727,40.0190424 C111.931028,40.0190424 113.333333,38.9000379 113.333333,35.5435164 L113.333333,-2.94508071e-28 L120.015811,0 L120.015811,35.0821423 C120.015811,42.5202018 115.488052,46.6666667 110,46.6666667 C104.51237,46.6666667 100.086031,42.5202018 100.086031,35.0821423 L100.086031,0 L106.666667,-2.94508071e-28 Z" id="Fill-18"></path>
                                            <path d="M166.666667,29.1342768 L166.666667,35.195313 C166.666667,42.5602221 163.820891,46.6666667 158.333544,46.6666667 C152.845354,46.6666667 150,42.5602221 150,35.195313 L150,11.4708666 C150,4.1059575 152.845354,0 158.333544,0 C163.820891,0 166.666667,4.1059575 166.666667,11.4708666 L166.666667,15.9031576 L161.382258,15.9031576 L161.382258,11.0149738 C161.382258,7.69075551 160.264199,6.51741605 158.485853,6.51741605 C156.707507,6.51741605 155.589449,7.69075551 155.589449,11.0149738 L155.589449,35.6516929 C155.589449,38.9759112 156.707507,40.0834968 158.485853,40.0834968 C160.264199,40.0834968 161.382258,38.9759112 161.382258,35.6516929 L161.382258,29.1342768 L166.666667,29.1342768 Z" id="Fill-20"></path>
                                            <polygon id="Fill-22" points="207.912133 28.0666581 206.043933 32.3331768 206.043933 46.6666667 200 46.6666667 200 0 206.043933 0 206.043933 20.3332195 213.956067 0 220 0 211.59333 20.8000256 220 46.6666667 213.791373 46.6666667"></polygon>
                                            <polygon id="Fill-24" points="256.666667 46.6666667 263.333333 46.6666667 263.333333 0 256.666667 0"></polygon>
                                            <polygon id="Fill-26" points="305.673297 12.8668119 305.673297 46.6666667 300 46.6666667 300 0 307.90826 0 314.384279 27.9331426 314.384279 0 320 0 320 46.6666667 313.524458 46.6666667"></polygon>
                                        </g>
                                    </g>
                                </g>
                            </g>
                        </g>
                    </g>
                </g>
            </g>
        </g>
    </g>
</svg>