<?xml version="1.0" encoding="UTF-8"?>
<svg width="64px" height="61px" viewBox="0 0 64 61" version="1.1" xmlns="http://www.w3.org/2000/svg" xmlns:xlink="http://www.w3.org/1999/xlink">
    <!-- Generator: Sketch 52.5 (67469) - http://www.bohemiancoding.com/sketch -->
    <title>Logo Copy</title>
    <desc>Created with Sketch.</desc>
    <g id="App-Icon" stroke="none" stroke-width="1" fill="none" fill-rule="evenodd">
        <g transform="translate(-80.000000, -240.000000)" id="branding/logo-condensed">
            <g transform="translate(80.000000, 160.000000)">
                <g id="Logo-Copy" transform="translate(0.000000, 80.000000)">
                    <g id="T" transform="translate(32.864865, 0.000000)">
                        <path d="M4.20693712,60.952381 L31.1351351,60.952381 L31.1351351,36.0721071 L31.1351351,0 L4.20037767,0 C2.50508681,0 1.09677207,1.29087972 0.97279839,2.96057289 C0.392942667,10.7663966 -0.894022183,33.0325338 0.978701898,57.9921318 C1.10398747,59.6611775 2.51197424,60.952381 4.20693712,60.952381" id="right" fill="#4A88C2" transform="translate(15.567568, 30.476190) scale(-1, 1) translate(-15.567568, -30.476190) "></path>
                        <polygon id="Fill-8" fill="#FFFFFF" points="6.91891892 13.9319728 22.0207268 13.9319728 22.0207268 18.403383 16.6895544 18.403383 16.6895544 47.0204082 12.1081081 47.0204082 12.1081081 18.403383 6.91891892 18.4240516"></polygon>
                    </g>
                    <g id="K">
                        <path d="M4.20693712,60.952381 L31.1351351,60.952381 L31.1351351,36.0721071 L31.1351351,0 L4.20037767,0 C2.50508681,0 1.09677207,1.29087972 0.97279839,2.96057289 C0.392942667,10.7663966 -0.894022183,33.0325338 0.978701898,57.9921318 C1.10398747,59.6611775 2.51197424,60.952381 4.20693712,60.952381" id="left" fill="#585858"></path>
                        <polygon fill="#FFFFFF" points="14.5521379 33.8321825 13.1581166 36.8574851 13.1581166 47.0204082 8.64864865 47.0204082 8.64864865 13.9319728 13.1581166 13.9319728 13.1581166 28.3492063 19.0616059 13.9319728 23.5710738 13.9319728 17.2989667 28.6797246 23.5710738 47.0204082 18.9386234 47.0204082"></polygon>
                    </g>
                </g>
            </g>
        </g>
    </g>
</svg>