<?xml version="1.0" encoding="UTF-8"?>
<svg width="24px" height="24px" viewBox="0 0 24 24" version="1.1" xmlns="http://www.w3.org/2000/svg" xmlns:xlink="http://www.w3.org/1999/xlink">
    <!-- Generator: Sketch 52.6 (67491) - http://www.bohemiancoding.com/sketch -->
    <title>icon-avatar-24</title>
    <desc>Created with Sketch.</desc>
    <g id="Icon" stroke="none" stroke-width="1" fill="none" fill-rule="evenodd">
        <g id="Index" transform="translate(-120.000000, -440.000000)" fill="#262F36">
            <path d="M131.49999,442 C136.746678,442 140.999979,446.253301 140.999979,451.500011 C140.999979,456.746699 136.746678,461 131.49999,461 C126.253302,461 122.000001,456.746699 122.000001,451.500011 C122.000001,446.253301 126.253302,442 131.49999,442 Z M131.5,443.000003 C126.805547,443.000003 123,446.805483 123,451.499915 C123,456.194324 126.805547,459.999959 131.5,459.999959 C136.194453,459.999959 140,456.194324 140,451.499915 C140,446.805483 136.194453,443.000003 131.5,443.000003 Z M136.86144,458.096127 C136.477967,456.880995 135.341867,456 134,456 L129,456 C127.658133,456 126.522033,456.880995 126.13856,458.096127 C125.859885,457.869339 125.595856,457.625245 125.348112,457.365482 C125.973115,455.97122 127.373137,455 129,455 L134,455 C135.626863,455 137.026885,455.97122 137.651888,457.365482 C137.404144,457.625245 137.140115,457.869339 136.86144,458.096127 Z M131.5,454 C129.014719,454 127,451.985281 127,449.5 C127,447.014719 129.014719,445 131.5,445 C133.985281,445 136,447.014719 136,449.5 C136,451.985281 133.985281,454 131.5,454 Z M131.5,453 C133.432997,453 135,451.432997 135,449.5 C135,447.567003 133.432997,446 131.5,446 C129.567003,446 128,447.567003 128,449.5 C128,451.432997 129.567003,453 131.5,453 Z" id="shape"></path>
        </g>
    </g>
</svg>