<?xml version="1.0" encoding="UTF-8"?>
<svg width="120px" height="120px" viewBox="0 0 120 120" version="1.1" xmlns="http://www.w3.org/2000/svg" xmlns:xlink="http://www.w3.org/1999/xlink">
    <!-- Generator: Sketch 52.6 (67491) - http://www.bohemiancoding.com/sketch -->
    <title>icon-location-no-120</title>
    <desc>Created with Sketch.</desc>
    <g id="Icon" stroke="none" stroke-width="1" fill="none" fill-rule="evenodd">
        <g id="Index" transform="translate(-200.000000, -760.000000)" fill="#262F36">
            <path d="M292.519103,788.89511 L228.89511,852.519103 C220.332606,844.326704 215,832.7861 215,820 C215,795.147186 235.147186,775 260,775 C272.7861,775 284.326704,780.332606 292.519103,788.89511 Z M289.690313,788.895474 C281.971804,781.525765 271.514427,777 260,777 C236.251756,777 217,796.251756 217,820 C217,831.514427 221.525765,841.971804 228.895474,849.690313 L246.291038,832.294748 C242.687476,827.730186 240,822.64881 240,814.882353 C240,803.901633 248.954305,795 260,795 C266.44851,795 272.184221,798.033908 275.841581,802.744206 L289.690313,788.895474 Z M256.42637,822.159416 C253.802001,820.846913 252,818.133896 252,815 C252,810.581722 255.581722,807 260,807 C263.133896,807 265.846913,808.802001 267.159416,811.42637 L274.414835,804.170952 C271.132179,799.817718 265.898128,797 260,797 C250.056242,797 242,805.008852 242,814.882353 C242,821.285324 243.627013,825.593959 247.724391,830.861395 L256.42637,822.159416 Z M265.639363,812.946423 C264.800754,810.644067 262.592373,809 260,809 C256.686292,809 254,811.686292 254,815 C254,817.592373 255.644067,819.800754 257.946423,820.639363 L265.639363,812.946423 Z M230.371868,853.870772 L231.789363,852.453278 C239.340167,859.022547 249.205592,863 260,863 C283.748244,863 303,843.748244 303,820 C303,809.205592 299.022547,799.340167 292.453278,791.789363 L293.870772,790.371868 C300.800413,798.287357 305,808.653246 305,820 C305,844.852814 284.852814,865 260,865 C248.653246,865 238.287357,860.800413 230.371868,853.870772 Z M276.505522,807.737118 L278.012195,806.230445 C279.285876,808.846163 280,811.781352 280,814.882353 C280,824.5 276,830 271,835.5 C267.666667,839.166667 264,843 260,847 C255.91912,843 252.252453,839.166667 249,835.5 C248.95965,835.454512 248.919352,835.409023 248.879108,835.363532 L250.296102,833.946538 C250.362354,834.021695 250.429049,834.097125 250.496197,834.172824 C253.337415,837.375884 256.501193,840.710862 259.987365,844.177215 C263.42402,840.705922 266.601641,837.364981 269.52012,834.154654 C275.610916,827.454778 278,822.65499 278,814.882353 C278,812.342335 277.466833,809.925721 276.505522,807.737118 Z" id="Shape"></path>
        </g>
    </g>
</svg>