<?xml version="1.0" encoding="UTF-8"?>
<svg width="120px" height="120px" viewBox="0 0 120 120" version="1.1" xmlns="http://www.w3.org/2000/svg" xmlns:xlink="http://www.w3.org/1999/xlink">
    <!-- Generator: Sketch 52.6 (67491) - http://www.bohemiancoding.com/sketch -->
    <title>icon-vehicle-120</title>
    <desc>Created with Sketch.</desc>
    <g id="Icon" stroke="none" stroke-width="1" fill="none" fill-rule="evenodd">
        <g id="Index" transform="translate(-440.000000, -760.000000)" fill="#262F36">
            <path d="M525.970469,821 L510,821 L510,833 L513.100018,833 C513.563288,830.71776 515.581042,829 518,829 C520.418958,829 522.436712,830.71776 522.899982,833 L526,833 L526,821.485281 C526,821.322224 525.990044,821.160192 525.970469,821 Z M525.134245,819 C525.039432,818.880435 524.937398,818.765825 524.828427,818.656854 L518.343146,812.171573 C517.593,811.421427 516.575585,811 515.514719,811 L510,811 L510,819 L525.134245,819 Z M510,809 L515.514719,809 C517.106018,809 518.632141,809.632141 519.757359,810.757359 L526.242641,817.242641 C527.367859,818.367859 528,819.893982 528,821.485281 L528,833 C528,834.104569 527.104569,835 526,835 L522.899982,835 C522.436712,837.28224 520.418958,839 518,839 C515.581042,839 513.563288,837.28224 513.100018,835 L488.899982,835 C488.436712,837.28224 486.418958,839 484,839 C481.581042,839 479.563288,837.28224 479.100018,835 L476,835 C474.895431,835 474,834.104569 474,833 L474,803 C474,801.895431 474.895431,801 476,801 L508,801 C509.104569,801 510,801.895431 510,803 L510,809 Z M508,833 L508,803 L476,803 L476,833 L479.100018,833 C479.563288,830.71776 481.581042,829 484,829 C486.418958,829 488.436712,830.71776 488.899982,833 L508,833 Z M500,865 C475.147186,865 455,844.852814 455,820 C455,795.147186 475.147186,775 500,775 C524.852814,775 545,795.147186 545,820 C545,844.852814 524.852814,865 500,865 Z M500,863 C523.748244,863 543,843.748244 543,820 C543,796.251756 523.748244,777 500,777 C476.251756,777 457,796.251756 457,820 C457,843.748244 476.251756,863 500,863 Z M484,837 C485.656854,837 487,835.656854 487,834 C487,832.343146 485.656854,831 484,831 C482.343146,831 481,832.343146 481,834 C481,835.656854 482.343146,837 484,837 Z M518,837 C519.656854,837 521,835.656854 521,834 C521,832.343146 519.656854,831 518,831 C516.343146,831 515,832.343146 515,834 C515,835.656854 516.343146,837 518,837 Z" id="shape"></path>
        </g>
    </g>
</svg>