<?xml version="1.0" encoding="UTF-8"?>
<svg width="120px" height="120px" viewBox="0 0 120 120" version="1.1" xmlns="http://www.w3.org/2000/svg" xmlns:xlink="http://www.w3.org/1999/xlink">
    <!-- Generator: Sketch 52.6 (67491) - http://www.bohemiancoding.com/sketch -->
    <title>icon-reports-locked-120</title>
    <desc>Created with Sketch.</desc>
    <g id="Icon" stroke="none" stroke-width="1" fill="none" fill-rule="evenodd">
        <g id="Index" transform="translate(-680.000000, -880.000000)" fill="#262F36">
            <path d="M728,917 L728,957 L758,957 L758,927 L750,927 C748.895431,927 748,926.104569 748,925 L748,917 L728,917 Z M757.171573,925 L750,917.828427 L750,925 L757.171573,925 Z M728,915 L750,915 L760,925 L760,957 C760,958.104569 759.104569,959 758,959 L728,959 C726.895431,959 726,958.104569 726,957 L726,917 C726,915.895431 726.895431,915 728,915 Z M734,925 L744,925 L744,927 L734,927 L734,925 Z M734,947 L752,947 L752,949 L734,949 L734,947 Z M734,936 L752,936 L752,938 L734,938 L734,936 Z M752,961 L754,961 L754,963 C754,964.104569 753.104569,965 752,965 L722,965 C720.895431,965 720,964.104569 720,963 L720,923 C720,921.895431 720.895431,921 722,921 L724,921 L724,923 L722,923 L722,963 L752,963 L752,961 Z M760.818551,900.094895 C760.490237,900.672836 760.201866,901.276433 759.957191,901.901933 C753.993002,898.771235 747.203348,897 740,897 C716.251756,897 697,916.251756 697,940 C697,963.748244 716.251756,983 740,983 C763.748244,983 783,963.748244 783,940 C783,932.796652 781.228765,926.006998 778.098067,920.042809 C778.723567,919.798134 779.327164,919.509763 779.905105,919.181449 C783.159594,925.4069 785,932.488525 785,940 C785,964.852814 764.852814,985 740,985 C715.147186,985 695,964.852814 695,940 C695,915.147186 715.147186,895 740,895 C747.511475,895 754.5931,896.840406 760.818551,900.094895 Z M773,919 C766.372583,919 761,913.627417 761,907 C761,900.372583 766.372583,895 773,895 C779.627417,895 785,900.372583 785,907 C785,913.627417 779.627417,919 773,919 Z M773,917 C778.522847,917 783,912.522847 783,907 C783,901.477153 778.522847,897 773,897 C767.477153,897 763,901.477153 763,907 C763,912.522847 767.477153,917 773,917 Z M771,905 L775,905 L775,904 C775,902.895431 774.104569,902 773,902 C771.895431,902 771,902.895431 771,904 L771,905 Z M777,905 C778.104569,905 779,905.895431 779,907 L779,911 C779,912.104569 778.104569,913 777,913 L769,913 C767.895431,913 767,912.104569 767,911 L767,907 C767,905.895431 767.895431,905 769,905 L769,904 C769,901.790861 770.790861,900 773,900 C775.209139,900 777,901.790861 777,904 L777,905 Z M769,907 L769,911 L777,911 L777,907 L769,907 Z" id="shape"></path>
        </g>
    </g>
</svg>